<?xml version="1.0" encoding="utf-8"?>
<!-- Generator: Adobe Illustrator 16.0.0, SVG Export Plug-In . SVG Version: 6.00 Build 0)  -->
<!DOCTYPE svg PUBLIC "-//W3C//DTD SVG 1.1//EN" "http://www.w3.org/Graphics/SVG/1.1/DTD/svg11.dtd">
<svg version="1.1" id="Layer_1" xmlns="http://www.w3.org/2000/svg" xmlns:xlink="http://www.w3.org/1999/xlink" x="0px" y="0px"
	 width="115.846px" height="34.404px" viewBox="0 0 115.846 34.404" enable-background="new 0 0 115.846 34.404"
	 xml:space="preserve">
<g>
	<path fill="#17B36E" d="M17.996,13.146h-0.537c-0.247-0.806-0.538-1.5-0.873-2.082c-0.336-0.582-0.717-1.074-1.142-1.477
		c-0.582-0.582-1.259-1.013-2.031-1.293c-0.772-0.279-1.617-0.419-2.535-0.419c-1.276,0-2.4,0.247-3.374,0.739
		S5.719,9.856,5.07,10.863c-0.56,0.851-0.979,1.785-1.259,2.804c-0.28,1.019-0.419,2.11-0.419,3.273
		c0,0.962,0.089,1.875,0.269,2.736c0.179,0.862,0.458,1.685,0.839,2.468c0.357,0.784,0.783,1.467,1.276,2.048
		c0.492,0.583,1.029,1.053,1.611,1.41c0.604,0.358,1.214,0.633,1.83,0.823s1.237,0.285,1.863,0.285c0.358,0,0.716-0.022,1.075-0.067
		c0.357-0.045,0.705-0.123,1.041-0.235c0.358-0.089,0.699-0.201,1.024-0.335c0.324-0.135,0.655-0.291,0.991-0.471v-5.774
		c0-0.492-0.022-0.906-0.067-1.242s-0.101-0.582-0.168-0.739c-0.089-0.134-0.19-0.262-0.302-0.385
		c-0.112-0.123-0.247-0.229-0.403-0.319c-0.157-0.067-0.38-0.123-0.671-0.167s-0.638-0.067-1.041-0.067v-0.537h7.755v0.537h-0.369
		c-0.381,0-0.705,0.067-0.974,0.202s-0.47,0.325-0.604,0.57c-0.09,0.18-0.163,0.449-0.218,0.807
		c-0.056,0.358-0.084,0.806-0.084,1.343v6.11c-0.56,0.291-1.119,0.549-1.679,0.772s-1.108,0.414-1.645,0.57
		c-0.56,0.135-1.147,0.241-1.763,0.319c-0.616,0.078-1.259,0.117-1.93,0.117c-1.925,0-3.621-0.313-5.086-0.939
		c-1.466-0.627-2.703-1.556-3.71-2.787c-0.739-0.917-1.298-1.914-1.679-2.988C0.19,19.928,0,18.786,0,17.578
		c0-0.873,0.106-1.734,0.319-2.585c0.212-0.851,0.532-1.667,0.957-2.451c0.492-0.962,1.085-1.813,1.779-2.551
		c0.693-0.739,1.477-1.365,2.35-1.88c0.716-0.425,1.511-0.744,2.384-0.957s1.801-0.319,2.787-0.319c0.358,0,0.705,0.012,1.041,0.034
		c0.335,0.022,0.649,0.067,0.94,0.134c0.313,0.067,0.677,0.163,1.091,0.286s0.901,0.285,1.46,0.487
		C15.377,7.887,15.6,7.97,15.78,8.026c0.179,0.056,0.313,0.084,0.403,0.084c0.112,0,0.207-0.022,0.285-0.067
		c0.078-0.045,0.151-0.112,0.218-0.202c0.067-0.089,0.118-0.218,0.151-0.386c0.033-0.167,0.061-0.375,0.083-0.621h0.538
		L17.996,13.146z M35.42,7.573c1.119,0.493,2.148,1.231,3.088,2.216c0.962,0.985,1.679,2.087,2.149,3.307
		c0.47,1.22,0.705,2.568,0.705,4.045c0,1.523-0.235,2.91-0.705,4.164s-1.187,2.384-2.149,3.391s-2.026,1.763-3.189,2.267
		c-1.164,0.503-2.417,0.755-3.76,0.755c-1.388,0-2.658-0.246-3.811-0.738s-2.199-1.23-3.139-2.216
		c-0.94-0.962-1.645-2.076-2.115-3.341c-0.47-1.265-0.705-2.68-0.705-4.247c0-1.566,0.274-2.999,0.823-4.297
		c0.548-1.298,1.36-2.451,2.434-3.458c0.94-0.851,1.969-1.494,3.089-1.931c1.119-0.437,2.338-0.655,3.66-0.655
		C33.092,6.834,34.301,7.081,35.42,7.573z M29.075,8.396c-0.716,0.325-1.343,0.822-1.88,1.494c-0.672,0.829-1.175,1.847-1.511,3.055
		c-0.335,1.209-0.503,2.608-0.503,4.197c0,1.634,0.173,3.078,0.521,4.332c0.347,1.253,0.867,2.316,1.561,3.189
		c0.537,0.671,1.158,1.17,1.863,1.494s1.505,0.486,2.401,0.486c0.94,0,1.796-0.179,2.568-0.537c0.772-0.357,1.46-0.906,2.064-1.646
		c0.626-0.738,1.091-1.684,1.394-2.837c0.302-1.152,0.453-2.512,0.453-4.079c0-1.701-0.168-3.189-0.503-4.465
		c-0.336-1.275-0.839-2.338-1.511-3.189c-0.537-0.649-1.181-1.141-1.93-1.477c-0.75-0.336-1.606-0.503-2.568-0.503
		C30.597,7.909,29.791,8.071,29.075,8.396z"/>
</g>
<g>
	<path fill="#4583C4" d="M92.008,31.929c0.582-0.202,1.311-0.471,2.184-0.807c-1.479,1.187-2.775,1.947-3.895,2.283
		c-1.143,0.336-2.553,0.615-4.23,0.84c-1.68,0.224-3.693,0.212-6.043-0.034c-1.164-0.156-2.547-0.459-4.146-0.906
		c-1.602-0.448-3.229-1.107-4.885-1.98c-1.68-0.896-3.285-1.791-4.818-2.687c-1.533-0.895-2.715-1.633-3.543-2.216
		c-1.051,0.426-2.025,0.733-2.92,0.924c-0.896,0.19-1.942,0.308-3.139,0.353c-1.198,0.045-2.468-0.101-3.811-0.437
		c-0.179-0.045-1.019-0.353-2.518-0.924c-1.5-0.57-3.033-1.729-4.6-3.475c-0.202-0.246-0.616-0.816-1.243-1.712
		s-1.119-2.138-1.477-3.727c-0.112-0.604-0.224-1.381-0.335-2.333c-0.112-0.951-0.112-1.964,0-3.039
		c0.134-0.806,0.319-1.656,0.554-2.552c0.235-0.895,0.609-1.746,1.125-2.551c0.269-0.425,0.823-1.181,1.662-2.267
		c0.839-1.085,2.065-2.042,3.676-2.87c0.246-0.157,0.945-0.481,2.099-0.974C52.856,0.347,54.652,0.067,57.092,0
		c0.851,0.067,1.605,0.146,2.266,0.235c0.66,0.09,1.047,0.168,1.158,0.235c2.127,0.717,3.885,1.657,5.271,2.82
		c0.648,0.627,1.365,1.382,2.148,2.266c0.783,0.884,1.422,2.076,1.914,3.576c0.156,0.515,0.342,1.354,0.555,2.518
		c0.213,1.164,0.219,2.597,0.016,4.297c-0.09,0.515-0.262,1.31-0.52,2.384s-1.002,2.429-2.232,4.063
		c-0.359,0.402-0.813,0.879-1.359,1.427c-0.549,0.549-1.125,1.013-1.73,1.394l3.693,2.249c3.045,1.836,5.26,3.021,6.648,3.559
		c0.693,0.269,1.611,0.583,2.752,0.94c1.143,0.357,2.15,0.604,3.021,0.738c0.852,0.112,1.92,0.202,3.207,0.269
		c1.287,0.067,2.355,0.034,3.207-0.101c0.85-0.134,1.734-0.274,2.652-0.42C90.676,32.303,91.426,32.13,92.008,31.929z
		 M62.901,24.374c1.521-1.007,2.535-2.087,3.039-3.239c0.502-1.153,0.822-1.986,0.955-2.502c0.135-0.514,0.258-1.343,0.371-2.484
		c0.111-1.142,0.145-2.227,0.1-3.257c-0.045-1.455-0.234-2.697-0.57-3.727c-0.336-1.029-0.65-1.835-0.939-2.417
		c-0.852-2.037-2.943-3.637-6.279-4.801c-1.119-0.269-2.182-0.38-3.189-0.336c-1.007,0.045-1.835,0.112-2.484,0.202
		c-2.261,0.358-3.9,1.187-4.918,2.484c-1.019,1.298-1.673,2.227-1.964,2.787c-0.694,1.433-1.08,2.938-1.158,4.516
		c-0.079,1.578-0.107,2.893-0.084,3.945c0.269,2.619,0.844,4.539,1.729,5.758c0.884,1.22,1.583,2.087,2.098,2.602
		c1.186,0.985,2.439,1.617,3.76,1.896c1.32,0.28,2.535,0.393,3.643,0.336c1.107-0.056,2.389-0.296,3.844-0.722
		c-1.074-0.492-2.137-0.851-3.189-1.074c-1.052-0.224-1.986-0.363-2.803-0.42c-0.817-0.056-1.729-0.05-2.736,0.017
		c0.269-0.156,0.767-0.318,1.494-0.486c0.727-0.168,1.471-0.308,2.232-0.42c1.791-0.269,3.424-0.105,4.902,0.487
		C62.229,24.111,62.946,24.396,62.901,24.374z M87.813,7.923h0.771c0.357,0,0.682,0.05,0.975,0.151
		c0.289,0.101,0.525,0.263,0.705,0.487c0.156,0.157,0.268,0.431,0.334,0.823c0.068,0.392,0.102,0.901,0.102,1.527v8.058
		c0,1.074-0.051,1.986-0.15,2.736c-0.102,0.75-0.242,1.349-0.42,1.796c-0.201,0.448-0.477,0.852-0.822,1.209
		c-0.348,0.358-0.779,0.683-1.293,0.974c-0.516,0.291-1.064,0.504-1.645,0.638c-0.584,0.135-1.209,0.202-1.881,0.202
		c-0.492,0-0.957-0.045-1.393-0.135c-0.438-0.089-0.836-0.224-1.193-0.403c-0.336-0.179-0.637-0.386-0.906-0.621
		c-0.268-0.234-0.504-0.486-0.705-0.755c-0.18-0.291-0.336-0.627-0.469-1.008c-0.135-0.38-0.236-0.827-0.303-1.343
		c-0.068-0.492-0.117-0.962-0.152-1.41c-0.033-0.447-0.049-0.861-0.049-1.242v-8.695c0-0.559,0.027-1.024,0.084-1.393
		c0.055-0.37,0.15-0.643,0.285-0.823c0.178-0.269,0.414-0.464,0.705-0.587s0.637-0.185,1.041-0.185h0.771V7.386h-8.629v0.538h0.738
		c0.381,0,0.711,0.045,0.99,0.134c0.281,0.089,0.498,0.235,0.656,0.437c0.178,0.179,0.313,0.47,0.402,0.873s0.135,0.918,0.135,1.544
		V18.7c0,1.209,0.039,2.222,0.117,3.038c0.078,0.817,0.195,1.438,0.352,1.863c0.225,0.65,0.537,1.226,0.941,1.729
		c0.402,0.504,0.883,0.946,1.443,1.326c0.559,0.381,1.254,0.666,2.082,0.856c0.826,0.19,1.789,0.285,2.887,0.285
		c1.008,0,1.908-0.101,2.703-0.302c0.793-0.202,1.482-0.492,2.064-0.873c0.582-0.403,1.068-0.84,1.461-1.31
		c0.391-0.47,0.688-0.984,0.889-1.545c0.18-0.559,0.318-1.225,0.42-1.997s0.15-1.662,0.15-2.669v-8.092
		c0-0.559,0.029-1.012,0.084-1.359c0.057-0.347,0.141-0.599,0.252-0.755c0.201-0.336,0.453-0.582,0.756-0.739
		c0.303-0.156,0.654-0.235,1.059-0.235h0.738V7.386h-7.084V7.923z M106.245,6.916c-1.299,0-2.508,0.218-3.627,0.655
		s-2.148,1.08-3.088,1.93c-1.098,1.007-1.914,2.16-2.451,3.458c-0.537,1.298-0.807,2.742-0.807,4.331
		c0,1.545,0.236,2.949,0.705,4.214c0.471,1.265,1.176,2.378,2.115,3.341c0.941,0.984,1.986,1.724,3.141,2.216
		c1.152,0.492,2.41,0.738,3.775,0.738s2.631-0.252,3.795-0.756c1.164-0.503,2.227-1.259,3.189-2.266
		c0.939-1.008,1.65-2.138,2.131-3.392c0.482-1.253,0.723-2.641,0.723-4.163c0-1.478-0.234-2.826-0.705-4.046
		c-0.471-1.219-1.186-2.322-2.148-3.307c-0.939-0.985-1.977-1.724-3.105-2.216C108.756,7.163,107.542,6.916,106.245,6.916z
		 M105.975,7.99c0.963,0,1.814,0.168,2.553,0.504c0.738,0.335,1.375,0.839,1.914,1.511c0.693,0.828,1.207,1.88,1.543,3.156
		s0.504,2.765,0.504,4.465c0,1.567-0.156,2.927-0.471,4.079c-0.313,1.153-0.771,2.099-1.375,2.837
		c-0.605,0.738-1.299,1.287-2.082,1.646s-1.645,0.537-2.586,0.537c-0.873,0-1.662-0.162-2.367-0.487
		c-0.705-0.324-1.326-0.822-1.863-1.494c-0.693-0.872-1.213-1.936-1.561-3.189c-0.348-1.253-0.52-2.696-0.52-4.331
		c0-1.589,0.168-2.988,0.502-4.197c0.336-1.208,0.84-2.227,1.512-3.055c0.537-0.649,1.164-1.142,1.881-1.477
		C104.274,8.158,105.081,7.99,105.975,7.99z"/>
</g>
</svg>
