<?xml version="1.0" encoding="utf-8"?>
<!-- Generator: Adobe Illustrator 21.1.0, SVG Export Plug-In . SVG Version: 6.00 Build 0)  -->
<svg version="1.1" id="Layer_1" xmlns="http://www.w3.org/2000/svg" xmlns:xlink="http://www.w3.org/1999/xlink" x="0px" y="0px"
	 viewBox="0 0 182 37" style="enable-background:new 0 0 182 37;" xml:space="preserve">
<style type="text/css">
	.st0{fill:url(#SVGID_1_);}
	.st1{fill:url(#SVGID_2_);}
	.st2{fill:url(#SVGID_3_);}
	.st3{fill:#555657;}
	.st4{fill:#F8EC1F;}
	.st5{fill:#262626;}
	.st6{fill:#FFFFFF;}
	.st7{fill:#221F1F;}
	.st8{fill:#F7EB1E;}
	.st9{fill:url(#SVGID_4_);}
	.st10{fill:url(#SVGID_5_);}
	.st11{clip-path:url(#SVGID_7_);fill:url(#SVGID_8_);}
	.st12{clip-path:url(#SVGID_7_);fill:url(#SVGID_9_);}
	.st13{fill:#444444;}
	.st14{fill:url(#SVGID_10_);}
	.st15{fill:url(#SVGID_11_);}
	.st16{opacity:0.2;clip-path:url(#SVGID_13_);fill:url(#SVGID_14_);}
	.st17{opacity:0.2;clip-path:url(#SVGID_13_);fill:url(#SVGID_15_);}
	.st18{fill:#FF003D;}
	.st19{fill:url(#SVGID_16_);}
	.st20{fill:url(#SVGID_17_);}
	.st21{opacity:0.2;clip-path:url(#SVGID_19_);fill:url(#SVGID_20_);}
	.st22{opacity:0.2;clip-path:url(#SVGID_19_);fill:url(#SVGID_21_);}
	.st23{fill:url(#SVGID_22_);}
	.st24{fill:url(#SVGID_23_);}
	.st25{opacity:0.2;clip-path:url(#SVGID_25_);fill:url(#SVGID_26_);}
	.st26{opacity:0.2;clip-path:url(#SVGID_25_);fill:url(#SVGID_27_);}
	.st27{fill:url(#SVGID_28_);}
	.st28{fill:url(#SVGID_29_);}
	.st29{opacity:0.2;clip-path:url(#SVGID_31_);fill:url(#SVGID_32_);}
	.st30{opacity:0.2;clip-path:url(#SVGID_31_);fill:url(#SVGID_33_);}
	.st31{fill:url(#SVGID_34_);}
	.st32{fill:url(#SVGID_35_);}
	.st33{opacity:0.2;clip-path:url(#SVGID_37_);fill:url(#SVGID_38_);}
	.st34{opacity:0.2;clip-path:url(#SVGID_37_);fill:url(#SVGID_39_);}
	.st35{fill:url(#SVGID_40_);}
	.st36{fill:url(#SVGID_41_);}
	.st37{opacity:0.2;clip-path:url(#SVGID_43_);fill:url(#SVGID_44_);}
	.st38{opacity:0.2;clip-path:url(#SVGID_43_);fill:url(#SVGID_45_);}
	.st39{fill:url(#SVGID_46_);}
	.st40{fill:url(#SVGID_47_);}
	.st41{opacity:0.2;clip-path:url(#SVGID_49_);fill:url(#SVGID_50_);}
	.st42{opacity:0.2;clip-path:url(#SVGID_49_);fill:url(#SVGID_51_);}
	.st43{fill:url(#SVGID_52_);}
	.st44{fill:url(#SVGID_53_);}
	.st45{clip-path:url(#SVGID_55_);fill:url(#SVGID_56_);}
	.st46{clip-path:url(#SVGID_55_);fill:url(#SVGID_57_);}
	.st47{clip-path:url(#SVGID_59_);}
	.st48{fill:url(#SVGID_60_);}
	.st49{fill:url(#SVGID_61_);}
	.st50{opacity:0.2;clip-path:url(#SVGID_63_);fill:url(#SVGID_64_);}
	.st51{opacity:0.2;clip-path:url(#SVGID_63_);fill:url(#SVGID_65_);}
	.st52{fill:url(#SVGID_66_);}
	.st53{fill:url(#SVGID_67_);}
	.st54{clip-path:url(#SVGID_69_);fill:url(#SVGID_70_);}
	.st55{clip-path:url(#SVGID_69_);fill:url(#SVGID_71_);}
	.st56{fill:#FF2D2C;stroke:#FF2D2C;stroke-width:2;stroke-miterlimit:10;}
	.st57{fill:url(#SVGID_72_);}
	.st58{fill:url(#SVGID_73_);}
	.st59{clip-path:url(#SVGID_75_);fill:url(#SVGID_76_);}
	.st60{clip-path:url(#SVGID_75_);fill:url(#SVGID_77_);}
	.st61{clip-path:url(#SVGID_79_);}
	.st62{fill:url(#SVGID_80_);}
	.st63{fill:url(#SVGID_81_);}
	.st64{clip-path:url(#SVGID_83_);fill:url(#SVGID_84_);}
	.st65{clip-path:url(#SVGID_83_);fill:url(#SVGID_85_);}
	.st66{clip-path:url(#SVGID_87_);}
	.st67{fill:#FFA94E;}
	.st68{fill:#FF5A40;}
	.st69{fill:#FF2828;}
	.st70{fill:#00C8F8;}
	.st71{fill:#7F7F7F;}
	.st72{fill:url(#SVGID_88_);}
	.st73{fill:url(#SVGID_89_);}
	
		.st74{opacity:0.5;clip-path:url(#SVGID_91_);fill:none;stroke:url(#SVGID_92_);stroke-width:8;stroke-linecap:round;stroke-linejoin:round;stroke-miterlimit:10;}
	
		.st75{opacity:0.5;clip-path:url(#SVGID_91_);fill:none;stroke:url(#SVGID_93_);stroke-width:8;stroke-linecap:round;stroke-linejoin:round;stroke-miterlimit:10;}
	.st76{fill:url(#SVGID_94_);}
	.st77{fill:url(#SVGID_95_);}
	.st78{opacity:0.2;clip-path:url(#SVGID_97_);fill:url(#SVGID_98_);}
	.st79{opacity:0.2;clip-path:url(#SVGID_97_);fill:url(#SVGID_99_);}
	.st80{fill:#606060;}
	.st81{fill:url(#SVGID_100_);}
	.st82{fill:url(#SVGID_101_);}
	.st83{opacity:0.2;clip-path:url(#SVGID_103_);fill:url(#SVGID_104_);}
	.st84{opacity:0.2;clip-path:url(#SVGID_103_);fill:url(#SVGID_105_);}
	.st85{fill:url(#SVGID_106_);}
	.st86{fill:url(#SVGID_107_);}
	.st87{opacity:0.2;clip-path:url(#SVGID_109_);fill:url(#SVGID_110_);}
	.st88{opacity:0.2;clip-path:url(#SVGID_109_);fill:url(#SVGID_111_);}
	.st89{fill:url(#SVGID_112_);}
	.st90{fill:url(#SVGID_113_);}
	.st91{opacity:0.2;clip-path:url(#SVGID_115_);fill:url(#SVGID_116_);}
	.st92{opacity:0.2;clip-path:url(#SVGID_115_);fill:url(#SVGID_117_);}
	.st93{fill:url(#SVGID_118_);}
	.st94{fill:url(#SVGID_119_);}
	.st95{opacity:0.2;clip-path:url(#SVGID_121_);fill:url(#SVGID_122_);}
	.st96{opacity:0.2;clip-path:url(#SVGID_121_);fill:url(#SVGID_123_);}
	.st97{fill:url(#SVGID_124_);}
	.st98{fill:url(#SVGID_125_);}
	
		.st99{opacity:0.5;clip-path:url(#SVGID_127_);fill:none;stroke:url(#SVGID_128_);stroke-width:8;stroke-linecap:round;stroke-linejoin:round;stroke-miterlimit:10;}
	
		.st100{opacity:0.5;clip-path:url(#SVGID_127_);fill:none;stroke:url(#SVGID_129_);stroke-width:8;stroke-linecap:round;stroke-linejoin:round;stroke-miterlimit:10;}
	.st101{fill:url(#SVGID_130_);}
	.st102{fill:url(#SVGID_131_);}
	.st103{opacity:0.2;clip-path:url(#SVGID_133_);fill:url(#SVGID_134_);}
	.st104{opacity:0.2;clip-path:url(#SVGID_133_);fill:url(#SVGID_135_);}
	.st105{fill:none;stroke:url(#SVGID_136_);stroke-miterlimit:10;}
	.st106{fill:none;stroke:url(#SVGID_137_);stroke-miterlimit:10;}
	.st107{opacity:0.2;clip-path:url(#SVGID_139_);fill:url(#SVGID_140_);}
	.st108{opacity:0.2;clip-path:url(#SVGID_139_);fill:url(#SVGID_141_);}
	.st109{fill:url(#SVGID_142_);}
	.st110{fill:url(#SVGID_143_);}
	.st111{opacity:0.2;clip-path:url(#SVGID_145_);fill:url(#SVGID_146_);}
	.st112{opacity:0.2;clip-path:url(#SVGID_145_);fill:url(#SVGID_147_);}
	.st113{fill:url(#SVGID_148_);}
	.st114{fill:url(#SVGID_149_);}
	.st115{opacity:0.2;clip-path:url(#SVGID_151_);fill:url(#SVGID_152_);}
	.st116{opacity:0.2;clip-path:url(#SVGID_151_);fill:url(#SVGID_153_);}
	.st117{fill:url(#SVGID_154_);}
	.st118{fill:url(#SVGID_155_);}
	
		.st119{opacity:0.5;clip-path:url(#SVGID_157_);fill:none;stroke:url(#SVGID_158_);stroke-width:8;stroke-linecap:round;stroke-linejoin:round;stroke-miterlimit:10;}
	
		.st120{opacity:0.5;clip-path:url(#SVGID_157_);fill:none;stroke:url(#SVGID_159_);stroke-width:8;stroke-linecap:round;stroke-linejoin:round;stroke-miterlimit:10;}
	.st121{fill:url(#SVGID_160_);}
	.st122{fill:url(#SVGID_161_);}
	.st123{opacity:0.2;clip-path:url(#SVGID_163_);fill:url(#SVGID_164_);}
	.st124{opacity:0.2;clip-path:url(#SVGID_163_);fill:url(#SVGID_165_);}
	.st125{fill:url(#SVGID_166_);}
	.st126{fill:url(#SVGID_167_);}
	.st127{opacity:0.2;clip-path:url(#SVGID_169_);fill:url(#SVGID_170_);}
	.st128{opacity:0.2;clip-path:url(#SVGID_169_);fill:url(#SVGID_171_);}
	.st129{fill:url(#SVGID_172_);}
	.st130{fill:url(#SVGID_173_);}
	.st131{opacity:0.65;clip-path:url(#SVGID_175_);fill:url(#SVGID_176_);}
	.st132{opacity:0.63;clip-path:url(#SVGID_175_);fill:url(#SVGID_177_);}
	.st133{fill:url(#SVGID_178_);}
	.st134{fill:url(#SVGID_179_);}
	.st135{opacity:0.65;clip-path:url(#SVGID_181_);}
	.st136{clip-path:url(#SVGID_183_);fill:#ED1D23;}
	.st137{clip-path:url(#SVGID_183_);fill:#ED1E23;}
	.st138{clip-path:url(#SVGID_183_);fill:#ED1F24;}
	.st139{clip-path:url(#SVGID_183_);fill:#ED2024;}
	.st140{clip-path:url(#SVGID_183_);fill:#ED2125;}
	.st141{clip-path:url(#SVGID_183_);fill:#ED2225;}
	.st142{clip-path:url(#SVGID_183_);fill:#ED2325;}
	.st143{clip-path:url(#SVGID_183_);fill:#EC2426;}
	.st144{clip-path:url(#SVGID_183_);fill:#EC2526;}
	.st145{clip-path:url(#SVGID_183_);fill:#EC2627;}
	.st146{clip-path:url(#SVGID_183_);fill:#EC2727;}
	.st147{clip-path:url(#SVGID_183_);fill:#EC2827;}
	.st148{clip-path:url(#SVGID_183_);fill:#EC2928;}
	.st149{clip-path:url(#SVGID_183_);fill:#EC2A28;}
	.st150{clip-path:url(#SVGID_183_);fill:#EC2B29;}
	.st151{clip-path:url(#SVGID_183_);fill:#EC2C29;}
	.st152{clip-path:url(#SVGID_183_);fill:#EC2D29;}
	.st153{clip-path:url(#SVGID_183_);fill:#EC2E2A;}
	.st154{clip-path:url(#SVGID_183_);fill:#EC2F2A;}
	.st155{clip-path:url(#SVGID_183_);fill:#EB312B;}
	.st156{clip-path:url(#SVGID_183_);fill:#EB322B;}
	.st157{clip-path:url(#SVGID_183_);fill:#EB332C;}
	.st158{clip-path:url(#SVGID_183_);fill:#EB342C;}
	.st159{clip-path:url(#SVGID_183_);fill:#EB352C;}
	.st160{clip-path:url(#SVGID_183_);fill:#EB362D;}
	.st161{clip-path:url(#SVGID_183_);fill:#EB372D;}
	.st162{clip-path:url(#SVGID_183_);fill:#EB382E;}
	.st163{clip-path:url(#SVGID_183_);fill:#EB392E;}
	.st164{clip-path:url(#SVGID_183_);fill:#EB3A2E;}
	.st165{clip-path:url(#SVGID_183_);fill:#EB3B2F;}
	.st166{clip-path:url(#SVGID_183_);fill:#EB3C2F;}
	.st167{clip-path:url(#SVGID_183_);fill:#EA3D30;}
	.st168{clip-path:url(#SVGID_183_);fill:#EA3E30;}
	.st169{clip-path:url(#SVGID_183_);fill:#EA3F30;}
	.st170{clip-path:url(#SVGID_183_);fill:#EA4031;}
	.st171{clip-path:url(#SVGID_183_);fill:#EA4131;}
	.st172{clip-path:url(#SVGID_183_);fill:#EA4232;}
	.st173{clip-path:url(#SVGID_183_);fill:#EA4332;}
	.st174{clip-path:url(#SVGID_183_);fill:#EA4433;}
	.st175{clip-path:url(#SVGID_183_);fill:#EB4534;}
	.st176{clip-path:url(#SVGID_183_);fill:#EB4635;}
	.st177{clip-path:url(#SVGID_183_);fill:#EB4736;}
	.st178{clip-path:url(#SVGID_183_);fill:#EB4837;}
	.st179{clip-path:url(#SVGID_183_);fill:#EC4937;}
	.st180{clip-path:url(#SVGID_183_);fill:#EC4A38;}
	.st181{clip-path:url(#SVGID_183_);fill:#EC4B39;}
	.st182{clip-path:url(#SVGID_183_);fill:#EC4C3A;}
	.st183{clip-path:url(#SVGID_183_);fill:#ED4D3B;}
	.st184{clip-path:url(#SVGID_183_);fill:#ED4E3C;}
	.st185{clip-path:url(#SVGID_183_);fill:#ED503D;}
	.st186{clip-path:url(#SVGID_183_);fill:#ED513E;}
	.st187{clip-path:url(#SVGID_183_);fill:#EE523F;}
	.st188{clip-path:url(#SVGID_183_);fill:#EE5340;}
	.st189{clip-path:url(#SVGID_183_);fill:#EE5441;}
	.st190{clip-path:url(#SVGID_183_);fill:#EE5542;}
	.st191{clip-path:url(#SVGID_183_);fill:#EF5642;}
	.st192{clip-path:url(#SVGID_183_);fill:#EF5743;}
	.st193{clip-path:url(#SVGID_183_);fill:#EF5844;}
	.st194{clip-path:url(#SVGID_183_);fill:#EF5945;}
	.st195{clip-path:url(#SVGID_183_);fill:#F05A46;}
	.st196{clip-path:url(#SVGID_183_);fill:#F05B47;}
	.st197{opacity:0.63;clip-path:url(#SVGID_181_);}
	.st198{clip-path:url(#SVGID_185_);fill:#ED1D23;}
	.st199{clip-path:url(#SVGID_185_);fill:#ED1E23;}
	.st200{clip-path:url(#SVGID_185_);fill:#ED1F24;}
	.st201{clip-path:url(#SVGID_185_);fill:#ED2024;}
	.st202{clip-path:url(#SVGID_185_);fill:#ED2125;}
	.st203{clip-path:url(#SVGID_185_);fill:#ED2225;}
	.st204{clip-path:url(#SVGID_185_);fill:#ED2325;}
	.st205{clip-path:url(#SVGID_185_);fill:#EC2426;}
	.st206{clip-path:url(#SVGID_185_);fill:#EC2526;}
	.st207{clip-path:url(#SVGID_185_);fill:#EC2627;}
	.st208{clip-path:url(#SVGID_185_);fill:#EC2727;}
	.st209{clip-path:url(#SVGID_185_);fill:#EC2827;}
	.st210{clip-path:url(#SVGID_185_);fill:#EC2928;}
	.st211{clip-path:url(#SVGID_185_);fill:#EC2A28;}
	.st212{clip-path:url(#SVGID_185_);fill:#EC2B29;}
	.st213{clip-path:url(#SVGID_185_);fill:#EC2C29;}
	.st214{clip-path:url(#SVGID_185_);fill:#EC2D29;}
	.st215{clip-path:url(#SVGID_185_);fill:#EC2E2A;}
	.st216{clip-path:url(#SVGID_185_);fill:#EC2F2A;}
	.st217{clip-path:url(#SVGID_185_);fill:#EB312B;}
	.st218{clip-path:url(#SVGID_185_);fill:#EB322B;}
	.st219{clip-path:url(#SVGID_185_);fill:#EB332C;}
	.st220{clip-path:url(#SVGID_185_);fill:#EB342C;}
	.st221{clip-path:url(#SVGID_185_);fill:#EB352C;}
	.st222{clip-path:url(#SVGID_185_);fill:#EB362D;}
	.st223{clip-path:url(#SVGID_185_);fill:#EB372D;}
	.st224{clip-path:url(#SVGID_185_);fill:#EB382E;}
	.st225{clip-path:url(#SVGID_185_);fill:#EB392E;}
	.st226{clip-path:url(#SVGID_185_);fill:#EB3A2E;}
	.st227{clip-path:url(#SVGID_185_);fill:#EB3B2F;}
	.st228{clip-path:url(#SVGID_185_);fill:#EB3C2F;}
	.st229{clip-path:url(#SVGID_185_);fill:#EA3D30;}
	.st230{clip-path:url(#SVGID_185_);fill:#EA3E30;}
	.st231{clip-path:url(#SVGID_185_);fill:#EA3F30;}
	.st232{clip-path:url(#SVGID_185_);fill:#EA4031;}
	.st233{clip-path:url(#SVGID_185_);fill:#EA4131;}
	.st234{clip-path:url(#SVGID_185_);fill:#EA4232;}
	.st235{clip-path:url(#SVGID_185_);fill:#EA4332;}
	.st236{clip-path:url(#SVGID_185_);fill:#EA4433;}
	.st237{clip-path:url(#SVGID_185_);fill:#EB4534;}
	.st238{clip-path:url(#SVGID_185_);fill:#EB4635;}
	.st239{clip-path:url(#SVGID_185_);fill:#EB4736;}
	.st240{clip-path:url(#SVGID_185_);fill:#EB4837;}
	.st241{clip-path:url(#SVGID_185_);fill:#EC4937;}
	.st242{clip-path:url(#SVGID_185_);fill:#EC4A38;}
	.st243{clip-path:url(#SVGID_185_);fill:#EC4B39;}
	.st244{clip-path:url(#SVGID_185_);fill:#EC4C3A;}
	.st245{clip-path:url(#SVGID_185_);fill:#ED4D3B;}
	.st246{clip-path:url(#SVGID_185_);fill:#ED4E3C;}
	.st247{clip-path:url(#SVGID_185_);fill:#ED503D;}
	.st248{clip-path:url(#SVGID_185_);fill:#ED513E;}
	.st249{clip-path:url(#SVGID_185_);fill:#EE523F;}
	.st250{clip-path:url(#SVGID_185_);fill:#EE5340;}
	.st251{clip-path:url(#SVGID_185_);fill:#EE5441;}
	.st252{clip-path:url(#SVGID_185_);fill:#EE5542;}
	.st253{clip-path:url(#SVGID_185_);fill:#EF5642;}
	.st254{clip-path:url(#SVGID_185_);fill:#EF5743;}
	.st255{clip-path:url(#SVGID_185_);fill:#EF5844;}
	.st256{clip-path:url(#SVGID_185_);fill:#EF5945;}
	.st257{clip-path:url(#SVGID_185_);fill:#F05A46;}
	.st258{clip-path:url(#SVGID_185_);fill:#F05B47;}
	.st259{fill:#FB412F;}
	.st260{fill:url(#SVGID_186_);}
	.st261{fill:url(#SVGID_187_);}
	.st262{opacity:0.65;clip-path:url(#SVGID_189_);}
	.st263{clip-path:url(#SVGID_191_);fill:#ED1D23;}
	.st264{clip-path:url(#SVGID_191_);fill:#ED1E23;}
	.st265{clip-path:url(#SVGID_191_);fill:#ED1F24;}
	.st266{clip-path:url(#SVGID_191_);fill:#ED2024;}
	.st267{clip-path:url(#SVGID_191_);fill:#ED2125;}
	.st268{clip-path:url(#SVGID_191_);fill:#ED2225;}
	.st269{clip-path:url(#SVGID_191_);fill:#ED2325;}
	.st270{clip-path:url(#SVGID_191_);fill:#EC2426;}
	.st271{clip-path:url(#SVGID_191_);fill:#EC2526;}
	.st272{clip-path:url(#SVGID_191_);fill:#EC2627;}
	.st273{clip-path:url(#SVGID_191_);fill:#EC2727;}
	.st274{clip-path:url(#SVGID_191_);fill:#EC2827;}
	.st275{clip-path:url(#SVGID_191_);fill:#EC2928;}
	.st276{clip-path:url(#SVGID_191_);fill:#EC2A28;}
	.st277{clip-path:url(#SVGID_191_);fill:#EC2B29;}
	.st278{clip-path:url(#SVGID_191_);fill:#EC2C29;}
	.st279{clip-path:url(#SVGID_191_);fill:#EC2D29;}
	.st280{clip-path:url(#SVGID_191_);fill:#EC2E2A;}
	.st281{clip-path:url(#SVGID_191_);fill:#EC2F2A;}
	.st282{clip-path:url(#SVGID_191_);fill:#EB312B;}
	.st283{clip-path:url(#SVGID_191_);fill:#EB322B;}
	.st284{clip-path:url(#SVGID_191_);fill:#EB332C;}
	.st285{clip-path:url(#SVGID_191_);fill:#EB342C;}
	.st286{clip-path:url(#SVGID_191_);fill:#EB352C;}
	.st287{clip-path:url(#SVGID_191_);fill:#EB362D;}
	.st288{clip-path:url(#SVGID_191_);fill:#EB372D;}
	.st289{clip-path:url(#SVGID_191_);fill:#EB382E;}
	.st290{clip-path:url(#SVGID_191_);fill:#EB392E;}
	.st291{clip-path:url(#SVGID_191_);fill:#EB3A2E;}
	.st292{clip-path:url(#SVGID_191_);fill:#EB3B2F;}
	.st293{clip-path:url(#SVGID_191_);fill:#EB3C2F;}
	.st294{clip-path:url(#SVGID_191_);fill:#EA3D30;}
	.st295{clip-path:url(#SVGID_191_);fill:#EA3E30;}
	.st296{clip-path:url(#SVGID_191_);fill:#EA3F30;}
	.st297{clip-path:url(#SVGID_191_);fill:#EA4031;}
	.st298{clip-path:url(#SVGID_191_);fill:#EA4131;}
	.st299{clip-path:url(#SVGID_191_);fill:#EA4232;}
	.st300{clip-path:url(#SVGID_191_);fill:#EA4332;}
	.st301{clip-path:url(#SVGID_191_);fill:#EA4433;}
	.st302{clip-path:url(#SVGID_191_);fill:#EB4534;}
	.st303{clip-path:url(#SVGID_191_);fill:#EB4635;}
	.st304{clip-path:url(#SVGID_191_);fill:#EB4736;}
	.st305{clip-path:url(#SVGID_191_);fill:#EB4837;}
	.st306{clip-path:url(#SVGID_191_);fill:#EC4937;}
	.st307{clip-path:url(#SVGID_191_);fill:#EC4A38;}
	.st308{clip-path:url(#SVGID_191_);fill:#EC4B39;}
	.st309{clip-path:url(#SVGID_191_);fill:#EC4C3A;}
	.st310{clip-path:url(#SVGID_191_);fill:#ED4D3B;}
	.st311{clip-path:url(#SVGID_191_);fill:#ED4E3C;}
	.st312{clip-path:url(#SVGID_191_);fill:#ED503D;}
	.st313{clip-path:url(#SVGID_191_);fill:#ED513E;}
	.st314{clip-path:url(#SVGID_191_);fill:#EE523F;}
	.st315{clip-path:url(#SVGID_191_);fill:#EE5340;}
	.st316{clip-path:url(#SVGID_191_);fill:#EE5441;}
	.st317{clip-path:url(#SVGID_191_);fill:#EE5542;}
	.st318{clip-path:url(#SVGID_191_);fill:#EF5642;}
	.st319{clip-path:url(#SVGID_191_);fill:#EF5743;}
	.st320{clip-path:url(#SVGID_191_);fill:#EF5844;}
	.st321{clip-path:url(#SVGID_191_);fill:#EF5945;}
	.st322{clip-path:url(#SVGID_191_);fill:#F05A46;}
	.st323{clip-path:url(#SVGID_191_);fill:#F05B47;}
	.st324{opacity:0.63;clip-path:url(#SVGID_189_);}
	.st325{clip-path:url(#SVGID_193_);fill:#ED1D23;}
	.st326{clip-path:url(#SVGID_193_);fill:#ED1E23;}
	.st327{clip-path:url(#SVGID_193_);fill:#ED1F24;}
	.st328{clip-path:url(#SVGID_193_);fill:#ED2024;}
	.st329{clip-path:url(#SVGID_193_);fill:#ED2125;}
	.st330{clip-path:url(#SVGID_193_);fill:#ED2225;}
	.st331{clip-path:url(#SVGID_193_);fill:#ED2325;}
	.st332{clip-path:url(#SVGID_193_);fill:#EC2426;}
	.st333{clip-path:url(#SVGID_193_);fill:#EC2526;}
	.st334{clip-path:url(#SVGID_193_);fill:#EC2627;}
	.st335{clip-path:url(#SVGID_193_);fill:#EC2727;}
	.st336{clip-path:url(#SVGID_193_);fill:#EC2827;}
	.st337{clip-path:url(#SVGID_193_);fill:#EC2928;}
	.st338{clip-path:url(#SVGID_193_);fill:#EC2A28;}
	.st339{clip-path:url(#SVGID_193_);fill:#EC2B29;}
	.st340{clip-path:url(#SVGID_193_);fill:#EC2C29;}
	.st341{clip-path:url(#SVGID_193_);fill:#EC2D29;}
	.st342{clip-path:url(#SVGID_193_);fill:#EC2E2A;}
	.st343{clip-path:url(#SVGID_193_);fill:#EC2F2A;}
	.st344{clip-path:url(#SVGID_193_);fill:#EB312B;}
	.st345{clip-path:url(#SVGID_193_);fill:#EB322B;}
	.st346{clip-path:url(#SVGID_193_);fill:#EB332C;}
	.st347{clip-path:url(#SVGID_193_);fill:#EB342C;}
	.st348{clip-path:url(#SVGID_193_);fill:#EB352C;}
	.st349{clip-path:url(#SVGID_193_);fill:#EB362D;}
	.st350{clip-path:url(#SVGID_193_);fill:#EB372D;}
	.st351{clip-path:url(#SVGID_193_);fill:#EB382E;}
	.st352{clip-path:url(#SVGID_193_);fill:#EB392E;}
	.st353{clip-path:url(#SVGID_193_);fill:#EB3A2E;}
	.st354{clip-path:url(#SVGID_193_);fill:#EB3B2F;}
	.st355{clip-path:url(#SVGID_193_);fill:#EB3C2F;}
	.st356{clip-path:url(#SVGID_193_);fill:#EA3D30;}
	.st357{clip-path:url(#SVGID_193_);fill:#EA3E30;}
	.st358{clip-path:url(#SVGID_193_);fill:#EA3F30;}
	.st359{clip-path:url(#SVGID_193_);fill:#EA4031;}
	.st360{clip-path:url(#SVGID_193_);fill:#EA4131;}
	.st361{clip-path:url(#SVGID_193_);fill:#EA4232;}
	.st362{clip-path:url(#SVGID_193_);fill:#EA4332;}
	.st363{clip-path:url(#SVGID_193_);fill:#EA4433;}
	.st364{clip-path:url(#SVGID_193_);fill:#EB4534;}
	.st365{clip-path:url(#SVGID_193_);fill:#EB4635;}
	.st366{clip-path:url(#SVGID_193_);fill:#EB4736;}
	.st367{clip-path:url(#SVGID_193_);fill:#EB4837;}
	.st368{clip-path:url(#SVGID_193_);fill:#EC4937;}
	.st369{clip-path:url(#SVGID_193_);fill:#EC4A38;}
	.st370{clip-path:url(#SVGID_193_);fill:#EC4B39;}
	.st371{clip-path:url(#SVGID_193_);fill:#EC4C3A;}
	.st372{clip-path:url(#SVGID_193_);fill:#ED4D3B;}
	.st373{clip-path:url(#SVGID_193_);fill:#ED4E3C;}
	.st374{clip-path:url(#SVGID_193_);fill:#ED503D;}
	.st375{clip-path:url(#SVGID_193_);fill:#ED513E;}
	.st376{clip-path:url(#SVGID_193_);fill:#EE523F;}
	.st377{clip-path:url(#SVGID_193_);fill:#EE5340;}
	.st378{clip-path:url(#SVGID_193_);fill:#EE5441;}
	.st379{clip-path:url(#SVGID_193_);fill:#EE5542;}
	.st380{clip-path:url(#SVGID_193_);fill:#EF5642;}
	.st381{clip-path:url(#SVGID_193_);fill:#EF5743;}
	.st382{clip-path:url(#SVGID_193_);fill:#EF5844;}
	.st383{clip-path:url(#SVGID_193_);fill:#EF5945;}
	.st384{clip-path:url(#SVGID_193_);fill:#F05A46;}
	.st385{clip-path:url(#SVGID_193_);fill:#F05B47;}
	.st386{fill:url(#SVGID_194_);}
	.st387{fill:url(#SVGID_195_);}
	.st388{opacity:0.2;clip-path:url(#SVGID_197_);fill:url(#SVGID_198_);}
	.st389{opacity:0.2;clip-path:url(#SVGID_197_);fill:url(#SVGID_199_);}
	.st390{opacity:0.2;clip-path:url(#SVGID_197_);fill:url(#SVGID_200_);}
	.st391{opacity:0.2;clip-path:url(#SVGID_197_);fill:url(#SVGID_201_);}
	.st392{opacity:0.2;clip-path:url(#SVGID_197_);fill:url(#SVGID_202_);}
	.st393{opacity:0.2;clip-path:url(#SVGID_197_);fill:url(#SVGID_203_);}
	.st394{fill:url(#SVGID_204_);}
	.st395{fill:url(#SVGID_205_);}
	.st396{opacity:0.65;clip-path:url(#SVGID_207_);fill:url(#SVGID_208_);}
	.st397{opacity:0.65;clip-path:url(#SVGID_207_);fill:url(#SVGID_209_);}
	.st398{opacity:0.65;clip-path:url(#SVGID_207_);fill:url(#SVGID_210_);}
	.st399{opacity:0.65;clip-path:url(#SVGID_207_);fill:url(#SVGID_211_);}
	.st400{opacity:0.65;clip-path:url(#SVGID_207_);fill:url(#SVGID_212_);}
	.st401{opacity:0.65;clip-path:url(#SVGID_207_);fill:url(#SVGID_213_);}
	.st402{fill:url(#SVGID_214_);}
	.st403{fill:url(#SVGID_215_);}
	.st404{opacity:0.21;clip-path:url(#SVGID_217_);fill:#555657;}
	.st405{fill:url(#SVGID_218_);}
	.st406{fill:url(#SVGID_219_);}
	.st407{opacity:0.21;clip-path:url(#SVGID_221_);fill:#555657;}
	.st408{fill:url(#SVGID_222_);}
	.st409{fill:url(#SVGID_223_);}
</style>
<g>
	<linearGradient id="SVGID_1_" gradientUnits="userSpaceOnUse" x1="11.874" y1="21.9761" x2="26.0901" y2="39.0703">
		<stop  offset="0" style="stop-color:#FF0443"/>
		<stop  offset="0.5376" style="stop-color:#FF332D"/>
		<stop  offset="1" style="stop-color:#FF5A40"/>
	</linearGradient>
	<path class="st0" d="M30.4,36.3c0.6,0,1.1-0.6,0.9-1.2c-0.5-1.9-2-4.6-5.8-6c-6.5-2.4-6-9.6-5.5-10.9c0,0-7,0.4-9.5,7.2
		c-1.9,5.1,1.1,9.4,1.8,11L30.4,36.3z"/>
	<linearGradient id="SVGID_2_" gradientUnits="userSpaceOnUse" x1="23.6517" y1="5.3332" x2="0.8523" y2="41.5379">
		<stop  offset="0.1622" style="stop-color:#FFAF4E"/>
		<stop  offset="0.5376" style="stop-color:#FF8042"/>
		<stop  offset="1" style="stop-color:#FF5A40"/>
	</linearGradient>
	<path class="st1" d="M5.5,36.3h13.4c-1.7-1.1-4.2-3.5-4.1-8c0.1-6.5,5-9.6,9.3-9.4c0.2,0,0.3,0,0.5,0c0.6,0.1,1.1,0.3,1.6,0.4
		c1.5,0.3,2.9-0.5,3.4-2c0.4-1.3,0.8-2.7,0.7-3.1c-0.1-0.9,0.7-0.8,0.4-1.6c-0.3-0.9-3.9-3.9-4.2-4.2C26.3,8,26.3,7.6,26.1,7
		c-0.2-0.6-0.4-0.7-1.8-1.5c-0.9-0.6-3.3-1.3-4.8-1.7c-0.8-0.2-1.6-0.7-2.1-1.5c-1.1-1.6-1.8-1.9-2.9-1.5c-1.2,0.4-1.1,2.5-1.1,2.8
		c0,0-1.7,0.4-3.2,1.5c-5.6,4-10.9,15.6-5.7,30.5C4.7,36,5.1,36.3,5.5,36.3z"/>
	<g>
		<defs>
			<path id="SVGID_188_" d="M5.4,36.3h13.5c-1.7-1.1-4.2-3.5-4.1-8c0.1-6.5,5-9.6,9.3-9.4c0.2,0,0.3,0,0.5,0
				c0.6,0.1,1.1,0.3,1.6,0.4c1.5,0.3,2.9-0.5,3.4-2c0.4-1.3,0.8-2.7,0.7-3.1c-0.1-0.9,0.7-0.8,0.4-1.6c-0.3-0.9-3.9-3.9-4.2-4.2
				C26.3,8,26.3,7.6,26.1,7c-0.2-0.6-0.4-0.7-1.8-1.5c-0.9-0.6-3.3-1.3-4.8-1.7c-0.8-0.2-1.6-0.7-2.1-1.5c-1.1-1.6-1.8-1.9-2.9-1.5
				c-1.2,0.4-1.1,2.5-1.1,2.8c0,0-1.7,0.4-3.2,1.5c-5.6,4-10.9,15.6-5.7,30.5C4.7,36,5,36.3,5.4,36.3z"/>
		</defs>
		<clipPath id="SVGID_3_">
			<use xlink:href="#SVGID_188_"  style="overflow:visible;"/>
		</clipPath>
		<g style="opacity:0.65;clip-path:url(#SVGID_3_);">
			<g>
				<g>
					<defs>
						<path id="SVGID_190_" d="M11.8,13c0,0-12.3,12.5-16.6,28.4C-6.3,47.1-5.7,17.9,11.8,13z"/>
					</defs>
					<clipPath id="SVGID_4_">
						<use xlink:href="#SVGID_190_"  style="overflow:visible;"/>
					</clipPath>
					<polygon style="clip-path:url(#SVGID_4_);fill:#EC2E2A;" points="0.2,13 -1.6,47.1 -1.8,47.1 0,13 					"/>
					<polygon style="clip-path:url(#SVGID_4_);fill:#EC2F2A;" points="0.4,13 -1.3,47.1 -1.6,47.1 0.2,13 					"/>
					<polygon style="clip-path:url(#SVGID_4_);fill:#EB312B;" points="0.7,13 -1.1,47.1 -1.3,47.1 0.4,13 					"/>
					<polygon style="clip-path:url(#SVGID_4_);fill:#EB322B;" points="0.9,13 -0.9,47.1 -1.1,47.1 0.7,13 					"/>
					<polygon style="clip-path:url(#SVGID_4_);fill:#EB332C;" points="1.1,13 -0.7,47.1 -0.9,47.1 0.9,13 					"/>
					<polygon style="clip-path:url(#SVGID_4_);fill:#EB342C;" points="1.3,13 -0.4,47.1 -0.7,47.1 1.1,13 					"/>
					<polygon style="clip-path:url(#SVGID_4_);fill:#EB352C;" points="1.6,13 -0.2,47.1 -0.4,47.1 1.3,13 					"/>
					<polygon style="clip-path:url(#SVGID_4_);fill:#EB362D;" points="1.8,13 0,47.1 -0.2,47.1 1.6,13 					"/>
					<polygon style="clip-path:url(#SVGID_4_);fill:#EB372D;" points="2,13 0.2,47.1 0,47.1 1.8,13 					"/>
					<polygon style="clip-path:url(#SVGID_4_);fill:#EB382E;" points="2.3,13 0.5,47.1 0.2,47.1 2,13 					"/>
					<polygon style="clip-path:url(#SVGID_4_);fill:#EB392E;" points="2.5,13 0.7,47.1 0.5,47.1 2.3,13 					"/>
					<polygon style="clip-path:url(#SVGID_4_);fill:#EB3A2E;" points="2.7,13 0.9,47.1 0.7,47.1 2.5,13 					"/>
					<polygon style="clip-path:url(#SVGID_4_);fill:#EB3B2F;" points="2.9,13 1.2,47.1 0.9,47.1 2.7,13 					"/>
					<polygon style="clip-path:url(#SVGID_4_);fill:#EB3C2F;" points="3.2,13 1.4,47.1 1.2,47.1 2.9,13 					"/>
					<polygon style="clip-path:url(#SVGID_4_);fill:#EA3D30;" points="3.4,13 1.6,47.1 1.4,47.1 3.2,13 					"/>
					<polygon style="clip-path:url(#SVGID_4_);fill:#EA3E30;" points="3.6,13 1.8,47.1 1.6,47.1 3.4,13 					"/>
					<polygon style="clip-path:url(#SVGID_4_);fill:#EA3F30;" points="3.8,13 2.1,47.1 1.8,47.1 3.6,13 					"/>
					<polygon style="clip-path:url(#SVGID_4_);fill:#EA4031;" points="4.1,13 2.3,47.1 2.1,47.1 3.8,13 					"/>
					<polygon style="clip-path:url(#SVGID_4_);fill:#EA4131;" points="4.3,13 2.5,47.1 2.3,47.1 4.1,13 					"/>
					<polygon style="clip-path:url(#SVGID_4_);fill:#EA4232;" points="4.5,13 2.7,47.1 2.5,47.1 4.3,13 					"/>
					<polygon style="clip-path:url(#SVGID_4_);fill:#EA4332;" points="4.8,13 3,47.1 2.7,47.1 4.5,13 					"/>
					<polygon style="clip-path:url(#SVGID_4_);fill:#EA4332;" points="5,13 3.3,47.1 3,47.1 4.8,13 					"/>
					<polygon style="clip-path:url(#SVGID_4_);fill:#EA4433;" points="5.3,13 3.6,47.1 3.3,47.1 5,13 					"/>
					<polygon style="clip-path:url(#SVGID_4_);fill:#EB4534;" points="5.6,13 3.9,47.1 3.6,47.1 5.3,13 					"/>
					<polygon style="clip-path:url(#SVGID_4_);fill:#EB4635;" points="5.9,13 4.2,47.1 3.9,47.1 5.6,13 					"/>
					<polygon style="clip-path:url(#SVGID_4_);fill:#EB4736;" points="6.2,13 4.4,47.1 4.2,47.1 5.9,13 					"/>
					<polygon style="clip-path:url(#SVGID_4_);fill:#EB4837;" points="6.5,13 4.7,47.1 4.4,47.1 6.2,13 					"/>
					<polygon style="clip-path:url(#SVGID_4_);fill:#EC4937;" points="6.8,13 5,47.1 4.7,47.1 6.5,13 					"/>
					<polygon style="clip-path:url(#SVGID_4_);fill:#EC4A38;" points="7.1,13 5.3,47.1 5,47.1 6.8,13 					"/>
					<polygon style="clip-path:url(#SVGID_4_);fill:#EC4B39;" points="7.4,13 5.6,47.1 5.3,47.1 7.1,13 					"/>
					<polygon style="clip-path:url(#SVGID_4_);fill:#EC4C3A;" points="7.7,13 5.9,47.1 5.6,47.1 7.4,13 					"/>
					<polygon style="clip-path:url(#SVGID_4_);fill:#ED4D3B;" points="8,13 6.2,47.1 5.9,47.1 7.7,13 					"/>
					<polygon style="clip-path:url(#SVGID_4_);fill:#ED4E3C;" points="8.3,13 6.5,47.1 6.2,47.1 8,13 					"/>
					<polygon style="clip-path:url(#SVGID_4_);fill:#ED503D;" points="8.6,13 6.8,47.1 6.5,47.1 8.3,13 					"/>
					<polygon style="clip-path:url(#SVGID_4_);fill:#ED513E;" points="8.9,13 7.1,47.1 6.8,47.1 8.6,13 					"/>
					<polygon style="clip-path:url(#SVGID_4_);fill:#EE523F;" points="9.2,13 7.4,47.1 7.1,47.1 8.9,13 					"/>
					<polygon style="clip-path:url(#SVGID_4_);fill:#EE5340;" points="9.5,13 7.7,47.1 7.4,47.1 9.2,13 					"/>
					<polygon style="clip-path:url(#SVGID_4_);fill:#EE5441;" points="9.8,13 8,47.1 7.7,47.1 9.5,13 					"/>
					<polygon style="clip-path:url(#SVGID_4_);fill:#EE5542;" points="10.1,13 8.3,47.1 8,47.1 9.8,13 					"/>
					<polygon style="clip-path:url(#SVGID_4_);fill:#EF5642;" points="10.4,13 8.6,47.1 8.3,47.1 10.1,13 					"/>
					<polygon style="clip-path:url(#SVGID_4_);fill:#EF5743;" points="10.7,13 8.9,47.1 8.6,47.1 10.4,13 					"/>
					<polygon style="clip-path:url(#SVGID_4_);fill:#EF5844;" points="11,13 9.2,47.1 8.9,47.1 10.7,13 					"/>
					<polygon style="clip-path:url(#SVGID_4_);fill:#EF5945;" points="11.3,13 9.5,47.1 9.2,47.1 11,13 					"/>
					<polygon style="clip-path:url(#SVGID_4_);fill:#F05A46;" points="11.6,13 9.8,47.1 9.5,47.1 11.3,13 					"/>
					<polygon style="clip-path:url(#SVGID_4_);fill:#F05B47;" points="11.8,13 10.1,47.1 9.8,47.1 11.6,13 					"/>
					<polygon style="clip-path:url(#SVGID_4_);fill:#F05B47;" points="10.1,47.1 11.8,13 11.8,47.1 					"/>
				</g>
			</g>
		</g>
		<g style="opacity:0.63;clip-path:url(#SVGID_3_);">
			<g>
				<g>
					<defs>
						<path id="SVGID_192_" d="M11.5,20.6c0,0-9.9,15.9-8.2,32.2C3.9,58.6-9.7,33.7,11.5,20.6z"/>
					</defs>
					<clipPath id="SVGID_5_">
						<use xlink:href="#SVGID_192_"  style="overflow:visible;"/>
					</clipPath>
					<polygon style="clip-path:url(#SVGID_5_);fill:#ED1D23;" points="0.6,20.6 -1.4,58.6 -7.1,58.6 -9.7,58.5 -9.7,20.6 					"/>
					<polygon style="clip-path:url(#SVGID_5_);fill:#ED1D23;" points="0.8,20.6 -1.2,58.6 -1.4,58.6 0.6,20.6 					"/>
					<polygon style="clip-path:url(#SVGID_5_);fill:#ED1E23;" points="0.9,20.6 -1.1,58.6 -1.2,58.6 0.8,20.6 					"/>
					<polygon style="clip-path:url(#SVGID_5_);fill:#ED1F24;" points="1.1,20.6 -0.9,58.6 -1.1,58.6 0.9,20.6 					"/>
					<polygon style="clip-path:url(#SVGID_5_);fill:#ED2024;" points="1.2,20.6 -0.8,58.6 -0.9,58.6 1.1,20.6 					"/>
					<polygon style="clip-path:url(#SVGID_5_);fill:#ED2125;" points="1.4,20.6 -0.6,58.6 -0.8,58.6 1.2,20.6 					"/>
					<polygon style="clip-path:url(#SVGID_5_);fill:#ED2225;" points="1.5,20.6 -0.4,58.6 -0.6,58.6 1.4,20.6 					"/>
					<polygon style="clip-path:url(#SVGID_5_);fill:#ED2325;" points="1.7,20.6 -0.3,58.6 -0.4,58.6 1.5,20.6 					"/>
					<polygon style="clip-path:url(#SVGID_5_);fill:#EC2426;" points="1.9,20.6 -0.1,58.6 -0.3,58.6 1.7,20.6 					"/>
					<polygon style="clip-path:url(#SVGID_5_);fill:#EC2526;" points="2,20.6 0,58.6 -0.1,58.6 1.9,20.6 					"/>
					<polygon style="clip-path:url(#SVGID_5_);fill:#EC2627;" points="2.2,20.6 0.2,58.6 0,58.6 2,20.6 					"/>
					<polygon style="clip-path:url(#SVGID_5_);fill:#EC2727;" points="2.3,20.6 0.3,58.6 0.2,58.6 2.2,20.6 					"/>
					<polygon style="clip-path:url(#SVGID_5_);fill:#EC2827;" points="2.5,20.6 0.5,58.6 0.3,58.6 2.3,20.6 					"/>
					<polygon style="clip-path:url(#SVGID_5_);fill:#EC2928;" points="2.6,20.6 0.6,58.6 0.5,58.6 2.5,20.6 					"/>
					<polygon style="clip-path:url(#SVGID_5_);fill:#EC2A28;" points="2.8,20.6 0.8,58.6 0.6,58.6 2.6,20.6 					"/>
					<polygon style="clip-path:url(#SVGID_5_);fill:#EC2B29;" points="3,20.6 1,58.6 0.8,58.6 2.8,20.6 					"/>
					<polygon style="clip-path:url(#SVGID_5_);fill:#EC2C29;" points="3.1,20.6 1.1,58.6 1,58.6 3,20.6 					"/>
					<polygon style="clip-path:url(#SVGID_5_);fill:#EC2D29;" points="3.3,20.6 1.3,58.6 1.1,58.6 3.1,20.6 					"/>
					<polygon style="clip-path:url(#SVGID_5_);fill:#EC2E2A;" points="3.4,20.6 1.4,58.6 1.3,58.6 3.3,20.6 					"/>
					<polygon style="clip-path:url(#SVGID_5_);fill:#EC2F2A;" points="3.6,20.6 1.6,58.6 1.4,58.6 3.4,20.6 					"/>
					<polygon style="clip-path:url(#SVGID_5_);fill:#EB312B;" points="3.7,20.6 1.7,58.6 1.6,58.6 3.6,20.6 					"/>
					<polygon style="clip-path:url(#SVGID_5_);fill:#EB322B;" points="3.9,20.6 1.9,58.6 1.7,58.6 3.7,20.6 					"/>
					<polygon style="clip-path:url(#SVGID_5_);fill:#EB332C;" points="4.1,20.6 2.1,58.6 1.9,58.6 3.9,20.6 					"/>
					<polygon style="clip-path:url(#SVGID_5_);fill:#EB342C;" points="4.2,20.6 2.2,58.6 2.1,58.6 4.1,20.6 					"/>
					<polygon style="clip-path:url(#SVGID_5_);fill:#EB352C;" points="4.4,20.6 2.4,58.6 2.2,58.6 4.2,20.6 					"/>
					<polygon style="clip-path:url(#SVGID_5_);fill:#EB362D;" points="4.5,20.6 2.5,58.6 2.4,58.6 4.4,20.6 					"/>
					<polygon style="clip-path:url(#SVGID_5_);fill:#EB372D;" points="4.7,20.6 2.7,58.6 2.5,58.6 4.5,20.6 					"/>
					<polygon style="clip-path:url(#SVGID_5_);fill:#EB382E;" points="4.8,20.6 2.8,58.6 2.7,58.6 4.7,20.6 					"/>
					<polygon style="clip-path:url(#SVGID_5_);fill:#EB392E;" points="5,20.6 3,58.6 2.8,58.6 4.8,20.6 					"/>
					<polygon style="clip-path:url(#SVGID_5_);fill:#EB3A2E;" points="5.1,20.6 3.2,58.6 3,58.6 5,20.6 					"/>
					<polygon style="clip-path:url(#SVGID_5_);fill:#EB3B2F;" points="5.3,20.6 3.3,58.6 3.2,58.6 5.1,20.6 					"/>
					<polygon style="clip-path:url(#SVGID_5_);fill:#EB3C2F;" points="5.5,20.6 3.5,58.6 3.3,58.6 5.3,20.6 					"/>
					<polygon style="clip-path:url(#SVGID_5_);fill:#EA3D30;" points="5.6,20.6 3.6,58.6 3.5,58.6 5.5,20.6 					"/>
					<polygon style="clip-path:url(#SVGID_5_);fill:#EA3E30;" points="5.8,20.6 3.8,58.6 3.6,58.6 5.6,20.6 					"/>
					<polygon style="clip-path:url(#SVGID_5_);fill:#EA3F30;" points="5.9,20.6 3.9,58.6 3.8,58.6 5.8,20.6 					"/>
					<polygon style="clip-path:url(#SVGID_5_);fill:#EA4031;" points="6.1,20.6 4.1,58.6 3.9,58.6 5.9,20.6 					"/>
					<polygon style="clip-path:url(#SVGID_5_);fill:#EA4131;" points="6.2,20.6 4.3,58.6 4.1,58.6 6.1,20.6 					"/>
					<polygon style="clip-path:url(#SVGID_5_);fill:#EA4232;" points="6.4,20.6 4.4,58.6 4.3,58.6 6.2,20.6 					"/>
					<polygon style="clip-path:url(#SVGID_5_);fill:#EA4332;" points="6.6,20.6 4.6,58.6 4.4,58.6 6.4,20.6 					"/>
					<polygon style="clip-path:url(#SVGID_5_);fill:#EA4332;" points="6.8,20.6 4.8,58.6 4.6,58.6 6.6,20.6 					"/>
					<polygon style="clip-path:url(#SVGID_5_);fill:#EA4433;" points="7,20.6 5,58.6 4.8,58.6 6.8,20.6 					"/>
					<polygon style="clip-path:url(#SVGID_5_);fill:#EB4534;" points="7.2,20.6 5.2,58.6 5,58.6 7,20.6 					"/>
					<polygon style="clip-path:url(#SVGID_5_);fill:#EB4635;" points="7.4,20.6 5.4,58.6 5.2,58.6 7.2,20.6 					"/>
					<polygon style="clip-path:url(#SVGID_5_);fill:#EB4736;" points="7.6,20.6 5.6,58.6 5.4,58.6 7.4,20.6 					"/>
					<polygon style="clip-path:url(#SVGID_5_);fill:#EB4837;" points="7.8,20.6 5.8,58.6 5.6,58.6 7.6,20.6 					"/>
					<polygon style="clip-path:url(#SVGID_5_);fill:#EC4937;" points="8,20.6 6,58.6 5.8,58.6 7.8,20.6 					"/>
					<polygon style="clip-path:url(#SVGID_5_);fill:#EC4A38;" points="8.2,20.6 6.2,58.6 6,58.6 8,20.6 					"/>
					<polygon style="clip-path:url(#SVGID_5_);fill:#EC4B39;" points="8.4,20.6 6.4,58.6 6.2,58.6 8.2,20.6 					"/>
					<polygon style="clip-path:url(#SVGID_5_);fill:#EC4C3A;" points="8.6,20.6 6.6,58.6 6.4,58.6 8.4,20.6 					"/>
					<polygon style="clip-path:url(#SVGID_5_);fill:#ED4D3B;" points="8.8,20.6 6.8,58.6 6.6,58.6 8.6,20.6 					"/>
					<polygon style="clip-path:url(#SVGID_5_);fill:#ED4E3C;" points="9,20.6 7,58.6 6.8,58.6 8.8,20.6 					"/>
					<polygon style="clip-path:url(#SVGID_5_);fill:#ED503D;" points="9.2,20.6 7.2,58.6 7,58.6 9,20.6 					"/>
					<polygon style="clip-path:url(#SVGID_5_);fill:#ED513E;" points="9.4,20.6 7.4,58.6 7.2,58.6 9.2,20.6 					"/>
					<polygon style="clip-path:url(#SVGID_5_);fill:#EE523F;" points="9.6,20.6 7.6,58.6 7.4,58.6 9.4,20.6 					"/>
					<polygon style="clip-path:url(#SVGID_5_);fill:#EE5340;" points="9.8,20.6 7.8,58.6 7.6,58.6 9.6,20.6 					"/>
					<polygon style="clip-path:url(#SVGID_5_);fill:#EE5441;" points="10,20.6 8,58.6 7.8,58.6 9.8,20.6 					"/>
					<polygon style="clip-path:url(#SVGID_5_);fill:#EE5542;" points="10.2,20.6 8.2,58.6 8,58.6 10,20.6 					"/>
					<polygon style="clip-path:url(#SVGID_5_);fill:#EF5642;" points="10.4,20.6 8.4,58.6 8.2,58.6 10.2,20.6 					"/>
					<polygon style="clip-path:url(#SVGID_5_);fill:#EF5743;" points="10.6,20.6 8.6,58.6 8.4,58.6 10.4,20.6 					"/>
					<polygon style="clip-path:url(#SVGID_5_);fill:#EF5844;" points="10.8,20.6 8.9,58.6 8.6,58.6 10.6,20.6 					"/>
					<polygon style="clip-path:url(#SVGID_5_);fill:#EF5945;" points="11.1,20.6 9.1,58.6 8.9,58.6 10.8,20.6 					"/>
					<polygon style="clip-path:url(#SVGID_5_);fill:#F05A46;" points="11.3,20.6 9.3,58.6 9.1,58.6 11.1,20.6 					"/>
					<polygon style="clip-path:url(#SVGID_5_);fill:#F05B47;" points="11.5,20.6 9.5,58.6 9.3,58.6 11.3,20.6 					"/>
					<polygon style="clip-path:url(#SVGID_5_);fill:#F05B47;" points="9.5,58.6 11.5,20.6 11.5,58.6 					"/>
				</g>
			</g>
		</g>
	</g>
	<g>
		<path class="st3" d="M49.1,23.2h-2.9v6.1h-3.2V13.4h7.2c3.4,0,5.4,1.8,5.4,5c0,2.3-1.1,3.8-3.1,4.5l4.4,6.4h-3.8L49.1,23.2z
			 M46.1,20.6h3.4c1.6,0,2.6-0.8,2.6-2.2s-1-2.2-2.6-2.2h-3.4V20.6z"/>
		<path class="st3" d="M72.3,26.6v2.7H61.1V13.4h11v2.7h-7.8v3.7H71v2.7h-6.7v4.2H72.3z"/>
		<path class="st3" d="M77.2,13.4h3.5l7.1,10.8l-0.1-10.8h3.1v15.8h-3.5l-7.1-10.8l0.1,10.8h-3.1V13.4z"/>
		<path class="st3" d="M108.5,16.1h-5.1v13.2h-3.2V16.1h-5.1v-2.7h13.4V16.1z"/>
	</g>
	<g>
		<path class="st259" d="M112.7,27.9l1.5-2.5c1.5,0.9,3.2,1.5,4.6,1.5c1.8,0,2.9-0.7,2.9-1.8c0-3.1-8.9-1.6-8.9-7.2
			c0-2.8,2.2-4.5,5.9-4.5c2.1,0,4.2,0.6,5.9,1.6l-1.8,2.4c-1.3-0.8-2.8-1.3-4-1.3c-1.7,0-2.6,0.6-2.6,1.6c0,2.5,8.9,1.6,8.9,7.2
			c0,2.9-2.3,4.7-6.3,4.7C116.7,29.5,114.4,28.9,112.7,27.9z"/>
		<path class="st259" d="M143.6,13.5v15.8h-3.2v-6.8h-7.2v6.8H130V13.5h3.2v6.4h7.2v-6.4H143.6z"/>
		<path class="st259" d="M160.7,26.7v2.7h-11.2V13.5h11v2.7h-7.8v3.7h6.7v2.7h-6.7v4.2H160.7z"/>
		<path class="st259" d="M171.8,23.3h-2.9v6.1h-3.2V13.5h7.2c3.4,0,5.4,1.8,5.4,5c0,2.3-1.1,3.8-3.1,4.5l4.4,6.4h-3.8L171.8,23.3z
			 M168.9,20.7h3.4c1.6,0,2.6-0.8,2.6-2.2s-1-2.2-2.6-2.2h-3.4V20.7z"/>
	</g>
</g>
</svg>
