<svg id="eeb0a8c2-9458-4e87-a572-8ca9d03e0cf2" data-name="Layer 1" xmlns="http://www.w3.org/2000/svg" xmlns:xlink="http://www.w3.org/1999/xlink" viewBox="0 0 223.33398 254.09961"><defs><style>.\30 4df071d-08b8-4b5e-8539-1f4354f457d8,.\34 d45e0d5-e9dc-474b-8d2a-39bd27f033bc,.a18c4b83-c346-44d5-a173-cbbc2d66b9ab{fill:#231f20;stroke-miterlimit:10;}.\30 4df071d-08b8-4b5e-8539-1f4354f457d8{stroke:#58595b;stroke-width:1.66688px;}.\34 d45e0d5-e9dc-474b-8d2a-39bd27f033bc{stroke:#939598;stroke-width:3.11657px;}.a18c4b83-c346-44d5-a173-cbbc2d66b9ab{stroke:#414042;stroke-width:5.19428px;}.\35 7d416ee-b252-45b6-a034-a1110bf2c276{fill:#fff;}.\35 ee95fac-2ad3-42c0-91eb-495443c3328b{fill:#58595b;}.f7b13bed-ce7e-4f49-9a7f-f16c7c851e0e{fill:url(#4a6c4a70-68bb-4621-bf0a-64f177178406);}.b134f8fc-36c4-4360-ab55-e331053c4418{fill:url(#1ad24b25-2cdd-48bb-b4f8-5a70b1144426);}.\32 f451ca4-af6c-4ef0-b4eb-457e03efc570{fill:url(#b9cfa5fa-a3e4-4ae0-883f-efc008b8105e);}.\31 90d533e-dfb1-493b-b754-b15ed063e034{fill:url(#651e9ed2-ec34-47ad-b47d-470900f3401e);}.\33 618c1cc-43f5-49f6-b557-39134fb9e0fc{fill:url(#2ce228fa-b18a-4e35-a499-1748c441238b);}.c945bf4d-8e88-4414-8afe-9e8602e7c4a7{fill:url(#07ee3a19-2589-4ab6-80f6-02f3ce263a9f);}.b3748ce7-3c22-465e-8208-666f94b471bb{fill:url(#98adca22-99f1-498d-b71a-4fe0ff47c111);}.\35 dd5a498-11bb-4682-9666-7302d7d212f3{fill:url(#67ae4ab5-e7c9-428f-b5cd-b5577e46fb44);}.f7dc5ca4-4b61-46c4-8156-e4c4baf2c5e3{fill:url(#5fecdf43-e36f-488e-9db5-1ceb53354e61);}.\31 9fe1712-022a-4e60-99c6-38fb250ef483{fill:url(#cdf2421e-9bdc-452d-8ce8-5ab1e930de75);}.a41e0aeb-af18-4842-809d-fa23a3d35de0{fill:url(#c78b9dfa-0f64-46dc-97c4-1b3502e52187);}.aa8dfd7a-e007-4aba-a762-9a80a4d48c9a{fill:url(#3cd563f7-b4be-4f5d-8846-7b871182fe03);}.d5a53859-0ad4-4bf1-8dd5-c89ee53d04e7{fill:url(#aa511a3b-d575-45b1-bfdf-5a029d1f769c);}.a23c5a66-aed7-4f88-a00b-70a465fcccfe{fill:url(#b38796b2-9c52-47dd-a903-1cace0684ba3);}.\35 f84be1b-562e-4517-adb2-8715a030d1f4{fill:url(#9efa603f-dca1-49ca-af61-8c8bcea59c88);}.fd7749d7-2863-40b3-bcde-e8af088bd4af{fill:url(#464aaf3e-e805-41d7-9fe5-799823afcd87);}.d1e695c8-d161-4a2a-a30c-d499b95f24de{fill:url(#c2e21f08-4d26-4966-84f7-7c8f24c935d6);}.\31 6905f5b-cfd5-41ad-b79a-94eb35c1997e{fill:url(#4d66136c-fcfd-4e34-a4d6-8a3fc645acd0);}</style><linearGradient id="4a6c4a70-68bb-4621-bf0a-64f177178406" x1="1250.02906" y1="100.05257" x2="1270.76405" y2="100.05257" gradientUnits="userSpaceOnUse"><stop offset="0" stop-color="#d2e5a6"/><stop offset="0.5" stop-color="#acd479"/><stop offset="1" stop-color="#77b843"/></linearGradient><linearGradient id="1ad24b25-2cdd-48bb-b4f8-5a70b1144426" x1="1250.02784" y1="42.76058" x2="1270.76283" y2="42.76058" gradientUnits="userSpaceOnUse"><stop offset="0" stop-color="#33c4f2"/><stop offset="0.5" stop-color="#2aace3"/><stop offset="1" stop-color="#1e94d2"/></linearGradient><linearGradient id="b9cfa5fa-a3e4-4ae0-883f-efc008b8105e" x1="1250.02906" y1="217.04238" x2="1270.76405" y2="217.04238" gradientUnits="userSpaceOnUse"><stop offset="0" stop-color="#fee7a3"/><stop offset="0.5" stop-color="#ffcb0a"/><stop offset="1" stop-color="#f8ac1c"/></linearGradient><linearGradient id="651e9ed2-ec34-47ad-b47d-470900f3401e" x1="1250.02784" y1="274.45828" x2="1270.76283" y2="274.45828" xlink:href="#1ad24b25-2cdd-48bb-b4f8-5a70b1144426"/><linearGradient id="2ce228fa-b18a-4e35-a499-1748c441238b" x1="1299.73988" y1="246.36691" x2="1320.47486" y2="246.36691" gradientUnits="userSpaceOnUse"><stop offset="0" stop-color="#f79554"/><stop offset="0.5" stop-color="#f27623"/><stop offset="1" stop-color="#d4632a"/></linearGradient><linearGradient id="07ee3a19-2589-4ab6-80f6-02f3ce263a9f" x1="1299.73988" y1="187.71124" x2="1320.47486" y2="187.71124" xlink:href="#4a6c4a70-68bb-4621-bf0a-64f177178406"/><linearGradient id="98adca22-99f1-498d-b71a-4fe0ff47c111" x1="1300.37953" y1="128.96978" x2="1321.11451" y2="128.96978" xlink:href="#b9cfa5fa-a3e4-4ae0-883f-efc008b8105e"/><linearGradient id="67ae4ab5-e7c9-428f-b5cd-b5577e46fb44" x1="1300.30091" y1="71.77016" x2="1321.0359" y2="71.77016" xlink:href="#2ce228fa-b18a-4e35-a499-1748c441238b"/><linearGradient id="5fecdf43-e36f-488e-9db5-1ceb53354e61" x1="1200.12648" y1="71.005" x2="1220.86146" y2="71.005" xlink:href="#2ce228fa-b18a-4e35-a499-1748c441238b"/><linearGradient id="cdf2421e-9bdc-452d-8ce8-5ab1e930de75" x1="1200.12648" y1="128.96978" x2="1220.86146" y2="128.96978" xlink:href="#b9cfa5fa-a3e4-4ae0-883f-efc008b8105e"/><linearGradient id="c78b9dfa-0f64-46dc-97c4-1b3502e52187" x1="1200.12648" y1="187.57644" x2="1220.86146" y2="187.57644" xlink:href="#4a6c4a70-68bb-4621-bf0a-64f177178406"/><linearGradient id="3cd563f7-b4be-4f5d-8846-7b871182fe03" x1="1199.65284" y1="246.09731" x2="1220.38771" y2="246.09731" xlink:href="#2ce228fa-b18a-4e35-a499-1748c441238b"/><linearGradient id="aa511a3b-d575-45b1-bfdf-5a029d1f769c" x1="1350.1587" y1="216.64321" x2="1370.89369" y2="216.64321" xlink:href="#1ad24b25-2cdd-48bb-b4f8-5a70b1144426"/><linearGradient id="b38796b2-9c52-47dd-a903-1cace0684ba3" x1="1350.49391" y1="158.63857" x2="1371.22889" y2="158.63857" xlink:href="#2ce228fa-b18a-4e35-a499-1748c441238b"/><linearGradient id="9efa603f-dca1-49ca-af61-8c8bcea59c88" x1="1350.49391" y1="100.7943" x2="1371.22889" y2="100.7943" xlink:href="#1ad24b25-2cdd-48bb-b4f8-5a70b1144426"/><linearGradient id="464aaf3e-e805-41d7-9fe5-799823afcd87" x1="1150.27601" y1="100.34982" x2="1171.011" y2="100.34982" xlink:href="#1ad24b25-2cdd-48bb-b4f8-5a70b1144426"/><linearGradient id="c2e21f08-4d26-4966-84f7-7c8f24c935d6" x1="1149.5619" y1="158.63857" x2="1170.29689" y2="158.63857" xlink:href="#2ce228fa-b18a-4e35-a499-1748c441238b"/><linearGradient id="4d66136c-fcfd-4e34-a4d6-8a3fc645acd0" x1="1150.27601" y1="216.84719" x2="1171.011" y2="216.84719" xlink:href="#1ad24b25-2cdd-48bb-b4f8-5a70b1144426"/></defs><title>LOGO </title><path class="04df071d-08b8-4b5e-8539-1f4354f457d8" d="M1261.01227,49.58041V91.56666c-0.24382-.02219-0.48764-0.02958-0.73145-0.02958s-0.48759.0074-.724,0.02958V49.58041c0.23642,0.02219.48024,0.02954,0.724,0.02954S1260.76845,49.60259,1261.01227,49.58041Z" transform="translate(-1148.7284 -31.55965)"/><path class="04df071d-08b8-4b5e-8539-1f4354f457d8" d="M1354.86255,212.61972a8.14836,8.14836,0,0,0-.724,1.256l-36.45262-21.04852a8.21552,8.21552,0,0,0,.70927-1.27077Z" transform="translate(-1148.7284 -31.55965)"/><path class="04df071d-08b8-4b5e-8539-1f4354f457d8" d="M1202.31427,192.96754l-35.74335,20.6348a8.28021,8.28021,0,0,0-.80532-1.219l35.94284-20.753A8.7169,8.7169,0,0,0,1202.31427,192.96754Z" transform="translate(-1148.7284 -31.55965)"/><path class="4d45e0d5-e9dc-474b-8d2a-39bd27f033bc" d="M1261.01227,108.41879v42.134c-0.24382-.02214-0.48764-0.02954-0.73145-0.02954s-0.48759.0074-.724,0.02954v-42.134c0.23642,0.02214.48024,0.02954,0.724,0.02954S1260.76845,108.44093,1261.01227,108.41879Z" transform="translate(-1148.7284 -31.55965)"/><path class="4d45e0d5-e9dc-474b-8d2a-39bd27f033bc" d="M1310.4235,197.38558c0.24377,0,.48759-0.0074.73141-0.02954v41.99361a8.39484,8.39484,0,0,0-1.06388-.06647c-0.133,0-.25861,0-0.39159.0074V197.356C1309.93586,197.37818,1310.17968,197.38558,1310.4235,197.38558Z" transform="translate(-1148.7284 -31.55965)"/><path class="4d45e0d5-e9dc-474b-8d2a-39bd27f033bc" d="M1310.4235,137.54244c0.24377,0,.48759-0.0074.73141-0.02954v41.99361a8.39485,8.39485,0,0,0-1.06388-.06647c-0.133,0-.25861,0-0.39159.0074V137.5129C1309.93586,137.535,1310.17968,137.54244,1310.4235,137.54244Z" transform="translate(-1148.7284 -31.55965)"/><path class="4d45e0d5-e9dc-474b-8d2a-39bd27f033bc" d="M1310.4235,77.69929c0.24377,0,.48759-0.0074.73141-0.02954v41.99361a8.39484,8.39484,0,0,0-1.06388-.06647c-0.133,0-.25861,0-0.39159.0074V77.66976C1309.93586,77.6919,1310.17968,77.69929,1310.4235,77.69929Z" transform="translate(-1148.7284 -31.55965)"/><path class="4d45e0d5-e9dc-474b-8d2a-39bd27f033bc" d="M1209.20732,197.38558c0.24377,0,.48759-0.0074.73141-0.02954v41.99361a8.39485,8.39485,0,0,0-1.06388-.06647c-0.133,0-.25861,0-0.39159.0074V197.356C1208.71969,197.37818,1208.9635,197.38558,1209.20732,197.38558Z" transform="translate(-1148.7284 -31.55965)"/><path class="4d45e0d5-e9dc-474b-8d2a-39bd27f033bc" d="M1209.20732,137.54244c0.24377,0,.48759-0.0074.73141-0.02954v41.99361a8.39487,8.39487,0,0,0-1.06388-.06647c-0.133,0-.25861,0-0.39159.0074V137.5129C1208.71969,137.535,1208.9635,137.54244,1209.20732,137.54244Z" transform="translate(-1148.7284 -31.55965)"/><path class="4d45e0d5-e9dc-474b-8d2a-39bd27f033bc" d="M1209.20732,77.69929c0.24377,0,.48759-0.0074.73141-0.02954v41.99361a8.39485,8.39485,0,0,0-1.06388-.06647c-0.133,0-.25861,0-0.39159.0074V77.66976C1208.71969,77.6919,1208.9635,77.69929,1209.20732,77.69929Z" transform="translate(-1148.7284 -31.55965)"/><path class="4d45e0d5-e9dc-474b-8d2a-39bd27f033bc" d="M1267.99393,162.45494l35.82466,20.69387a8.08635,8.08635,0,0,0-.73881,1.24123l-35.79507-20.66438A8.2111,8.2111,0,0,0,1267.99393,162.45494Z" transform="translate(-1148.7284 -31.55965)"/><path class="4d45e0d5-e9dc-474b-8d2a-39bd27f033bc" d="M1253.3139,95.20157a8.17987,8.17987,0,0,0-.71662,1.26337l-36.54867-21.10025A7.52091,7.52091,0,0,0,1216.913,74.19Z" transform="translate(-1148.7284 -31.55965)"/><path class="4d45e0d5-e9dc-474b-8d2a-39bd27f033bc" d="M1267.92007,103.6387l35.72117,20.62005a8.21111,8.21111,0,0,0-.69448,1.27812l-35.76549-20.64959A8.8027,8.8027,0,0,0,1267.92007,103.6387Z" transform="translate(-1148.7284 -31.55965)"/><path class="4d45e0d5-e9dc-474b-8d2a-39bd27f033bc" d="M1355.09157,153.966a7.88915,7.88915,0,0,0-.69448,1.27816l-36.89588-21.30713a8.16915,8.16915,0,0,0,.75359-1.24119Z" transform="translate(-1148.7284 -31.55965)"/><path class="4d45e0d5-e9dc-474b-8d2a-39bd27f033bc" d="M1202.75753,183.99105a8.23816,8.23816,0,0,0-.62057,1.04174l-36.43783-21.04117a9.26167,9.26167,0,0,0,.69448-0.99737Z" transform="translate(-1148.7284 -31.55965)"/><path class="4d45e0d5-e9dc-474b-8d2a-39bd27f033bc" d="M1252.915,212.95219a8.2207,8.2207,0,0,0-.51717,1.09342l-35.63251-20.57568a7.70346,7.70346,0,0,0,.58364-1.05648Z" transform="translate(-1148.7284 -31.55965)"/><path class="4d45e0d5-e9dc-474b-8d2a-39bd27f033bc" d="M1303.9811,242.43049a7.02965,7.02965,0,0,0-.66494,1.01216l-36.45258-21.04857a6.45976,6.45976,0,0,0,.69448-0.99Z" transform="translate(-1148.7284 -31.55965)"/><path class="4d45e0d5-e9dc-474b-8d2a-39bd27f033bc" d="M1253.19571,163.59268l-36.23834,20.92294a7.62088,7.62088,0,0,0-.84964-1.19686l36.4009-21.01159A8.24765,8.24765,0,0,0,1253.19571,163.59268Z" transform="translate(-1148.7284 -31.55965)"/><path class="4d45e0d5-e9dc-474b-8d2a-39bd27f033bc" d="M1253.28436,221.84l-36.76291,21.22588a7.99149,7.99149,0,0,0-.73141-1.06388l36.859-21.27755A7.23607,7.23607,0,0,0,1253.28436,221.84Z" transform="translate(-1148.7284 -31.55965)"/><path class="4d45e0d5-e9dc-474b-8d2a-39bd27f033bc" d="M1303.01327,191.6377a8.4592,8.4592,0,0,0,.628,1.13035l-35.7507,20.64219a7.99686,7.99686,0,0,0-.65015-1.1156Z" transform="translate(-1148.7284 -31.55965)"/><path class="4d45e0d5-e9dc-474b-8d2a-39bd27f033bc" d="M1354.98078,163.12723l-36.71858,21.19629a8.25817,8.25817,0,0,0-.65755-1.10821l36.7777-21.23323A8.02,8.02,0,0,0,1354.98078,163.12723Z" transform="translate(-1148.7284 -31.55965)"/><path class="4d45e0d5-e9dc-474b-8d2a-39bd27f033bc" d="M1202.49157,134.203l-35.78028,20.657a8.491,8.491,0,0,0-.7536-1.24858l35.87633-20.70866A7.40073,7.40073,0,0,0,1202.49157,134.203Z" transform="translate(-1148.7284 -31.55965)"/><path class="4d45e0d5-e9dc-474b-8d2a-39bd27f033bc" d="M1253.35087,104.83556l-36.22359,20.91555a8.91942,8.91942,0,0,0-.80532-1.219l36.30485-20.95987A7.65449,7.65449,0,0,0,1253.35087,104.83556Z" transform="translate(-1148.7284 -31.55965)"/><path class="4d45e0d5-e9dc-474b-8d2a-39bd27f033bc" d="M1304.321,75.409l-36.37871,21.0042a7.69452,7.69452,0,0,0-.73145-1.26337l36.38611-21.0042A8.88454,8.88454,0,0,0,1304.321,75.409Z" transform="translate(-1148.7284 -31.55965)"/><path class="a18c4b83-c346-44d5-a173-cbbc2d66b9ab" d="M1260.76108,167.40489v41.26964c-0.24382-.02219-0.48764-0.02958-0.73145-0.02958s-0.48759.0074-.724,0.02958V167.40489c0.23642,0.02219.48024,0.02958,0.724,0.02958S1260.51726,167.42708,1260.76108,167.40489Z" transform="translate(-1148.7284 -31.55965)"/><path class="a18c4b83-c346-44d5-a173-cbbc2d66b9ab" d="M1260.76108,225.52665v42.11184c-0.24382-.02219-0.48764-0.02958-0.73145-0.02958s-0.48759.0074-.724,0.02958V225.52665c0.23642,0.02214.48024,0.02954,0.724,0.02954S1260.51726,225.54879,1260.76108,225.52665Z" transform="translate(-1148.7284 -31.55965)"/><path class="a18c4b83-c346-44d5-a173-cbbc2d66b9ab" d="M1159.62616,107.96813v42.24482c-0.23642-.02219-0.48024-0.02958-0.724-0.02958s-0.48764.0074-.73145,0.02958V107.96813c0.24382,0.02214.48764,0.02954,0.73145,0.02954S1159.38974,107.99027,1159.62616,107.96813Z" transform="translate(-1148.7284 -31.55965)"/><path class="a18c4b83-c346-44d5-a173-cbbc2d66b9ab" d="M1159.62616,167.06507v42.16356c-0.23642-.02219-0.48024-0.02958-0.724-0.02958s-0.48764.0074-.73145,0.02958V167.06507c0.24382,0.02214.48764,0.02954,0.73145,0.02954S1159.38974,167.08721,1159.62616,167.06507Z" transform="translate(-1148.7284 -31.55965)"/><path class="a18c4b83-c346-44d5-a173-cbbc2d66b9ab" d="M1362.62,108.41879v41.79416c-0.24382-.02219-0.48764-0.02958-0.73141-0.02958s-0.48764.0074-.72406,0.02958V108.41879c0.23642,0.02214.48024,0.02954,0.72406,0.02954S1362.37619,108.44093,1362.62,108.41879Z" transform="translate(-1148.7284 -31.55965)"/><path class="a18c4b83-c346-44d5-a173-cbbc2d66b9ab" d="M1361.8886,167.0946c0.24377,0,.48759-0.0074.73141-0.02954v41.99361a8.39483,8.39483,0,0,0-1.06388-.06647c-0.133,0-.25861,0-0.39159.0074V167.06507C1361.401,167.08721,1361.64479,167.0946,1361.8886,167.0946Z" transform="translate(-1148.7284 -31.55965)"/><path class="a18c4b83-c346-44d5-a173-cbbc2d66b9ab" d="M1166.18674,103.8234l36.3935,21.01159a8.20176,8.20176,0,0,0-.7462,1.24858l-36.49695-21.06332A8.37455,8.37455,0,0,0,1166.18674,103.8234Z" transform="translate(-1148.7284 -31.55965)"/><path class="a18c4b83-c346-44d5-a173-cbbc2d66b9ab" d="M1253.16615,154.04734a7.8184,7.8184,0,0,0-.7388,1.24858l-35.97978-20.77517a8.83658,8.83658,0,0,0,.70187-1.27077Z" transform="translate(-1148.7284 -31.55965)"/><path class="a18c4b83-c346-44d5-a173-cbbc2d66b9ab" d="M1267.80186,44.49l36.40829,21.02638a8.81318,8.81318,0,0,0-.75359,1.24119h-0.0074l-36.34178-20.98206A8.28344,8.28344,0,0,0,1267.80186,44.49Z" transform="translate(-1148.7284 -31.55965)"/><path class="a18c4b83-c346-44d5-a173-cbbc2d66b9ab" d="M1355.12853,94.91342a8.41915,8.41915,0,0,0-.76834,1.23384l-36.28271-20.94513a8.24,8.24,0,0,0,.68708-1.28551Z" transform="translate(-1148.7284 -31.55965)"/><path class="a18c4b83-c346-44d5-a173-cbbc2d66b9ab" d="M1303.02064,132.99877a8.41647,8.41647,0,0,0,.80532,1.21165l-36.26052,20.93773a8.25666,8.25666,0,0,0-.76834-1.24119Z" transform="translate(-1148.7284 -31.55965)"/><path class="a18c4b83-c346-44d5-a173-cbbc2d66b9ab" d="M1354.88471,104.73216l-36.5782,21.12239a7.6997,7.6997,0,0,0-.65015-1.30765l36.52648-21.0929A7.67469,7.67469,0,0,0,1354.88471,104.73216Z" transform="translate(-1148.7284 -31.55965)"/><path class="a18c4b83-c346-44d5-a173-cbbc2d66b9ab" d="M1202.80188,75.03222l-36.24573,20.93034a8.28975,8.28975,0,0,0-.72406-1.27077L1202.004,73.81318A8.23287,8.23287,0,0,0,1202.80188,75.03222Z" transform="translate(-1148.7284 -31.55965)"/><path class="a18c4b83-c346-44d5-a173-cbbc2d66b9ab" d="M1253.09968,45.98983l-35.80247,20.67173a7.94908,7.94908,0,0,0-.65755-1.3003l35.736-20.6274A8.15237,8.15237,0,0,0,1253.09968,45.98983Z" transform="translate(-1148.7284 -31.55965)"/><path class="a18c4b83-c346-44d5-a173-cbbc2d66b9ab" d="M1166.31972,221.707L1202.1,242.364a8.52934,8.52934,0,0,0-.7462,1.256l-35.8394-20.69391A8.2802,8.2802,0,0,0,1166.31972,221.707Z" transform="translate(-1148.7284 -31.55965)"/><path class="a18c4b83-c346-44d5-a173-cbbc2d66b9ab" d="M1252.82628,271.65019a7.73637,7.73637,0,0,0-.6575,1.30765l-36.20141-20.90075a8.919,8.919,0,0,0,.70187-1.27812Z" transform="translate(-1148.7284 -31.55965)"/><path class="a18c4b83-c346-44d5-a173-cbbc2d66b9ab" d="M1302.56259,250.66813a8.26464,8.26464,0,0,0,.64276,1.3077l-35.51428,20.50182a8.80018,8.80018,0,0,0-.72406-1.256Z" transform="translate(-1148.7284 -31.55965)"/><path class="a18c4b83-c346-44d5-a173-cbbc2d66b9ab" d="M1354.62615,222.29068l-36.77769,21.23323a7.91058,7.91058,0,0,0-.80527-1.219l36.85156-21.27755A8.26194,8.26194,0,0,0,1354.62615,222.29068Z" transform="translate(-1148.7284 -31.55965)"/><path class="57d416ee-b252-45b6-a034-a1110bf2c276" d="M1260.39039,171.24807c-0.35608,0-.71228-0.01123-1.0575-0.0437a12.19764,12.19764,0,0,1-9.22729-5.53284,12.03608,12.03608,0,0,1-.998-1.86761,12.20528,12.20528,0,0,1-.98645-4.82513,12.06443,12.06443,0,0,1,1.23462-5.35492,11.28029,11.28029,0,0,1,1.07068-1.80829,12.255,12.255,0,0,1,8.91394-5.07306c0.33789-.03168.694-0.043,1.05-0.043,0.355,0,.71008.01117,1.06506,0.0434a12.30269,12.30269,0,0,1,8.75793,4.86792,11.92731,11.92731,0,0,1,1.12122,1.81226,12.24662,12.24662,0,0,1,.25061,10.59888,11.93651,11.93651,0,0,1-1.03076,1.84552,12.24633,12.24633,0,0,1-9.10388,5.33752C1261.1006,171.2369,1260.74537,171.24807,1260.39039,171.24807Z" transform="translate(-1148.7284 -31.55965)"/><path class="5ee95fac-2ad3-42c0-91eb-495443c3328b" d="M1260.39051,147.5328c0.32959,0,.65967.01025,0.98975,0.04a11.451,11.451,0,0,1,8.167,4.53857,11.2002,11.2002,0,0,1,1.03955,1.6792,11.4149,11.4149,0,0,1,.23975,9.88672,11.1596,11.1596,0,0,1-.95947,1.71924,11.45877,11.45877,0,0,1-8.48682,4.978c-0.33008.02979-.66016,0.04-0.98975,0.04-0.33008,0-.65967-0.01025-0.98-0.04a11.44113,11.44113,0,0,1-8.60645-5.1582,11.1415,11.1415,0,0,1-.92969-1.73926,11.41228,11.41228,0,0,1-.91992-4.49854,11.28829,11.28829,0,0,1,1.1499-4.98779,10.55494,10.55494,0,0,1,.99951-1.68945,11.42548,11.42548,0,0,1,8.30664-4.72852c0.32031-.02979.6499-0.04,0.98-0.04m0-1.667c-0.42187,0-.79248.01563-1.13428,0.04736a13.08006,13.08006,0,0,0-9.50537,5.41455,12.143,12.143,0,0,0-1.15723,1.9585,12.85528,12.85528,0,0,0-1.30615,5.69238,13.03916,13.03916,0,0,0,1.0542,5.15381,12.85235,12.85235,0,0,0,1.06787,1.99707,13.02711,13.02711,0,0,0,9.8584,5.90576c0.33008,0.03076.70068,0.04639,1.12256,0.04639,0.418,0,.79053-0.01562,1.13965-0.04687a13.07422,13.07422,0,0,0,9.71387-5.69873,13.08815,13.08815,0,0,0,.82617-13.30566,12.7155,12.7155,0,0,0-1.18018-1.90674,13.14971,13.14971,0,0,0-9.36572-5.21143c-0.34326-.03076-0.71582-0.04639-1.13379-0.04639h0Z" transform="translate(-1148.7284 -31.55965)"/><path class="f7b13bed-ce7e-4f49-9a7f-f16c7c851e0e" d="M1260.39234,110.42c-0.3009,0-.60205-0.00952-0.894-0.03687a10.35014,10.35014,0,0,1-7.60242-4.39209,9.50048,9.50048,0,0,1-.89368-1.5603,10.10744,10.10744,0,0,1-.97314-4.374,10.30766,10.30766,0,0,1,.94238-4.32941,10.06356,10.06356,0,0,1,.87805-1.548,10.34455,10.34455,0,0,1,7.65564-4.45782c0.285-.02686.58618-0.03638,0.88721-0.03638,0.30017,0,.60034.00946,0.90039,0.03674a10.34528,10.34528,0,0,1,7.59619,4.39227,9.40072,9.40072,0,0,1,.902,1.56049,10.12412,10.12412,0,0,1,.97314,4.38208,10.29774,10.29774,0,0,1-1.00586,4.46539,10.80138,10.80138,0,0,1-.90808,1.535,10.39506,10.39506,0,0,1-7.56055,4.32642C1260.99256,110.41061,1260.69252,110.42,1260.39234,110.42Z" transform="translate(-1148.7284 -31.55965)"/><path class="57d416ee-b252-45b6-a034-a1110bf2c276" d="M1260.39247,90.51864c0.2749,0,.5498.0083,0.82471,0.0332a9.539,9.539,0,0,1,6.98926,4.04,8.70818,8.70818,0,0,1,.82471,1.4248,9.38212,9.38212,0,0,1,.89941,4.04,9.51258,9.51258,0,0,1-.92481,4.10693,9.87187,9.87187,0,0,1-.833,1.40771,9.57452,9.57452,0,0,1-6.95557,3.98193c-0.2749.0249-.5498,0.0332-0.82471,0.0332s-0.5498-.0083-0.81641-0.0332a9.54028,9.54028,0,0,1-6.99756-4.04,8.66364,8.66364,0,0,1-.81641-1.4248,9.34374,9.34374,0,0,1-.89941-4.03174,9.52547,9.52547,0,0,1,.86621-3.98193,9.2552,9.2552,0,0,1,.8081-1.42432,9.535,9.535,0,0,1,7.03906-4.09863c0.2666-.0249.5415-0.0332,0.81641-0.0332m0-1.667c-0.3623,0-.68018.01318-0.97119,0.04053a11.16644,11.16644,0,0,0-8.25635,4.812,10.94243,10.94243,0,0,0-.95557,1.68555,11.123,11.123,0,0,0-1.01367,4.667,10.95116,10.95116,0,0,0,1.06152,4.748,10.25491,10.25491,0,0,0,.95752,1.667,11.18569,11.18569,0,0,0,8.21826,4.74219c0.2793,0.02637.59717,0.03955,0.95947,0.03955,0.35889,0,.67773-0.01318.9751-0.04a11.2256,11.2256,0,0,0,8.16162-4.67334,11.51989,11.51989,0,0,0,.97266-1.6416,11.13824,11.13824,0,0,0,1.0957-4.8418,10.96857,10.96857,0,0,0-1.06152-4.75635,10.188,10.188,0,0,0-.96582-1.667,11.1789,11.1789,0,0,0-8.20947-4.74219c-0.29053-.02637-0.60937-0.03955-0.96826-0.03955h0Z" transform="translate(-1148.7284 -31.55965)"/><path class="b134f8fc-36c4-4360-ab55-e331053c4418" d="M1260.39112,53.128c-0.301,0-.60217-0.00952-0.89417-0.037a10.33444,10.33444,0,0,1-7.60315-4.40149,9.98627,9.98627,0,0,1-.88806-1.54047,10.26348,10.26348,0,0,1-.9779-4.39264,10.36749,10.36749,0,0,1,20.735,0,10.39066,10.39066,0,0,1-9.47534,10.33521C1260.99147,53.11855,1260.69129,53.128,1260.39112,53.128Z" transform="translate(-1148.7284 -31.55965)"/><path class="57d416ee-b252-45b6-a034-a1110bf2c276" d="M1260.391,33.22665a9.53507,9.53507,0,0,1,9.53858,9.52979,9.55768,9.55768,0,0,1-8.71387,9.50488c-0.2749.0249-.5498,0.0332-0.82471,0.0332s-0.5498-.0083-0.81641-0.0332a9.52155,9.52155,0,0,1-6.99707-4.04834,9.18378,9.18378,0,0,1-.81641-1.4165,9.52776,9.52776,0,0,1,8.62988-13.56982m0-1.667a11.19409,11.19409,0,0,0-10.13867,15.94482,10.83036,10.83036,0,0,0,.96191,1.668,11.16626,11.16626,0,0,0,8.21728,4.74951c0.2793,0.02637.59717,0.03955,0.95947,0.03955,0.35889,0,.67773-0.01318.9751-0.04a11.202,11.202,0,0,0-.9751-22.36182h0Z" transform="translate(-1148.7284 -31.55965)"/><path class="2f451ca4-af6c-4ef0-b4eb-457e03efc570" d="M1260.39234,227.40987c-0.3009,0-.60193-0.00964-0.8938-0.03687a10.3,10.3,0,0,1-7.6853-4.51978,8.91347,8.91347,0,0,1-.78516-1.381,10.35761,10.35761,0,0,1-.30041-8.17761,10.01439,10.01439,0,0,1,.63684-1.345,10.35545,10.35545,0,0,1,8.14075-5.2384c0.28491-.02673.58606-0.03638,0.88709-0.03638,0.30017,0,.60034.00952,0.90039,0.03687a10.33666,10.33666,0,0,1,7.63208,4.4375,9.79556,9.79556,0,0,1,.80164,1.37659,10.18019,10.18019,0,0,1,1.0376,4.51245,10.31619,10.31619,0,0,1-1.45044,5.28345,8.11452,8.11452,0,0,1-.86621,1.23181,10.35329,10.35329,0,0,1-7.15759,3.81995C1260.99244,227.40035,1260.69239,227.40987,1260.39234,227.40987Z" transform="translate(-1148.7284 -31.55965)"/><path class="57d416ee-b252-45b6-a034-a1110bf2c276" d="M1260.39247,207.50839c0.2749,0,.5498.0083,0.82471,0.0332a9.52585,9.52585,0,0,1,7.02246,4.082,8.9914,8.9914,0,0,1,.73291,1.25781,9.50569,9.50569,0,0,1-.375,9.01318,7.2469,7.2469,0,0,1-.78271,1.11621,9.48971,9.48971,0,0,1-6.59766,3.53223c-0.2749.0249-.5498,0.0332-0.82471,0.0332s-0.5498-.0083-0.81641-0.0332a9.5173,9.5173,0,0,1-7.07227-4.15674,8.14825,8.14825,0,0,1-.71631-1.25781,9.52779,9.52779,0,0,1-.28369-7.53076,9.30727,9.30727,0,0,1,.5835-1.23291,9.52928,9.52928,0,0,1,7.48877-4.82324c0.2666-.0249.5415-0.0332,0.81641-0.0332m0-1.667c-0.3623,0-.68018.01318-0.97119,0.04053a11.18616,11.18616,0,0,0-8.78613,5.66406,10.84,10.84,0,0,0-.68262,1.44189,11.19168,11.19168,0,0,0,.33057,8.85791,9.64573,9.64573,0,0,0,.84717,1.48486,11.126,11.126,0,0,0,8.30469,4.87354c0.27734,0.02588.59522,0.03906,0.95752,0.03906,0.35889,0,.67773-0.01318.9751-0.04a11.20591,11.20591,0,0,0,7.73193-4.13037,8.91194,8.91194,0,0,0,.94385-1.34912,11.17,11.17,0,0,0,.42578-10.57617,10.5003,10.5003,0,0,0-.856-1.46826,11.17247,11.17247,0,0,0-8.25342-4.79834c-0.28955-.02637-0.6084-0.03955-0.96728-0.03955h0Z" transform="translate(-1148.7284 -31.55965)"/><path class="190d533e-dfb1-493b-b754-b15ed063e034" d="M1260.39112,284.82577a10.37919,10.37919,0,0,1-10.36328-10.37158,10.20639,10.20639,0,0,1,.7262-3.80835,9.557,9.557,0,0,1,.80835-1.60645,10.3725,10.3725,0,0,1,7.941-4.91211c0.28552-.02686.58667-0.0365,0.8877-0.0365,0.30017,0,.60034.00952,0.90039,0.03687a10.3534,10.3534,0,0,1,7.60449,4.39221,10.72357,10.72357,0,0,1,.88892,1.54175,10.2624,10.2624,0,0,1,.97791,4.39258A10.3834,10.3834,0,0,1,1260.39112,284.82577Z" transform="translate(-1148.7284 -31.55965)"/><path class="57d416ee-b252-45b6-a034-a1110bf2c276" d="M1260.391,264.9244c0.2749,0,.54981.0083,0.82471,0.0332a9.55455,9.55455,0,0,1,6.99756,4.04,9.96136,9.96136,0,0,1,.81641,1.4165,9.53426,9.53426,0,1,1-18.16846,4.04,9.40426,9.40426,0,0,1,.6665-3.49854,8.73564,8.73564,0,0,1,.74121-1.47461,9.5063,9.5063,0,0,1,7.30566-4.52344c0.2666-.0249.5415-0.0332,0.81641-0.0332m0-1.667c-0.3623,0-.68017.01318-0.97119,0.04053a11.21013,11.21013,0,0,0-8.57422,5.31543,10.40178,10.40178,0,0,0-.87207,1.73975,11.01326,11.01326,0,0,0-.7793,4.10107,11.20117,11.20117,0,1,0,21.34424-4.74854,11.55983,11.55983,0,0,0-.94971-1.64941,11.19631,11.19631,0,0,0-8.22949-4.75928c-0.29053-.02637-0.60937-0.03955-0.96826-0.03955h0Z" transform="translate(-1148.7284 -31.55965)"/><path class="3618c1cc-43f5-49f6-b557-39134fb9e0fc" d="M1310.10316,256.73446a10.36324,10.36324,0,0,1-9.03052-15.44727,8.70744,8.70744,0,0,1,.82129-1.24756,10.37161,10.37161,0,0,1,16.31519-.146,9.72325,9.72325,0,0,1,.99267,1.50281A10.36186,10.36186,0,0,1,1310.10316,256.73446Z" transform="translate(-1148.7284 -31.55965)"/><path class="57d416ee-b252-45b6-a034-a1110bf2c276" d="M1310.1034,236.83309a9.52286,9.52286,0,0,1,7.45557,3.582,8.92455,8.92455,0,0,1,.90772,1.37451,9.42411,9.42411,0,0,1,1.1748,4.57324,9.537,9.537,0,0,1-17.68555,4.95654,9.3463,9.3463,0,0,1-.72461-1.47461,9.515,9.515,0,0,1,.56641-8.147,7.92678,7.92678,0,0,1,.75-1.14111,9.49687,9.49687,0,0,1,7.55566-3.72363m0-1.667a11.115,11.115,0,0,0-8.87744,4.375,9.51327,9.51327,0,0,0-.89355,1.3623,11.20165,11.20165,0,1,0,19.59326.08008,10.461,10.461,0,0,0-1.06738-1.6123,11.16841,11.16841,0,0,0-8.75488-4.20508h0Z" transform="translate(-1148.7284 -31.55965)"/><path class="c945bf4d-8e88-4414-8afe-9e8602e7c4a7" d="M1310.10316,198.0787a10.32237,10.32237,0,0,1-9.406-6.02087,10.36634,10.36634,0,0,1,.08582-8.88281,9.94216,9.94216,0,0,1,.90417-1.51843,10.38078,10.38078,0,0,1,16.90112.07837,10.37918,10.37918,0,0,1,.09949,11.79114A10.37681,10.37681,0,0,1,1310.10316,198.0787Z" transform="translate(-1148.7284 -31.55965)"/><path class="57d416ee-b252-45b6-a034-a1110bf2c276" d="M1310.1034,178.17733a9.55662,9.55662,0,0,1,7.80518,4.04,9.34945,9.34945,0,0,1,.7417,1.24951,9.54829,9.54829,0,0,1,.1499,8.15527,9.29747,9.29747,0,0,1-.79981,1.43311,9.53417,9.53417,0,0,1-16.46924-9.51318,9.15585,9.15585,0,0,1,.833-1.3999,9.52494,9.52494,0,0,1,7.73926-3.96484m0-1.667a11.24794,11.24794,0,0,0-9.09033,4.65576,10.90012,10.90012,0,0,0-.98779,1.66113,11.25533,11.25533,0,0,0,.74365,11.07275,11.201,11.201,0,0,0,18.60986.09277,11.2174,11.2174,0,0,0,1.92969-6.28564,11.25762,11.25762,0,0,0-1.165-4.98145,10.99949,10.99949,0,0,0-.87061-1.46582,11.26414,11.26414,0,0,0-9.16943-4.74951h0Z" transform="translate(-1148.7284 -31.55965)"/><path class="b3748ce7-3c22-465e-8208-666f94b471bb" d="M1310.74281,139.33724a10.37679,10.37679,0,0,1-10.36328-10.37164,10.1009,10.1009,0,0,1,.88147-4.174,9.98945,9.98945,0,0,1,.84582-1.5556,10.36619,10.36619,0,0,1,17.49585.34937,9.553,9.553,0,0,1,.79749,1.60553,10.32753,10.32753,0,0,1-.37427,8.38947,10.06877,10.06877,0,0,1-.923,1.51886A10.39818,10.39818,0,0,1,1310.74281,139.33724Z" transform="translate(-1148.7284 -31.55965)"/><path class="57d416ee-b252-45b6-a034-a1110bf2c276" d="M1310.74305,119.43563a9.5056,9.5056,0,0,1,8.147,4.582,8.65722,8.65722,0,0,1,.73291,1.47412,9.49444,9.49444,0,0,1-.34131,7.71387,9.18679,9.18679,0,0,1-.8501,1.39941,9.53387,9.53387,0,0,1-17.21875-5.63965,9.63492,9.63492,0,0,1,1.59131-5.27295,9.51742,9.51742,0,0,1,7.939-4.25684m0-1.667a11.18077,11.18077,0,0,0-9.32666,5.00049,11.30535,11.30535,0,0,0-1.87061,6.19629,11.19706,11.19706,0,0,0,20.23047,6.62451,10.87249,10.87249,0,0,0,1.00147-1.64893,11.16167,11.16167,0,0,0,.39551-9.062,10.36871,10.36871,0,0,0-.86963-1.74512,11.09639,11.09639,0,0,0-9.56055-5.36523h0Z" transform="translate(-1148.7284 -31.55965)"/><path class="5dd5a498-11bb-4682-9666-7302d7d212f3" d="M1310.66432,82.1376a10.37777,10.37777,0,0,1-8.49683-4.42926,10.91927,10.91927,0,0,1-.88867-1.54968,10.37587,10.37587,0,0,1,.12744-9.05743l0.23084-.4588h0.01953a11.38459,11.38459,0,0,1,.67493-1.05176A10.37569,10.37569,0,0,1,1321.0359,71.766a10.48277,10.48277,0,0,1-1.694,5.68787A10.36943,10.36943,0,0,1,1310.66432,82.1376Z" transform="translate(-1148.7284 -31.55965)"/><path class="57d416ee-b252-45b6-a034-a1110bf2c276" d="M1310.66444,62.23592a9.53506,9.53506,0,0,1,9.53809,9.53027,9.39334,9.39334,0,0,1-.7832,3.78174,9.29045,9.29045,0,0,1-.77441,1.44971,9.53937,9.53937,0,0,1-15.79443.23291,10.0455,10.0455,0,0,1-.81641-1.42432,9.54555,9.54555,0,0,1,.1167-8.33057h0.0083a9.976,9.976,0,0,1,.84961-1.39941,9.53317,9.53317,0,0,1,7.65576-3.84033m0-1.667a11.27253,11.27253,0,0,0-8.9917,4.51025c-0.17969.25049-.34228,0.49219-0.49023,0.72949h-0.05078l-0.46973.91748a11.11168,11.11168,0,0,0-1.19433,5.04,11.24465,11.24465,0,0,0,1.05762,4.748,11.66882,11.66882,0,0,0,.9502,1.6582,11.20573,11.20573,0,0,0,18.561-.25732,11.32768,11.32768,0,0,0,1.833-6.14893,11.214,11.214,0,0,0-11.20508-11.19727h0Z" transform="translate(-1148.7284 -31.55965)"/><path class="f7dc5ca4-4b61-46c4-8156-e4c4baf2c5e3" d="M1210.49806,81.37246A10.33428,10.33428,0,0,1,1202.356,77.433a10.171,10.171,0,0,1-.98157-1.49933,10.36526,10.36526,0,0,1,17.94751-10.35913,9.80627,9.80627,0,0,1,.80688,1.59753,10.3813,10.3813,0,0,1-.78125,9.22906,9.33329,9.33329,0,0,1-1.06531,1.44592A10.34163,10.34163,0,0,1,1210.49806,81.37246Z" transform="translate(-1148.7284 -31.55965)"/><path class="57d416ee-b252-45b6-a034-a1110bf2c276" d="M1210.49794,61.47079a9.51126,9.51126,0,0,1,8.11377,4.54,9.00047,9.00047,0,0,1,.7417,1.46631,9.55477,9.55477,0,0,1,.67432,3.53223,9.4587,9.4587,0,0,1-1.39111,4.95654,8.47266,8.47266,0,0,1-.97461,1.32422,9.53661,9.53661,0,0,1-14.65283-.375,9.29391,9.29391,0,0,1-.8999-1.37451,9.43269,9.43269,0,0,1-1.14941-4.53125,9.53683,9.53683,0,0,1,9.53809-9.53857m0-1.667a11.19835,11.19835,0,0,0-9.85107,16.53613,10.89715,10.89715,0,0,0,1.05322,1.60693,11.20317,11.20317,0,0,0,17.2168.44043,10.13817,10.13817,0,0,0,1.15137-1.56738,11.21695,11.21695,0,0,0,.83447-9.95752,10.688,10.688,0,0,0-.877-1.73437,11.11436,11.11436,0,0,0-9.52783-5.32422h0Z" transform="translate(-1148.7284 -31.55965)"/><path class="19fe1712-022a-4e60-99c6-38fb250ef483" d="M1210.49806,139.33724a10.288,10.288,0,0,1-8.83252-4.94635,9.13373,9.13373,0,0,1-.80811-1.60065,10.33213,10.33213,0,0,1-.731-3.82465,10.20969,10.20969,0,0,1,1.04309-4.53192,10.00392,10.00392,0,0,1,.91846-1.535,10.37144,10.37144,0,0,1,16.53577-.36481,10.94438,10.94438,0,0,1,.98425,1.4892,10.37745,10.37745,0,0,1,1.25342,4.94257,10.22292,10.22292,0,0,1-.91626,4.26013,10.77491,10.77491,0,0,1-.85657,1.55023A10.38165,10.38165,0,0,1,1210.49806,139.33724Z" transform="translate(-1148.7284 -31.55965)"/><path class="57d416ee-b252-45b6-a034-a1110bf2c276" d="M1210.49794,119.43563a9.509,9.509,0,0,1,7.47217,3.61572,10.04262,10.04262,0,0,1,.9082,1.374,9.537,9.537,0,0,1,.30811,8.45557,9.94656,9.94656,0,0,1-.791,1.43262,9.53145,9.53145,0,0,1-16.01953-.35791,8.34109,8.34109,0,0,1-.74121-1.46631,9.5441,9.5441,0,0,1-.6748-3.52393,9.44771,9.44771,0,0,1,.958-4.165,9.2791,9.2791,0,0,1,.84131-1.40771,9.52941,9.52941,0,0,1,7.73877-3.957m0-1.667a11.2434,11.2434,0,0,0-9.08984,4.64795,10.82586,10.82586,0,0,0-.98584,1.64795,11.03765,11.03765,0,0,0-1.12939,4.90088,11.17024,11.17024,0,0,0,.79248,4.13867,9.97375,9.97375,0,0,0,.88379,1.74609,11.19834,11.19834,0,0,0,18.80469.40088,11.62617,11.62617,0,0,0,.93262-1.68652,11.04343,11.04343,0,0,0,.98828-4.59912,11.21042,11.21042,0,0,0-1.35156-5.33545,11.85036,11.85036,0,0,0-1.06445-1.61133,11.13708,11.13708,0,0,0-8.78076-4.25h0Z" transform="translate(-1148.7284 -31.55965)"/><path class="a41e0aeb-af18-4842-809d-fa23a3d35de0" d="M1210.49806,197.94393a10.39113,10.39113,0,0,1-9.04858-5.29871,10.275,10.275,0,0,1-1.323-5.073,10.35616,10.35616,0,0,1,1.1062-4.65833,10.04447,10.04447,0,0,1,.75684-1.27063,10.3709,10.3709,0,0,1,16.10474-1.1189h0.00879l0.25769,0.29a9.45767,9.45767,0,0,1,1.05041,1.48083,10.33857,10.33857,0,0,1,.47168,9.67126,9.42394,9.42394,0,0,1-.71912,1.29944A10.35915,10.35915,0,0,1,1210.49806,197.94393Z" transform="translate(-1148.7284 -31.55965)"/><path class="57d416ee-b252-45b6-a034-a1110bf2c276" d="M1210.49794,178.04256a9.48113,9.48113,0,0,1,7.22266,3.31543h0.0083a8.61931,8.61931,0,0,1,.958,1.34912,9.37617,9.37617,0,0,1,1.34082,4.86523,9.504,9.504,0,0,1-.89941,4.04,8.66764,8.66764,0,0,1-.6582,1.19141,9.53732,9.53732,0,0,1-16.29395-.56641,9.84071,9.84071,0,0,1-.68311-1.50781,9.66746,9.66746,0,0,1-.5332-3.15723,9.456,9.456,0,0,1,1.0166-4.28174,9.269,9.269,0,0,1,.69971-1.1748,9.52888,9.52888,0,0,1,7.82178-4.07324m0-1.667a11.2194,11.2194,0,0,0-9.188,4.78516,10.8692,10.8692,0,0,0-.83057,1.39746,11.164,11.164,0,0,0-1.18652,5.01416,11.34646,11.34646,0,0,0,.624,3.69971,11.46483,11.46483,0,0,0,.79981,1.77051,11.204,11.204,0,0,0,19.145.67871,10.34074,10.34074,0,0,0,.78125-1.41309,11.23194,11.23194,0,0,0,1.05176-4.73584,11.09762,11.09762,0,0,0-1.57959-5.7251,10.17513,10.17513,0,0,0-1.12207-1.57568l-0.49853-.58057h-0.04395a11.16469,11.16469,0,0,0-7.95264-3.31543h0Z" transform="translate(-1148.7284 -31.55965)"/><path class="aa8dfd7a-e007-4aba-a762-9a80a4d48c9a" d="M1210.01612,256.46481a10.37509,10.37509,0,0,1-10.36328-10.3634,10.20982,10.20982,0,0,1,1.043-4.53186,10.332,10.332,0,0,1,9.32031-5.83972,10.33006,10.33006,0,0,1,8.07068,3.85852,9.832,9.832,0,0,1,.89722,1.30493,10.31288,10.31288,0,0,1,1.40369,5.20813,10.20452,10.20452,0,0,1-.916,4.25183,10.805,10.805,0,0,1-.85291,1.55273A10.41236,10.41236,0,0,1,1210.01612,256.46481Z" transform="translate(-1148.7284 -31.55965)"/><path class="57d416ee-b252-45b6-a034-a1110bf2c276" d="M1210.016,236.56307a9.51458,9.51458,0,0,1,7.42236,3.54883,9.045,9.045,0,0,1,.82471,1.19971,9.51382,9.51382,0,0,1,.44971,8.69678,10.0109,10.0109,0,0,1-.791,1.44092,9.54144,9.54144,0,0,1-17.43555-5.34766,9.44982,9.44982,0,0,1,.958-4.16553,9.64713,9.64713,0,0,1,.84131-1.416,9.51386,9.51386,0,0,1,7.73047-3.957m0-1.667a11.16723,11.16723,0,0,0-10.07227,6.314,11.03253,11.03253,0,0,0-1.12451,4.8916,11.20848,11.20848,0,0,0,20.479,6.28809,11.68973,11.68973,0,0,0,.939-1.70752,11.01044,11.01044,0,0,0,.98389-4.58057,11.151,11.151,0,0,0-1.51953-5.63281,10.75732,10.75732,0,0,0-.9751-1.415,11.15394,11.15394,0,0,0-8.71045-4.15771h0Z" transform="translate(-1148.7284 -31.55965)"/><path class="d5a53859-0ad4-4bf1-8dd5-c89ee53d04e7" d="M1360.53028,227.0107a10.37777,10.37777,0,0,1-8.4967-4.42932,10.35736,10.35736,0,0,1-.90466-10.32007,10.006,10.006,0,0,1,.88928-1.54163,10.43676,10.43676,0,0,1,8.032-4.43469c0.1582-.00879.31457-0.00928,0.4801-0.00928A10.36749,10.36749,0,0,1,1360.53028,227.0107Z" transform="translate(-1148.7284 -31.55965)"/><path class="57d416ee-b252-45b6-a034-a1110bf2c276" d="M1360.53016,207.109a9.53418,9.53418,0,1,1-7.81348,14.99463,9.26624,9.26624,0,0,1-.82471-1.42432,9.52237,9.52237,0,0,1-.0083-8.064,9.17641,9.17641,0,0,1,.81592-1.416,9.542,9.542,0,0,1,7.38916-4.082c0.1499-.0083.2915-0.0083,0.44141-0.0083m0-1.667c-0.18115,0-.35254.001-0.53369,0.01074a11.27154,11.27154,0,0,0-8.665,4.79443,10.76,10.76,0,0,0-.9585,1.66357,11.04766,11.04766,0,0,0-1.04785,4.72852,11.2427,11.2427,0,0,0,1.05811,4.748,10.96014,10.96014,0,0,0,.9707,1.67627,11.20177,11.20177,0,1,0,9.17627-17.62158h0Z" transform="translate(-1148.7284 -31.55965)"/><path class="a23c5a66-aed7-4f88-a00b-70a465fcccfe" d="M1360.85719,169.006c-0.301,0-.60217-0.00952-0.89416-0.03687a10.39267,10.39267,0,0,1-7.88415-4.82751,9.88145,9.88145,0,0,1-.73523-1.4071,10.34546,10.34546,0,0,1,.02136-8.26117,9.69275,9.69275,0,0,1,.85169-1.566,10.29976,10.29976,0,0,1,7.75452-4.6c0.28381-.02667.585-0.03625,0.886-0.03625,0.3,0,.6001.00952,0.9,0.03674a10.3697,10.3697,0,0,1-.00305,20.66174C1361.45729,168.99661,1361.15724,169.006,1360.85719,169.006Z" transform="translate(-1148.7284 -31.55965)"/><path class="57d416ee-b252-45b6-a034-a1110bf2c276" d="M1360.85731,149.10458c0.2749,0,.5498.0083,0.82471,0.0332a9.53631,9.53631,0,0,1,0,19.00146c-0.2749.0249-.54981,0.0332-0.82471,0.0332s-0.54981-.0083-0.81641-0.0332a9.5109,9.5109,0,0,1-7.25586-4.43994,9.07429,9.07429,0,0,1-.6748-1.291,9.51764,9.51764,0,0,1,.0166-7.59766,8.9237,8.9237,0,0,1,.7832-1.44092,9.5144,9.5144,0,0,1,7.13086-4.23193c0.2666-.0249.5415-0.0332,0.81641-0.0332m0-1.667c-0.36231,0-.68018.01318-0.97119,0.04053a11.12263,11.12263,0,0,0-8.36475,4.96924,10.59475,10.59475,0,0,0-.92773,1.709,11.1824,11.1824,0,0,0-.00977,8.92139,10.72124,10.72124,0,0,0,.79248,1.5127,11.23086,11.23086,0,0,0,8.52441,5.21c0.27637,0.02588.59424,0.03906,0.95654,0.03906,0.35889,0,.67773-0.01318.9751-0.04a11.14386,11.14386,0,0,0,10.23-11.165,11.26462,11.26462,0,0,0-10.23877-11.15723c-0.28858-.02637-0.60742-0.03955-0.96631-0.03955h0Z" transform="translate(-1148.7284 -31.55965)"/><path class="5f84be1b-562e-4517-adb2-8715a030d1f4" d="M1360.85719,111.16177c-0.301,0-.60217-0.00958-0.89416-0.03693a10.30471,10.30471,0,0,1-7.69336-4.51978,9.44137,9.44137,0,0,1-.86768-1.5813,10.15752,10.15752,0,0,1-.90808-4.22528,10.36749,10.36749,0,1,1,11.25879,10.327C1361.45729,111.15231,1361.15724,111.16177,1360.85719,111.16177Z" transform="translate(-1148.7284 -31.55965)"/><path class="57d416ee-b252-45b6-a034-a1110bf2c276" d="M1360.85731,91.26034a9.53507,9.53507,0,0,1,.82471,19.03467c-0.2749.0249-.54981,0.0332-0.82471,0.0332s-0.54981-.0083-0.81641-0.0332a9.51956,9.51956,0,0,1-7.08105-4.15674,8.64806,8.64806,0,0,1-.791-1.44141,9.38136,9.38136,0,0,1-.84131-3.89844,9.52614,9.52614,0,0,1,9.52979-9.53809m0-1.667a11.19007,11.19007,0,0,0-10.20606,15.79346,10.10557,10.10557,0,0,0,.92529,1.68115,11.14234,11.14234,0,0,0,8.32373,4.88818c0.27686,0.02588.59473,0.03906,0.957,0.03906,0.35889,0,.67773-0.01318.9751-0.04a11.202,11.202,0,0,0-.9751-22.36182h0Z" transform="translate(-1148.7284 -31.55965)"/><path class="fd7749d7-2863-40b3-bcde-e8af088bd4af" d="M1160.64772,110.71725c-0.3,0-.6001-0.00952-0.9-0.03674a10.36878,10.36878,0,1,1,9.396-16.27826,10.37805,10.37805,0,0,1-7.60986,16.27875C1161.24989,110.7076,1160.94862,110.71725,1160.64772,110.71725Z" transform="translate(-1148.7284 -31.55965)"/><path class="57d416ee-b252-45b6-a034-a1110bf2c276" d="M1160.64784,90.816a9.52776,9.52776,0,0,1,7.81348,4.06494,9.74755,9.74755,0,0,1,1.71631,5.46484,9.54467,9.54467,0,0,1-8.71338,9.50488c-0.2666.0249-.5415,0.0332-0.81641,0.0332s-0.5498-.0083-0.82471-0.0332a9.53507,9.53507,0,0,1,.82471-19.03467m0-1.667a11.202,11.202,0,0,0-.96924,22.3623c0.2915,0.02637.61035,0.03955,0.96924,0.03955,0.36231,0,.68018-0.01318.97119-0.04053a11.2149,11.2149,0,0,0,10.22559-11.16455,11.41651,11.41651,0,0,0-2.00879-6.4082,11.23207,11.23207,0,0,0-9.188-4.78857h0Z" transform="translate(-1148.7284 -31.55965)"/><path class="d1e695c8-d161-4a2a-a30c-d499b95f24de" d="M1159.93348,169.006c-0.3,0-.6001-0.0094-0.90015-0.03668a10.36972,10.36972,0,0,1,.00452-20.66187c0.29565-.02679.59558-0.03632,0.89563-0.03632,0.301,0,.60217.00958,0.894,0.03693a10.241,10.241,0,0,1,8.3783,5.707,10.141,10.141,0,0,1,1.09106,4.61932,10.33022,10.33022,0,0,1-1.48645,5.34607,11.15892,11.15892,0,0,1-.84253,1.21027,10.29993,10.29993,0,0,1-7.14722,3.779C1160.53565,168.99648,1160.23451,169.006,1159.93348,169.006Z" transform="translate(-1148.7284 -31.55965)"/><path class="57d416ee-b252-45b6-a034-a1110bf2c276" d="M1159.93348,149.10458c0.2749,0,.54981.0083,0.81641,0.0332a9.408,9.408,0,0,1,7.70557,5.23975,9.373,9.373,0,0,1,1.00781,4.25684,9.46865,9.46865,0,0,1-1.36621,4.915,10.39733,10.39733,0,0,1-.78272,1.12451,9.5253,9.5253,0,0,1-6.56445,3.46533c-0.2666.0249-.5415,0.0332-0.81641,0.0332s-0.5498-.0083-0.82471-0.0332a9.53631,9.53631,0,0,1,0-19.00146c0.2749-.0249.54981-0.0332,0.82471-0.0332m0-1.667c-0.35889,0-.67773.01318-0.9751,0.04a11.263,11.263,0,0,0-10.23,11.15674,11.14525,11.14525,0,0,0,10.23584,11.16553c0.2915,0.02637.61035,0.03955,0.96924,0.03955,0.36231,0,.68018-0.01318.97119-0.04053a11.11185,11.11185,0,0,0,7.69873-4.06836,12.10447,12.10447,0,0,0,.92627-1.3291,11.15064,11.15064,0,0,0,1.60059-5.76709,11.43442,11.43442,0,0,0-2.16943-6.63574,11.25863,11.25863,0,0,0-8.06787-4.52148c-0.2793-.02637-0.59717-0.03955-0.95947-0.03955h0Z" transform="translate(-1148.7284 -31.55965)"/><path class="16905f5b-cfd5-41ad-b79a-94eb35c1997e" d="M1160.64772,227.21468a10.36854,10.36854,0,0,1-.89551-20.69861c0.29529-.02686.59546-0.03638,0.89551-0.03638,0.301,0,.60229.00964,0.89429,0.037a10.39746,10.39746,0,0,1,7.21228,3.86646,10.22534,10.22534,0,0,1,.99206,1.50208,10.36648,10.36648,0,0,1-.00366,9.93054,10.1799,10.1799,0,0,1-.98486,1.49109A10.326,10.326,0,0,1,1160.64772,227.21468Z" transform="translate(-1148.7284 -31.55965)"/><path class="57d416ee-b252-45b6-a034-a1110bf2c276" d="M1160.64784,207.31307c0.2749,0,.54981.0083,0.81641,0.03369a9.51371,9.51371,0,0,1,6.63916,3.55664,9.61026,9.61026,0,0,1,2.07422,5.93945,9.51373,9.51373,0,0,1-1.1665,4.57373,9.39573,9.39573,0,0,1-.90772,1.37451,9.53625,9.53625,0,1,1-8.28027-15.44434c0.2749-.02539.54981-0.03369,0.82471-0.03369m0-1.667c-0.36133,0-.68115.01367-0.978,0.041a11.20205,11.20205,0,1,0,9.73584,18.144,11.23963,11.23963,0,0,0,.00684-13.95947,11.24405,11.24405,0,0,0-7.80908-4.186q-0.40869-.03882-0.95557-0.03955h0Z" transform="translate(-1148.7284 -31.55965)"/></svg>