<svg id="ab259c02-3fd6-43cf-af03-424651f165c5" data-name="Layer 1" xmlns="http://www.w3.org/2000/svg" viewBox="0 0 227.03882 80.96328"><defs><style>.d4021fc9-c748-46a2-8891-ccaa8d45782d,.e55119b6-699e-42d6-ae9d-084f43f537ca{fill:#414042;}.d4021fc9-c748-46a2-8891-ccaa8d45782d{font-size:20px;font-family:Lato;}</style></defs><title>BoxxAI Logo 2</title><path class="e55119b6-699e-42d6-ae9d-084f43f537ca" d="M1160.86069,306.61019a18.10955,18.10955,0,0,1,4.95757-.66362,17.50014,17.50014,0,1,1-17.48816,17.48816V303.44831a7.49494,7.49494,0,0,1,7.49494-7.49494h0v27.75459a9.55428,9.55428,0,0,0,2.92746,6.79206,10.06909,10.06909,0,0,0,7.19791,2.92718,9.6154,9.6154,0,0,0,6.92332-2.91693,10.03025,10.03025,0,0,0,2.93772-7.07781,9.61855,9.61855,0,0,0-2.85244-6.98731,10.05643,10.05643,0,0,0-7.14216-3.00362,9.71333,9.71333,0,0,0-4.95617,1.28811v-8.11945Z" transform="translate(-1147.76159 -293.45502)"/><path class="e55119b6-699e-42d6-ae9d-084f43f537ca" d="M1205.79118,340.92289a17.45934,17.45934,0,1,1,12.37446-5.1137A16.85411,16.85411,0,0,1,1205.79118,340.92289Zm7.06552-10.42264a9.98961,9.98961,0,1,0-7.06552,2.92769A9.62767,9.62767,0,0,0,1212.8567,330.50025Z" transform="translate(-1147.76159 -293.45502)"/><path class="e55119b6-699e-42d6-ae9d-084f43f537ca" d="M1241.35306,323.43473l-13.07711-17.48816h8.86122l8.62694,11.55463,8.62694-11.55463h8.86122l-13.03808,17.48816,13.03808,17.48816H1254.391l-8.62694-11.55472-8.62694,11.55472h-8.86122Z" transform="translate(-1147.76159 -293.45502)"/><path class="e55119b6-699e-42d6-ae9d-084f43f537ca" d="M1281.32607,323.43473L1268.249,305.94657h8.86122l8.62694,11.55463,8.62694-11.55463h8.86122l-13.03808,17.48816,13.03808,17.48816h-8.86122l-8.62694-11.55472-8.62694,11.55472H1268.249Z" transform="translate(-1147.76159 -293.45502)"/><path class="e55119b6-699e-42d6-ae9d-084f43f537ca" d="M1318.21509,335.92629a4.99773,4.99773,0,1,1-1.4638-3.5328A4.81336,4.81336,0,0,1,1318.21509,335.92629Z" transform="translate(-1147.76159 -293.45502)"/><path class="e55119b6-699e-42d6-ae9d-084f43f537ca" d="M1348.15577,335.88851a4.99371,4.99371,0,0,1-4.9053,5.03432l-0.05227.00007a17.50014,17.50014,0,1,1,17.48816-17.48816v17.48816h-7.495V323.16151a9.56124,9.56124,0,0,0-2.92744-6.792,10.06351,10.06351,0,0,0-7.19013-2.92729,9.615,9.615,0,0,0-6.93058,2.91647,10.03039,10.03039,0,0,0-2.93826,7.07836,9.61685,9.61685,0,0,0,2.84725,6.982,10.05817,10.05817,0,0,0,7.1473,3.00891,9.71416,9.71416,0,0,0,4.95622-1.2882v3.74877Z" transform="translate(-1147.76159 -293.45502)"/><path class="e55119b6-699e-42d6-ae9d-084f43f537ca" d="M1374.23184,298.45162a4.99788,4.99788,0,1,1-1.4638-3.53271A4.81357,4.81357,0,0,1,1374.23184,298.45162Zm-1.05393,7.495v34.97632h-7.495V305.94657h7.495Z" transform="translate(-1147.76159 -293.45502)"/><text class="d4021fc9-c748-46a2-8891-ccaa8d45782d" transform="translate(-0.00006 75.59344)">A.I. <tspan x="37.49939" y="0">F</tspan><tspan x="49.43945" y="0">OR E-</tspan><tspan x="105.87891" y="0">C</tspan><tspan x="119.71912" y="0">OMME</tspan><tspan x="187.45874" y="0">R</tspan><tspan x="200.60889" y="0">CE</tspan></text></svg>