<svg id="369177fd-337c-4553-8e55-35fb74fce60d" data-name="Layer 1" xmlns="http://www.w3.org/2000/svg" viewBox="0 0 226.05469 72.61658"><defs><style>.\38 d543d13-a598-426a-9999-25a72f78a911{fill:#f1f2f2;}</style></defs><title>Dark Theme Only Text </title><path class="8d543d13-a598-426a-9999-25a72f78a911" d="M1067.32262,1434.312a18.12428,18.12428,0,0,1,4.96094-.66406,17.512,17.512,0,1,1-17.5,17.5v-27.5h7.5v27.77344a10.00154,10.00154,0,1,0,10-10.27344,9.72023,9.72023,0,0,0-4.96094,1.28906v-8.125Z" transform="translate(-1054.78356 -1421.14792)"/><path class="8d543d13-a598-426a-9999-25a72f78a911" d="M1112.28356,1468.64792a17.47125,17.47125,0,1,1,12.38281-5.11719A16.8653,16.8653,0,0,1,1112.28356,1468.64792Zm7.07031-10.42969a9.99636,9.99636,0,1,0-7.07031,2.92969A9.63424,9.63424,0,0,0,1119.35387,1458.21823Z" transform="translate(-1054.78356 -1421.14792)"/><path class="8d543d13-a598-426a-9999-25a72f78a911" d="M1147.8695,1451.14792l-13.08594-17.5h8.86719l8.63281,11.5625,8.63281-11.5625h8.86719l-13.04687,17.5,13.04688,17.5h-8.86719l-8.63281-11.5625-8.63281,11.5625h-8.86719Z" transform="translate(-1054.78356 -1421.14792)"/><path class="8d543d13-a598-426a-9999-25a72f78a911" d="M1187.8695,1451.14792l-13.08594-17.5h8.86719l8.63281,11.5625,8.63281-11.5625h8.86719l-13.04687,17.5,13.04688,17.5h-8.86719l-8.63281-11.5625-8.63281,11.5625h-8.86719Z" transform="translate(-1054.78356 -1421.14792)"/><path class="8d543d13-a598-426a-9999-25a72f78a911" d="M1224.78356,1463.64792a5.00129,5.00129,0,1,1-1.46484-3.53516A4.81663,4.81663,0,0,1,1224.78356,1463.64792Z" transform="translate(-1054.78356 -1421.14792)"/><path class="8d543d13-a598-426a-9999-25a72f78a911" d="M1254.7445,1467.98386a18.104,18.104,0,0,1-4.96094.66406,17.51195,17.51195,0,1,1,17.5-17.5v17.5h-7.5v-17.77344a10.00155,10.00155,0,1,0-10,10.27344,9.72182,9.72182,0,0,0,4.96094-1.28906v8.125Z" transform="translate(-1054.78356 -1421.14792)"/><path class="8d543d13-a598-426a-9999-25a72f78a911" d="M1280.83825,1426.14792a5.00129,5.00129,0,1,1-1.46484-3.53516A4.81663,4.81663,0,0,1,1280.83825,1426.14792Zm-1.05469,7.5v35h-7.5v-35h7.5Z" transform="translate(-1054.78356 -1421.14792)"/><path class="8d543d13-a598-426a-9999-25a72f78a911" d="M1068.26354,1493.60446h-1.5a0.64442,0.64442,0,0,1-.41992-0.13,0.797,0.797,0,0,1-.24011-0.33l-1.34-3.46008h-6.42993l-1.34009,3.46008a0.70145,0.70145,0,0,1-.23.31995,0.63813,0.63813,0,0,1-.41992.14h-1.5l5.73-14.33h1.96Zm-4.04-5.31995-2.25-5.83008q-0.1-.25983-0.21-0.605-0.11-.345-0.21-0.735a10.90447,10.90447,0,0,1-.43005,1.35l-2.25,5.82007h5.35Z" transform="translate(-1054.78356 -1421.14792)"/><path class="8d543d13-a598-426a-9999-25a72f78a911" d="M1070.19323,1492.50449a1.276,1.276,0,0,1,.355-0.89,1.24584,1.24584,0,0,1,1.375-.27,1.26692,1.26692,0,0,1,.67.67,1.263,1.263,0,0,1,0,.985,1.30168,1.30168,0,0,1-.27.395,1.21542,1.21542,0,0,1-.4.265,1.3115,1.3115,0,0,1-.98,0,1.15887,1.15887,0,0,1-.395-0.265A1.25232,1.25232,0,0,1,1070.19323,1492.50449Z" transform="translate(-1054.78356 -1421.14792)"/><path class="8d543d13-a598-426a-9999-25a72f78a911" d="M1078.33312,1493.60446h-1.94006v-14.33h1.94006v14.33Z" transform="translate(-1054.78356 -1421.14792)"/><path class="8d543d13-a598-426a-9999-25a72f78a911" d="M1082.03307,1492.50449a1.276,1.276,0,0,1,.355-0.89,1.24584,1.24584,0,0,1,1.375-.27,1.26692,1.26692,0,0,1,.67.67,1.263,1.263,0,0,1,0,.985,1.30168,1.30168,0,0,1-.27.395,1.21543,1.21543,0,0,1-.4.265,1.3115,1.3115,0,0,1-.98,0,1.15886,1.15886,0,0,1-.395-0.265A1.25231,1.25231,0,0,1,1082.03307,1492.50449Z" transform="translate(-1054.78356 -1421.14792)"/><path class="8d543d13-a598-426a-9999-25a72f78a911" d="M1096.053,1480.85446v5.01h5.89v1.58h-5.89v6.16h-1.94006v-14.33h8.83008v1.58h-6.89Z" transform="translate(-1054.78356 -1421.14792)"/><path class="8d543d13-a598-426a-9999-25a72f78a911" d="M1119.293,1486.44443a8.27188,8.27188,0,0,1-.50989,2.95508,6.76723,6.76723,0,0,1-1.44006,2.31494,6.43361,6.43361,0,0,1-2.235,1.505,8.0323,8.0323,0,0,1-5.765,0,6.44393,6.44393,0,0,1-2.23-1.505,6.76723,6.76723,0,0,1-1.44006-2.31494,8.81574,8.81574,0,0,1,0-5.91,6.82373,6.82373,0,0,1,1.44006-2.32007,6.47151,6.47151,0,0,1,2.23-1.51489,7.96284,7.96284,0,0,1,5.765,0,6.46091,6.46091,0,0,1,2.235,1.51489,6.82373,6.82373,0,0,1,1.44006,2.32007A8.27263,8.27263,0,0,1,1119.293,1486.44443Zm-1.99,0a7.28318,7.28318,0,0,0-.36-2.37,5.014,5.014,0,0,0-1.02-1.775,4.427,4.427,0,0,0-1.6-1.115,5.82157,5.82157,0,0,0-4.18994,0,4.47337,4.47337,0,0,0-1.605,1.115,4.972,4.972,0,0,0-1.025,1.775,7.96506,7.96506,0,0,0,0,4.735,4.97483,4.97483,0,0,0,1.025,1.77,4.41474,4.41474,0,0,0,1.605,1.11,5.8922,5.8922,0,0,0,4.18994,0,4.36938,4.36938,0,0,0,1.6-1.11,5.01695,5.01695,0,0,0,1.02-1.77A7.237,7.237,0,0,0,1117.303,1486.44443Z" transform="translate(-1054.78356 -1421.14792)"/><path class="8d543d13-a598-426a-9999-25a72f78a911" d="M1133.41283,1493.60446h-1.72009a0.8476,0.8476,0,0,1-.77991-0.41l-3.72009-5.12a1.10344,1.10344,0,0,0-.365-0.345,1.33016,1.33016,0,0,0-.605-0.105h-1.47v5.98h-1.93005v-14.33h4.05a8.85414,8.85414,0,0,1,2.35.2749,4.48813,4.48813,0,0,1,1.635.795,3.18282,3.18282,0,0,1,.955,1.255,4.1947,4.1947,0,0,1,.31006,1.645,4.12332,4.12332,0,0,1-.24,1.42,3.751,3.751,0,0,1-.69507,1.18494,4.15742,4.15742,0,0,1-1.11.895,5.48652,5.48652,0,0,1-1.485.55994,1.91759,1.91759,0,0,1,.64.61011Zm-6.62-7.39a4.9038,4.9038,0,0,0,1.485-.205,3.04165,3.04165,0,0,0,1.08-.58008,2.4056,2.4056,0,0,0,.655-0.8949,2.9258,2.9258,0,0,0,.22-1.15,2.29018,2.29018,0,0,0-.84-1.93005,4.08123,4.08123,0,0,0-2.52-.65h-2.12v5.41h2.04Z" transform="translate(-1054.78356 -1421.14792)"/><path class="8d543d13-a598-426a-9999-25a72f78a911" d="M1150.83275,1492.0245l-0.01,1.58h-8.83008v-14.33h8.83008v1.58h-6.89v4.76h5.58v1.52h-5.58v4.89h6.9Z" transform="translate(-1054.78356 -1421.14792)"/><path class="8d543d13-a598-426a-9999-25a72f78a911" d="M1153.72265,1486.85446h4.93994v1.51h-4.93994v-1.51Z" transform="translate(-1054.78356 -1421.14792)"/><path class="8d543d13-a598-426a-9999-25a72f78a911" d="M1172.55248,1490.6445a0.3709,0.3709,0,0,1,.28.13l0.7699,0.83a6.13068,6.13068,0,0,1-2.13489,1.59,7.30778,7.30778,0,0,1-3.035.57007,7.09479,7.09479,0,0,1-2.8-.535,6.15683,6.15683,0,0,1-2.15-1.5,6.78018,6.78018,0,0,1-1.38-2.31494,8.64825,8.64825,0,0,1-.49-2.97009,8.34263,8.34263,0,0,1,.51-2.97,6.79817,6.79817,0,0,1,1.43506-2.31995,6.41719,6.41719,0,0,1,2.215-1.505,7.37194,7.37194,0,0,1,2.85-.535,6.94567,6.94567,0,0,1,2.70007.49,6.79934,6.79934,0,0,1,2.05994,1.33l-0.64.89a0.52309,0.52309,0,0,1-.15491.165,0.44421,0.44421,0,0,1-.255.06494,0.79329,0.79329,0,0,1-.44006-0.19495,6.71186,6.71186,0,0,0-.67993-0.43506,5.06068,5.06068,0,0,0-2.6001-.63,5.21093,5.21093,0,0,0-2.02991.385,4.43375,4.43375,0,0,0-1.58508,1.115,5.14254,5.14254,0,0,0-1.03491,1.78,7.09855,7.09855,0,0,0-.37,2.37,6.91184,6.91184,0,0,0,.38489,2.39,5.27229,5.27229,0,0,0,1.05,1.775,4.43424,4.43424,0,0,0,1.57007,1.105,4.99593,4.99593,0,0,0,1.955.38,8.0793,8.0793,0,0,0,1.155-.075,4.7193,4.7193,0,0,0,.95-0.235,3.9875,3.9875,0,0,0,.81006-0.405,5.77018,5.77018,0,0,0,.745-0.58508A0.51682,0.51682,0,0,1,1172.55248,1490.6445Z" transform="translate(-1054.78356 -1421.14792)"/><path class="8d543d13-a598-426a-9999-25a72f78a911" d="M1189.57262,1486.44443a8.27185,8.27185,0,0,1-.50989,2.95508,6.76723,6.76723,0,0,1-1.44006,2.31494,6.43361,6.43361,0,0,1-2.235,1.505,8.0323,8.0323,0,0,1-5.765,0,6.44393,6.44393,0,0,1-2.23-1.505,6.76723,6.76723,0,0,1-1.44006-2.31494,8.81576,8.81576,0,0,1,0-5.91,6.82373,6.82373,0,0,1,1.44006-2.32007,6.47151,6.47151,0,0,1,2.23-1.51489,7.96284,7.96284,0,0,1,5.765,0,6.46091,6.46091,0,0,1,2.235,1.51489,6.82373,6.82373,0,0,1,1.44006,2.32007A8.27261,8.27261,0,0,1,1189.57262,1486.44443Zm-1.99,0a7.28318,7.28318,0,0,0-.36-2.37,5.014,5.014,0,0,0-1.02-1.775,4.427,4.427,0,0,0-1.6-1.115,5.82157,5.82157,0,0,0-4.18994,0,4.47337,4.47337,0,0,0-1.605,1.115,4.972,4.972,0,0,0-1.025,1.775,7.96506,7.96506,0,0,0,0,4.735,4.97483,4.97483,0,0,0,1.025,1.77,4.41474,4.41474,0,0,0,1.605,1.11,5.8922,5.8922,0,0,0,4.18994,0,4.36938,4.36938,0,0,0,1.6-1.11,5.01695,5.01695,0,0,0,1.02-1.77A7.237,7.237,0,0,0,1187.58263,1486.44443Z" transform="translate(-1054.78356 -1421.14792)"/><path class="8d543d13-a598-426a-9999-25a72f78a911" d="M1208.01244,1479.2745v14.33h-1.7v-10.53q0-.21.015-0.45,0.01483-.24005.03491-0.49l-4.91992,8.96a0.74443,0.74443,0,0,1-.70007.45h-0.28a0.74415,0.74415,0,0,1-.7-0.45l-5.02-9a8.74794,8.74794,0,0,1,.06006.98v10.53h-1.70007v-14.33h1.43005a1.24882,1.24882,0,0,1,.4.04993,0.57711,0.57711,0,0,1,.27.28l4.95,8.81995q0.11993,0.24005.235,0.5,0.11481,0.26019.215,0.53,0.1-.2699.21008-0.535a5.38193,5.38193,0,0,1,.24-0.50488l4.86-8.81006a0.53081,0.53081,0,0,1,.265-0.28,1.29556,1.29556,0,0,1,.405-0.04993h1.42993Z" transform="translate(-1054.78356 -1421.14792)"/><path class="8d543d13-a598-426a-9999-25a72f78a911" d="M1227.3424,1479.2745v14.33h-1.7v-10.53q0-.21.015-0.45,0.01483-.24005.03491-0.49l-4.91992,8.96a0.74443,0.74443,0,0,1-.70007.45h-0.28a0.74415,0.74415,0,0,1-.7-0.45l-5.02-9a8.74794,8.74794,0,0,1,.06006.98v10.53h-1.70007v-14.33h1.43005a1.24882,1.24882,0,0,1,.4.04993,0.57711,0.57711,0,0,1,.27.28l4.95,8.81995q0.11994,0.24005.235,0.5,0.11481,0.26019.215,0.53,0.1-.2699.21008-0.535a5.38193,5.38193,0,0,1,.24-0.50488l4.86-8.81006a0.53081,0.53081,0,0,1,.265-0.28,1.29556,1.29556,0,0,1,.405-0.04993h1.42993Z" transform="translate(-1054.78356 -1421.14792)"/><path class="8d543d13-a598-426a-9999-25a72f78a911" d="M1240.60241,1492.0245l-0.01,1.58h-8.83008v-14.33h8.83008v1.58h-6.89v4.76h5.58v1.52h-5.58v4.89h6.9Z" transform="translate(-1054.78356 -1421.14792)"/><path class="8d543d13-a598-426a-9999-25a72f78a911" d="M1254.66234,1493.60446h-1.72009a0.84759,0.84759,0,0,1-.77991-0.41l-3.72009-5.12a1.10343,1.10343,0,0,0-.365-0.345,1.33016,1.33016,0,0,0-.605-0.105h-1.47v5.98h-1.93005v-14.33h4.05a8.85416,8.85416,0,0,1,2.35.2749,4.48812,4.48812,0,0,1,1.635.795,3.18281,3.18281,0,0,1,.955,1.255,4.1947,4.1947,0,0,1,.31006,1.645,4.12332,4.12332,0,0,1-.24,1.42,3.751,3.751,0,0,1-.69507,1.18494,4.1574,4.1574,0,0,1-1.11.895,5.48653,5.48653,0,0,1-1.485.55994,1.91758,1.91758,0,0,1,.64.61011Zm-6.62-7.39a4.90379,4.90379,0,0,0,1.485-.205,3.04164,3.04164,0,0,0,1.08-.58008,2.4056,2.4056,0,0,0,.655-0.8949,2.9258,2.9258,0,0,0,.22-1.15,2.29018,2.29018,0,0,0-.84-1.93005,4.08123,4.08123,0,0,0-2.52-.65h-2.12v5.41h2.04Z" transform="translate(-1054.78356 -1421.14792)"/><path class="8d543d13-a598-426a-9999-25a72f78a911" d="M1267.28246,1490.6445a0.37091,0.37091,0,0,1,.28.13l0.7699,0.83a6.13068,6.13068,0,0,1-2.13489,1.59,7.30778,7.30778,0,0,1-3.035.57007,7.0948,7.0948,0,0,1-2.8-.535,6.15684,6.15684,0,0,1-2.15-1.5,6.78017,6.78017,0,0,1-1.38-2.31494,8.64827,8.64827,0,0,1-.49-2.97009,8.34263,8.34263,0,0,1,.51-2.97,6.79817,6.79817,0,0,1,1.43506-2.31995,6.4172,6.4172,0,0,1,2.215-1.505,7.372,7.372,0,0,1,2.85-.535,6.94567,6.94567,0,0,1,2.70007.49,6.79934,6.79934,0,0,1,2.05994,1.33l-0.64.89a0.52308,0.52308,0,0,1-.15491.165,0.44421,0.44421,0,0,1-.255.06494,0.79329,0.79329,0,0,1-.44006-0.19495,6.71174,6.71174,0,0,0-.67993-0.43506,5.06067,5.06067,0,0,0-2.6001-.63,5.21093,5.21093,0,0,0-2.02991.385,4.43374,4.43374,0,0,0-1.58508,1.115,5.14253,5.14253,0,0,0-1.03491,1.78,7.09855,7.09855,0,0,0-.37,2.37,6.91184,6.91184,0,0,0,.38489,2.39,5.2723,5.2723,0,0,0,1.05,1.775,4.43424,4.43424,0,0,0,1.57007,1.105,4.99593,4.99593,0,0,0,1.955.38,8.0793,8.0793,0,0,0,1.155-.075,4.71932,4.71932,0,0,0,.95-0.235,3.98749,3.98749,0,0,0,.81006-0.405,5.77018,5.77018,0,0,0,.745-0.58508A0.51683,0.51683,0,0,1,1267.28246,1490.6445Z" transform="translate(-1054.78356 -1421.14792)"/><path class="8d543d13-a598-426a-9999-25a72f78a911" d="M1280.18249,1492.0245l-0.01,1.58h-8.83008v-14.33h8.83008v1.58h-6.89v4.76h5.58v1.52h-5.58v4.89h6.9Z" transform="translate(-1054.78356 -1421.14792)"/></svg>