<svg id="8173fd0f-cf3e-4315-9122-bf154113c1dc" data-name="Layer 1" xmlns="http://www.w3.org/2000/svg" xmlns:xlink="http://www.w3.org/1999/xlink" viewBox="0 0 50.96826 57.81628"><defs><style>.\37 c04cc22-114c-47f8-93f9-d2f3f73d26dd,.d6876db1-4b10-44c1-bd97-b851451a8c7f{fill:#231f20;stroke-miterlimit:10;}.\37 c04cc22-114c-47f8-93f9-d2f3f73d26dd{stroke:#bcbec0;stroke-width:0.5px;}.d6876db1-4b10-44c1-bd97-b851451a8c7f{stroke:#d1d3d4;}.f11cf8ff-b396-4d0c-9f64-2ed2164b7cb1{fill:#fff;}.\34 048e2c5-2738-4b3e-83af-ce10964afde8{fill:#414042;}.a4ee8926-36c6-4b99-88ca-c2cb60691623{fill:url(#80ab1eab-c7e8-4784-b1ce-0f61d9439390);}.\33 4c0512e-f5a4-4f10-9b48-8eaef683fef1{fill:url(#eb4de90e-090c-4795-bc2f-dc7a6dd1f701);}.\35 98d3e38-2eb2-4d41-9dc0-b358c7088317{fill:url(#5da319d9-9a15-4bf6-aed6-027475c86686);}.d6788c3b-4270-491d-b73e-f8bc4609078b{fill:url(#41c85e4d-4583-4a9d-8bd9-93c25d4fdc61);}.f8b0758f-c5d9-4e62-aa90-a23635cf5bbd{fill:url(#79f22b44-e57a-4dde-b7ba-440fb8cdac0c);}.\31 a4188e0-7d10-44e2-93a5-210b4451f770{fill:url(#5f5cde70-6119-4087-bb38-2742e0cb2c02);}.c13d649f-5734-4e47-a648-6694cdd02df3{fill:url(#5aa824df-e96a-4820-a3bc-ee7f2f29d87e);}.acfdc91d-6e50-4ce7-8914-dcb09e2039e2{fill:url(#3f525079-0ca5-4b79-a1ea-71c0082c287b);}.cd751faa-7f63-4c42-b241-cd59048d5a25{fill:url(#1db36e1f-5389-4fa9-afa2-8e98c129b9be);}.e9e25e78-edae-4ba6-ad08-61ff3843c215{fill:url(#b332024b-370d-478b-b47b-4e21c31e3f1f);}.\36 d612b21-50e9-4711-bcc5-eac3d41b685e{fill:url(#8e058ae6-2ca7-4442-93f0-b9376397897e);}.\35 4f425d8-d577-4f9f-a3ee-44994bbb119b{fill:url(#7eb32ac9-44f6-4f9b-b934-2012b43e1923);}.\33 44ddcf0-f65a-4e0d-b092-77b5b1c7e32b{fill:url(#2ac47348-fb61-460c-9eae-4ef5c5abf7b3);}.c05d4cee-e28a-4e57-b6c2-ddfd7486011e{fill:url(#69e27a25-f685-4176-8946-eae55e791e6b);}.c165ad3d-9632-4699-ac8a-b96b8d3260f0{fill:url(#554d14c4-b63e-4767-abce-e0ac67a78c89);}.\32 e1c785a-06d9-4237-80dd-fcc24bb33e5b{fill:url(#4c2b10fb-1f76-42be-88c9-33b9c11e9c5a);}.d5fdefed-2714-4bea-81c8-f890ff9e8ebc{fill:url(#aca7ca4c-b3cd-4124-b8a3-d5510e27aadc);}.a50a0165-9ba0-4fa0-9a68-6aa5da5c16b5{fill:url(#74743719-6f7b-4535-9d85-f455cc7c5617);}</style><linearGradient id="80ab1eab-c7e8-4784-b1ce-0f61d9439390" x1="1846.26096" y1="192.01547" x2="1851.5051" y2="192.01547" gradientUnits="userSpaceOnUse"><stop offset="0" stop-color="#d2e5a6"/><stop offset="0.5" stop-color="#acd479"/><stop offset="1" stop-color="#77b843"/></linearGradient><linearGradient id="eb4de90e-090c-4795-bc2f-dc7a6dd1f701" x1="1846.26047" y1="179.26303" x2="1851.5051" y2="179.26303" gradientUnits="userSpaceOnUse"><stop offset="0" stop-color="#33c4f2"/><stop offset="0.5" stop-color="#2aace3"/><stop offset="1" stop-color="#1e94d2"/></linearGradient><linearGradient id="5da319d9-9a15-4bf6-aed6-027475c86686" x1="1846.26096" y1="218.05551" x2="1851.5051" y2="218.05551" gradientUnits="userSpaceOnUse"><stop offset="0" stop-color="#fee7a3"/><stop offset="0.5" stop-color="#ffcb0a"/><stop offset="1" stop-color="#f8ac1c"/></linearGradient><linearGradient id="41c85e4d-4583-4a9d-8bd9-93c25d4fdc61" x1="1846.26047" y1="230.8353" x2="1851.5051" y2="230.8353" xlink:href="#eb4de90e-090c-4795-bc2f-dc7a6dd1f701"/><linearGradient id="79f22b44-e57a-4dde-b7ba-440fb8cdac0c" x1="1857.3259" y1="224.58237" x2="1862.57004" y2="224.58237" gradientUnits="userSpaceOnUse"><stop offset="0" stop-color="#f79554"/><stop offset="0.5" stop-color="#f27623"/><stop offset="1" stop-color="#d4632a"/></linearGradient><linearGradient id="5f5cde70-6119-4087-bb38-2742e0cb2c02" x1="1857.3259" y1="211.52671" x2="1862.57004" y2="211.52671" xlink:href="#80ab1eab-c7e8-4784-b1ce-0f61d9439390"/><linearGradient id="5aa824df-e96a-4820-a3bc-ee7f2f29d87e" x1="1857.46799" y1="198.452" x2="1862.71213" y2="198.452" xlink:href="#5da319d9-9a15-4bf6-aed6-027475c86686"/><linearGradient id="3f525079-0ca5-4b79-a1ea-71c0082c287b" x1="1857.45041" y1="185.72031" x2="1862.69504" y2="185.72031" xlink:href="#79f22b44-e57a-4dde-b7ba-440fb8cdac0c"/><linearGradient id="1db36e1f-5389-4fa9-afa2-8e98c129b9be" x1="1835.15354" y1="185.55014" x2="1840.39768" y2="185.55014" xlink:href="#79f22b44-e57a-4dde-b7ba-440fb8cdac0c"/><linearGradient id="b332024b-370d-478b-b47b-4e21c31e3f1f" x1="1835.15354" y1="198.452" x2="1840.39768" y2="198.452" xlink:href="#5da319d9-9a15-4bf6-aed6-027475c86686"/><linearGradient id="8e058ae6-2ca7-4442-93f0-b9376397897e" x1="1835.15354" y1="211.49692" x2="1840.39768" y2="211.49692" xlink:href="#80ab1eab-c7e8-4784-b1ce-0f61d9439390"/><linearGradient id="7eb32ac9-44f6-4f9b-b934-2012b43e1923" x1="1835.04807" y1="224.52256" x2="1840.29221" y2="224.52256" xlink:href="#79f22b44-e57a-4dde-b7ba-440fb8cdac0c"/><linearGradient id="2ac47348-fb61-460c-9eae-4ef5c5abf7b3" x1="1868.54807" y1="217.96665" x2="1873.79221" y2="217.96665" xlink:href="#eb4de90e-090c-4795-bc2f-dc7a6dd1f701"/><linearGradient id="69e27a25-f685-4176-8946-eae55e791e6b" x1="1868.62277" y1="205.05551" x2="1873.86691" y2="205.05551" xlink:href="#79f22b44-e57a-4dde-b7ba-440fb8cdac0c"/><linearGradient id="554d14c4-b63e-4767-abce-e0ac67a78c89" x1="1868.62277" y1="192.18051" x2="1873.86691" y2="192.18051" xlink:href="#eb4de90e-090c-4795-bc2f-dc7a6dd1f701"/><linearGradient id="4c2b10fb-1f76-42be-88c9-33b9c11e9c5a" x1="1824.05783" y1="192.08164" x2="1829.30197" y2="192.08164" xlink:href="#eb4de90e-090c-4795-bc2f-dc7a6dd1f701"/><linearGradient id="aca7ca4c-b3cd-4124-b8a3-d5510e27aadc" x1="1823.89865" y1="205.05551" x2="1829.14279" y2="205.05551" xlink:href="#79f22b44-e57a-4dde-b7ba-440fb8cdac0c"/><linearGradient id="74743719-6f7b-4535-9d85-f455cc7c5617" x1="1824.05783" y1="218.01206" x2="1829.30197" y2="218.01206" xlink:href="#eb4de90e-090c-4795-bc2f-dc7a6dd1f701"/></defs><title>LOGO TOP</title><path class="7c04cc22-114c-47f8-93f9-d2f3f73d26dd" d="M1849.02012,180.78121v9.34543c-0.05427-.00494-0.10854-0.00658-0.16281-0.00658s-0.10853.00165-.16115,0.00658v-9.34543c0.05262,0.00494.10689,0.00657,0.16115,0.00657S1848.96585,180.78615,1849.02012,180.78121Z" transform="translate(-1823.39865 -176.14109)"/><path class="7c04cc22-114c-47f8-93f9-d2f3f73d26dd" d="M1849.02012,193.87764v9.37831c-0.05427-.00493-0.10854-0.00657-0.16281-0.00657s-0.10853.00165-.16115,0.00657v-9.37831c0.05262,0.00493.10689,0.00657,0.16115,0.00657S1848.96585,193.88256,1849.02012,193.87764Z" transform="translate(-1823.39865 -176.14109)"/><path class="7c04cc22-114c-47f8-93f9-d2f3f73d26dd" d="M1860.01822,213.68014c0.05426,0,.10853-0.00165.1628-0.00657v9.34706a1.86855,1.86855,0,0,0-.2368-0.01479c-0.0296,0-.05756,0-0.08716.00165v-9.33392C1859.90969,213.67849,1859.964,213.68014,1860.01822,213.68014Z" transform="translate(-1823.39865 -176.14109)"/><path class="7c04cc22-114c-47f8-93f9-d2f3f73d26dd" d="M1860.01822,200.36007c0.05426,0,.10853-0.00165.1628-0.00657v9.34706a1.86855,1.86855,0,0,0-.2368-0.01479c-0.0296,0-.05756,0-0.08716.00165v-9.33392C1859.90969,200.35842,1859.964,200.36007,1860.01822,200.36007Z" transform="translate(-1823.39865 -176.14109)"/><path class="7c04cc22-114c-47f8-93f9-d2f3f73d26dd" d="M1860.01822,187.04c0.05426,0,.10853-0.00165.1628-0.00657v9.34706a1.86855,1.86855,0,0,0-.2368-0.01479c-0.0296,0-.05756,0-0.08716.00165v-9.33392C1859.90969,187.03835,1859.964,187.04,1860.01822,187.04Z" transform="translate(-1823.39865 -176.14109)"/><path class="7c04cc22-114c-47f8-93f9-d2f3f73d26dd" d="M1837.48922,213.68014c0.05426,0,.10853-0.00165.1628-0.00657v9.34706a1.86855,1.86855,0,0,0-.2368-0.01479c-0.0296,0-.05756,0-0.08716.00165v-9.33392C1837.38068,213.67849,1837.43495,213.68014,1837.48922,213.68014Z" transform="translate(-1823.39865 -176.14109)"/><path class="7c04cc22-114c-47f8-93f9-d2f3f73d26dd" d="M1837.48922,200.36007c0.05426,0,.10853-0.00165.1628-0.00657v9.34706a1.86855,1.86855,0,0,0-.2368-0.01479c-0.0296,0-.05756,0-0.08716.00165v-9.33392C1837.38068,200.35842,1837.43495,200.36007,1837.48922,200.36007Z" transform="translate(-1823.39865 -176.14109)"/><path class="7c04cc22-114c-47f8-93f9-d2f3f73d26dd" d="M1837.48922,187.04c0.05426,0,.10853-0.00165.1628-0.00657v9.34706a1.86855,1.86855,0,0,0-.2368-0.01479c-0.0296,0-.05756,0-0.08716.00165v-9.33392C1837.38068,187.03835,1837.43495,187.04,1837.48922,187.04Z" transform="translate(-1823.39865 -176.14109)"/><path class="7c04cc22-114c-47f8-93f9-d2f3f73d26dd" d="M1850.57412,205.90517l7.974,4.6061a1.79985,1.79985,0,0,0-.16444.27628l-7.96738-4.59954A1.82763,1.82763,0,0,0,1850.57412,205.90517Z" transform="translate(-1823.39865 -176.14109)"/><path class="7c04cc22-114c-47f8-93f9-d2f3f73d26dd" d="M1869.9096,217.071a1.81374,1.81374,0,0,0-.16115.27956l-8.11373-4.685a1.82861,1.82861,0,0,0,.15787-0.28285Z" transform="translate(-1823.39865 -176.14109)"/><path class="7c04cc22-114c-47f8-93f9-d2f3f73d26dd" d="M1847.3066,190.93571a1.82067,1.82067,0,0,0-.15951.28121l-8.13511-4.69656a1.674,1.674,0,0,0,.19241-0.26147Z" transform="translate(-1823.39865 -176.14109)"/><path class="7c04cc22-114c-47f8-93f9-d2f3f73d26dd" d="M1850.55768,192.81367l7.95093,4.58967a1.82762,1.82762,0,0,0-.15458.28449l-7.96079-4.59625A1.95938,1.95938,0,0,0,1850.55768,192.81367Z" transform="translate(-1823.39865 -176.14109)"/><path class="7c04cc22-114c-47f8-93f9-d2f3f73d26dd" d="M1869.96058,204.01568a1.756,1.756,0,0,0-.15458.2845l-8.2124-4.74261a1.81829,1.81829,0,0,0,.16774-0.27627Z" transform="translate(-1823.39865 -176.14109)"/><path class="7c04cc22-114c-47f8-93f9-d2f3f73d26dd" d="M1836.05361,210.69874a1.83358,1.83358,0,0,0-.13813.23187l-8.11044-4.68341a2.0615,2.0615,0,0,0,.15458-0.222Z" transform="translate(-1823.39865 -176.14109)"/><path class="7c04cc22-114c-47f8-93f9-d2f3f73d26dd" d="M1847.2178,217.145a1.82981,1.82981,0,0,0-.11511.24338l-7.93119-4.5798a1.71462,1.71462,0,0,0,.12991-0.23516Z" transform="translate(-1823.39865 -176.14109)"/><path class="7c04cc22-114c-47f8-93f9-d2f3f73d26dd" d="M1858.58426,223.70637a1.56472,1.56472,0,0,0-.148.22529l-8.11373-4.68505a1.43781,1.43781,0,0,0,.15458-0.22035Z" transform="translate(-1823.39865 -176.14109)"/><path class="7c04cc22-114c-47f8-93f9-d2f3f73d26dd" d="M1835.95494,212.69676l-7.95586,4.593a1.84309,1.84309,0,0,0-.17925-0.27134l8.00027-4.61926A1.9403,1.9403,0,0,0,1835.95494,212.69676Z" transform="translate(-1823.39865 -176.14109)"/><path class="7c04cc22-114c-47f8-93f9-d2f3f73d26dd" d="M1847.28029,206.15841l-8.066,4.65709a1.69631,1.69631,0,0,0-.18912-0.2664l8.10222-4.67682A1.83582,1.83582,0,0,0,1847.28029,206.15841Z" transform="translate(-1823.39865 -176.14109)"/><path class="7c04cc22-114c-47f8-93f9-d2f3f73d26dd" d="M1847.3,219.12327l-8.1828,4.72452a1.77881,1.77881,0,0,0-.1628-0.2368l8.20418-4.736A1.61067,1.61067,0,0,0,1847.3,219.12327Z" transform="translate(-1823.39865 -176.14109)"/><path class="7c04cc22-114c-47f8-93f9-d2f3f73d26dd" d="M1858.36883,212.40076a1.88281,1.88281,0,0,0,.13978.2516l-7.9575,4.5946a1.78,1.78,0,0,0-.14471-0.24831Z" transform="translate(-1823.39865 -176.14109)"/><path class="7c04cc22-114c-47f8-93f9-d2f3f73d26dd" d="M1869.93592,206.05481l-8.17293,4.71794a1.83817,1.83817,0,0,0-.14636-0.24667l8.18609-4.72616A1.78518,1.78518,0,0,0,1869.93592,206.05481Z" transform="translate(-1823.39865 -176.14109)"/><path class="7c04cc22-114c-47f8-93f9-d2f3f73d26dd" d="M1835.99441,199.61677l-7.96408,4.59789a1.89,1.89,0,0,0-.16774-0.27791l7.98546-4.6094A1.64731,1.64731,0,0,0,1835.99441,199.61677Z" transform="translate(-1823.39865 -176.14109)"/><path class="7c04cc22-114c-47f8-93f9-d2f3f73d26dd" d="M1847.31483,193.08007l-8.06276,4.65545a1.98536,1.98536,0,0,0-.17925-0.27133l8.08084-4.66531A1.70381,1.70381,0,0,0,1847.31483,193.08007Z" transform="translate(-1823.39865 -176.14109)"/><path class="7c04cc22-114c-47f8-93f9-d2f3f73d26dd" d="M1858.6599,186.53022l-8.09728,4.67518a1.7127,1.7127,0,0,0-.16281-0.28121l8.09893-4.67518A1.97768,1.97768,0,0,0,1858.6599,186.53022Z" transform="translate(-1823.39865 -176.14109)"/><path class="d6876db1-4b10-44c1-bd97-b851451a8c7f" d="M1848.96421,207.00694v9.18592c-0.05427-.00494-0.10854-0.00658-0.16281-0.00658s-0.10853.00165-.16115,0.00658v-9.18592c0.05262,0.00494.10689,0.00658,0.16115,0.00658S1848.90994,207.01188,1848.96421,207.00694Z" transform="translate(-1823.39865 -176.14109)"/><path class="d6876db1-4b10-44c1-bd97-b851451a8c7f" d="M1848.96421,219.94386v9.37338c-0.05427-.00494-0.10854-0.00658-0.16281-0.00658s-0.10853.00165-.16115,0.00658v-9.37338c0.05262,0.00493.10689,0.00657,0.16115,0.00657S1848.90994,219.94879,1848.96421,219.94386Z" transform="translate(-1823.39865 -176.14109)"/><path class="d6876db1-4b10-44c1-bd97-b851451a8c7f" d="M1826.45329,193.77733v9.403c-0.05262-.00494-0.10689-0.00658-0.16115-0.00658s-0.10854.00165-.16281,0.00658v-9.403c0.05427,0.00493.10854,0.00657,0.16281,0.00657S1826.40067,193.78225,1826.45329,193.77733Z" transform="translate(-1823.39865 -176.14109)"/><path class="d6876db1-4b10-44c1-bd97-b851451a8c7f" d="M1826.45329,206.9313v9.38489c-0.05262-.00494-0.10689-0.00658-0.16115-0.00658s-0.10854.00165-.16281,0.00658V206.9313c0.05427,0.00493.10854,0.00657,0.16281,0.00657S1826.40067,206.93623,1826.45329,206.9313Z" transform="translate(-1823.39865 -176.14109)"/><path class="d6876db1-4b10-44c1-bd97-b851451a8c7f" d="M1871.63628,193.87764v9.30267c-0.05427-.00494-0.10854-0.00658-0.1628-0.00658s-0.10854.00165-.16116,0.00658v-9.30267c0.05262,0.00493.10689,0.00657,0.16116,0.00657S1871.582,193.88256,1871.63628,193.87764Z" transform="translate(-1823.39865 -176.14109)"/><path class="d6876db1-4b10-44c1-bd97-b851451a8c7f" d="M1871.47348,206.93788c0.05426,0,.10853-0.00165.1628-0.00657v9.34706a1.86855,1.86855,0,0,0-.2368-0.01479c-0.0296,0-.05756,0-0.08716.00165V206.9313C1871.36494,206.93623,1871.41921,206.93788,1871.47348,206.93788Z" transform="translate(-1823.39865 -176.14109)"/><path class="d6876db1-4b10-44c1-bd97-b851451a8c7f" d="M1827.91357,192.85478l8.10058,4.67682a1.82563,1.82563,0,0,0-.16609.27791l-8.1236-4.68834A1.86408,1.86408,0,0,0,1827.91357,192.85478Z" transform="translate(-1823.39865 -176.14109)"/><path class="d6876db1-4b10-44c1-bd97-b851451a8c7f" d="M1847.27371,204.03378a1.7402,1.7402,0,0,0-.16445.27791l-8.00849-4.6242a1.96685,1.96685,0,0,0,.15622-0.28285Z" transform="translate(-1823.39865 -176.14109)"/><path class="d6876db1-4b10-44c1-bd97-b851451a8c7f" d="M1850.53137,179.64818l8.10387,4.68012a1.96171,1.96171,0,0,0-.16774.27627h-0.00165l-8.08906-4.67025A1.84379,1.84379,0,0,0,1850.53137,179.64818Z" transform="translate(-1823.39865 -176.14109)"/><path class="d6876db1-4b10-44c1-bd97-b851451a8c7f" d="M1869.96881,190.87157a1.87393,1.87393,0,0,0-.171.27463l-8.07592-4.662a1.83405,1.83405,0,0,0,.15293-0.28613Z" transform="translate(-1823.39865 -176.14109)"/><path class="d6876db1-4b10-44c1-bd97-b851451a8c7f" d="M1858.37047,199.34872a1.8734,1.8734,0,0,0,.17925.26969l-8.071,4.66038a1.83775,1.83775,0,0,0-.171-0.27627Z" transform="translate(-1823.39865 -176.14109)"/><path class="d6876db1-4b10-44c1-bd97-b851451a8c7f" d="M1869.91454,193.05706l-8.14169,4.70149a1.71386,1.71386,0,0,0-.14471-0.29106l8.13018-4.69492A1.70823,1.70823,0,0,0,1869.91454,193.05706Z" transform="translate(-1823.39865 -176.14109)"/><path class="d6876db1-4b10-44c1-bd97-b851451a8c7f" d="M1836.06348,186.44635l-8.06768,4.65874a1.84521,1.84521,0,0,0-.16116-0.28285l8.05125-4.64723A1.83246,1.83246,0,0,0,1836.06348,186.44635Z" transform="translate(-1823.39865 -176.14109)"/><path class="d6876db1-4b10-44c1-bd97-b851451a8c7f" d="M1847.25892,179.982l-7.969,4.60118a1.76929,1.76929,0,0,0-.14636-0.28943l7.95422-4.59131A1.81462,1.81462,0,0,0,1847.25892,179.982Z" transform="translate(-1823.39865 -176.14109)"/><path class="d6876db1-4b10-44c1-bd97-b851451a8c7f" d="M1827.94317,219.09367l7.96408,4.59789a1.89843,1.89843,0,0,0-.16609.27956l-7.97724-4.60611A1.84309,1.84309,0,0,0,1827.94317,219.09367Z" transform="translate(-1823.39865 -176.14109)"/><path class="d6876db1-4b10-44c1-bd97-b851451a8c7f" d="M1847.19806,230.21018a1.722,1.722,0,0,0-.14635.29106l-8.05782-4.65215a1.98533,1.98533,0,0,0,.15622-0.28449Z" transform="translate(-1823.39865 -176.14109)"/><path class="d6876db1-4b10-44c1-bd97-b851451a8c7f" d="M1858.26852,225.53993a1.8396,1.8396,0,0,0,.14307.29107l-7.90488,4.56336a1.95871,1.95871,0,0,0-.16116-0.27956Z" transform="translate(-1823.39865 -176.14109)"/><path class="d6876db1-4b10-44c1-bd97-b851451a8c7f" d="M1869.857,219.22359l-8.18609,4.72616a1.7607,1.7607,0,0,0-.17924-0.27134l8.20253-4.736A1.83892,1.83892,0,0,0,1869.857,219.22359Z" transform="translate(-1823.39865 -176.14109)"/><path class="f11cf8ff-b396-4d0c-9f64-2ed2164b7cb1" d="M1848.88156,208.1771c-0.08936,0-.17871-0.00342-0.26562-0.01172a3.0252,3.0252,0,0,1-2.28711-1.37256,2.98809,2.98809,0,0,1-.24756-0.46338,3.041,3.041,0,0,1-.24512-1.19824,2.99568,2.99568,0,0,1,.30664-1.32959,2.79137,2.79137,0,0,1,.26563-0.44775,3.04247,3.04247,0,0,1,2.21338-1.25928c0.08105-.00781.17041-0.01074,0.25977-0.01074s0.17773,0.00244.2666,0.01074a3.05054,3.05054,0,0,1,2.17139,1.2085,3.07027,3.07027,0,0,1,.60986,1.82813,3.009,3.009,0,0,1-.26953,1.25293,2.92125,2.92125,0,0,1-.25684.459,3.03683,3.03683,0,0,1-2.25928,1.32275C1849.0593,208.17417,1848.97092,208.1771,1848.88156,208.1771Z" transform="translate(-1823.39865 -176.14109)"/><path class="4048e2c5-2738-4b3e-83af-ce10964afde8" d="M1848.88169,202.58383c0.07349,0,.14685.0022,0.22034,0.00891a2.54788,2.54788,0,0,1,1.81775,1.01013,2.49294,2.49294,0,0,1,.23144.37378,2.541,2.541,0,0,1,.05335,2.20056,2.47791,2.47791,0,0,1-.2135.38269,2.55049,2.55049,0,0,1-1.889,1.108c-0.07349.00671-.14685,0.00891-0.22034,0.00891s-0.14685-.0022-0.218-0.00891a2.54693,2.54693,0,0,1-1.91577-1.14807,2.4887,2.4887,0,0,1-.20691-0.38721,2.54113,2.54113,0,0,1-.20471-1.00122,2.51208,2.51208,0,0,1,.25586-1.11023,2.35606,2.35606,0,0,1,.22253-0.3761,2.54265,2.54265,0,0,1,1.849-1.05237c0.07117-.00671.14465-0.00891,0.218-0.00891m0-1c-0.105,0-.21008.00378-0.31189,0.01331a3.53531,3.53531,0,0,0-2.56677,1.46387,3.331,3.331,0,0,0-.31689.537,3.47135,3.47135,0,0,0-.34985,1.53345,3.54512,3.54512,0,0,0,3.24182,3.53284c0.09351,0.00879.19861,0.01257,0.30359,0.01257,0.10376,0,.2074-0.00354.31128-0.01306a3.534,3.534,0,0,0,2.62415-1.54028,3.54245,3.54245,0,0,0,.22388-3.60315,3.40564,3.40564,0,0,0-.3158-0.51025,3.55836,3.55836,0,0,0-2.53674-1.41357c-0.09937-.00916-0.203-0.0127-0.30676-0.0127h0Z" transform="translate(-1823.39865 -176.14109)"/><path class="a4ee8926-36c6-4b99-88ca-c2cb60691623" d="M1848.88205,194.63755c-0.07617,0-.15234-0.00244-0.22656-0.00928a2.619,2.619,0,0,1-1.92236-1.11084,2.42567,2.42567,0,0,1-.22754-0.39746,2.549,2.549,0,0,1-.24463-1.10352,2.60888,2.60888,0,0,1,.23828-1.09473,2.56917,2.56917,0,0,1,.22119-0.39111,2.61916,2.61916,0,0,1,1.9375-1.12793c0.07178-.00684.14795-0.00928,0.22412-0.00928s0.15186,0.00244.22754,0.00928a2.618,2.618,0,0,1,1.92139,1.11084,2.40373,2.40373,0,0,1,.23047.39941,2.62876,2.62876,0,0,1-.01025,2.23242,2.77049,2.77049,0,0,1-.23.38867,2.62943,2.62943,0,0,1-1.91211,1.09424C1849.03391,194.6351,1848.95822,194.63755,1848.88205,194.63755Z" transform="translate(-1823.39865 -176.14109)"/><path class="4048e2c5-2738-4b3e-83af-ce10964afde8" d="M1848.88217,189.8934c0.06116,0,.12232.00183,0.18359,0.00732a2.12333,2.12333,0,0,1,1.55566.89929,1.93236,1.93236,0,0,1,.18347.31714,2.08615,2.08615,0,0,1,.20032.89917,2.11928,2.11928,0,0,1-.20581.91418,2.21948,2.21948,0,0,1-.18543.31335,2.13107,2.13107,0,0,1-1.54822.88623c-0.06128.00562-.12244,0.00745-0.18359,0.00745s-0.12244-.00183-0.18176-0.00745a2.12288,2.12288,0,0,1-1.5575-.89917,1.92264,1.92264,0,0,1-.18164-0.31714,2.07859,2.07859,0,0,1-.20032-0.89746,2.11929,2.11929,0,0,1,.19287-0.88623,2.05209,2.05209,0,0,1,.17981-0.317,2.12275,2.12275,0,0,1,1.56677-.91235c0.05933-.00549.12061-0.00732,0.18176-0.00732m0-1c-0.09216,0-.18445.0033-0.27393,0.0116a3.11073,3.11073,0,0,0-2.29773,1.34033,3.06218,3.06218,0,0,0-.26856.47437,3.09388,3.09388,0,0,0-.281,1.29663,3.06114,3.06114,0,0,0,.29761,1.32764,2.86771,2.86771,0,0,0,.26624.462,3.11572,3.11572,0,0,0,2.28979,1.32043c0.08166,0.00769.17468,0.01111,0.26758,0.01111,0.09155,0,.18311-0.00317.2749-0.0116a3.12506,3.12506,0,0,0,2.27063-1.30078,3.23084,3.23084,0,0,0,.26892-0.453,3.1256,3.1256,0,0,0,.011-2.6853,2.842,2.842,0,0,0-.26807-0.46191,3.11546,3.11546,0,0,0-2.2876-1.32056c-0.088-.00781-0.17883-0.011-0.26978-0.011h0Z" transform="translate(-1823.39865 -176.14109)"/><path class="34c0512e-f5a4-4f10-9b48-8eaef683fef1" d="M1848.88205,181.8851c-0.07812,0-.15576-0.00244-0.231-0.00977a2.61018,2.61018,0,0,1-1.91846-1.11279,2.49583,2.49583,0,0,1-.2251-0.39014,2.62194,2.62194,0,1,1,4.99756-1.10986,2.6263,2.6263,0,0,1-2.397,2.61328C1849.03586,181.88266,1848.95871,181.8851,1848.88205,181.8851Z" transform="translate(-1823.39865 -176.14109)"/><path class="4048e2c5-2738-4b3e-83af-ce10964afde8" d="M1848.88193,177.14109a2.1224,2.1224,0,0,1,2.123,2.12122,2.12727,2.12727,0,0,1-1.93957,2.1156c-0.06116.00562-.12232,0.00745-0.18347,0.00745s-0.12244-.00183-0.18176-0.00745a2.11929,2.11929,0,0,1-1.5575-.90112,2.05485,2.05485,0,0,1-.18176-0.31519,2.121,2.121,0,0,1,1.921-3.02051m0-1a3.121,3.121,0,0,0-2.82629,4.44531,3.0199,3.0199,0,0,0,.26929.46582,3.11077,3.11077,0,0,0,2.28943,1.322c0.08167,0.00769.17456,0.01111,0.26758,0.01111,0.09168,0,.18335-0.00317.275-0.0116a3.12237,3.12237,0,0,0-.275-6.23267h0Z" transform="translate(-1823.39865 -176.14109)"/><path class="598d3e38-2eb2-4d41-9dc0-b358c7088317" d="M1848.88205,220.67758c-0.07617,0-.15234-0.00244-0.22656-0.00928a2.60611,2.60611,0,0,1-1.94336-1.14307,2.3137,2.3137,0,0,1-.20117-0.355,2.61892,2.61892,0,0,1-.07324-2.0625,2.62143,2.62143,0,0,1,2.22022-1.665c0.07178-.00684.14795-0.00928,0.22412-0.00928s0.15186,0.00244.22754,0.00928a2.61246,2.61246,0,0,1,1.93018,1.12256,2.4078,2.4078,0,0,1,.20508.35205,2.57013,2.57013,0,0,1,.26025,1.13721,2.61515,2.61515,0,0,1-.3667,1.33691,2.15656,2.15656,0,0,1-.22314.31641,2.61577,2.61577,0,0,1-1.80566.96045C1849.03391,220.67514,1848.95822,220.67758,1848.88205,220.67758Z" transform="translate(-1823.39865 -176.14109)"/><path class="4048e2c5-2738-4b3e-83af-ce10964afde8" d="M1848.88217,215.93332c0.06116,0,.12232.00183,0.18359,0.00745a2.12,2.12,0,0,1,1.563.90845,2.0068,2.0068,0,0,1,.16321.28,2.11565,2.11565,0,0,1-.0835,2.00623,1.62541,1.62541,0,0,1-.17419.24841,2.11267,2.11267,0,0,1-1.46851.78625c-0.06128.00549-.12244,0.00732-0.18359,0.00732s-0.12244-.00183-0.18176-0.00732a2.11863,2.11863,0,0,1-1.57422-.92529,1.82238,1.82238,0,0,1-.15942-0.27991,2.12026,2.12026,0,0,1-.063-1.67627,2.07407,2.07407,0,0,1,.12976-0.27441,2.12066,2.12066,0,0,1,1.66687-1.07349c0.05933-.00562.12061-0.00745,0.18176-0.00745m0-1c-0.09289,0-.18591.00342-0.27612,0.012a3.11445,3.11445,0,0,0-2.4436,1.57788,3.05775,3.05775,0,0,0-.18945.3999,3.12014,3.12014,0,0,0,.09094,2.4718,2.773,2.773,0,0,0,.238.41626,3.10111,3.10111,0,0,0,2.31372,1.35547c0.082,0.00757.17432,0.01086,0.26648,0.01086,0.09094,0,.18176-0.00317.27283-0.01135a3.12624,3.12624,0,0,0,2.16113-1.15869,2.51014,2.51014,0,0,0,.25952-0.374,3.11542,3.11542,0,0,0,.11438-2.94409,2.94246,2.94246,0,0,0-.23731-0.40674,3.11483,3.11483,0,0,0-2.30164-1.33813c-0.08582-.00793-0.17737-0.01111-0.26892-0.01111h0Z" transform="translate(-1823.39865 -176.14109)"/><path class="d6788c3b-4270-491d-b73e-f8bc4609078b" d="M1848.88205,233.45737a2.62548,2.62548,0,0,1-2.62158-2.623,2.59056,2.59056,0,0,1,.18408-0.96387,2.39676,2.39676,0,0,1,.20508-0.40771,2.62248,2.62248,0,0,1,2.0083-1.24023c0.0708-.00684.14746-0.00928,0.22412-0.00928,0.07568,0,.15088.00244,0.22705,0.00928a2.61538,2.61538,0,0,1,1.92334,1.11084,2.74572,2.74572,0,0,1,.2251.38916A2.62257,2.62257,0,0,1,1848.88205,233.45737Z" transform="translate(-1823.39865 -176.14109)"/><path class="4048e2c5-2738-4b3e-83af-ce10964afde8" d="M1848.88193,228.71311c0.06116,0,.12232.00183,0.18347,0.00745a2.12613,2.12613,0,0,1,1.5575.89929,2.19942,2.19942,0,0,1,.18176.31519,2.12216,2.12216,0,1,1-4.04395.89929,2.09359,2.09359,0,0,1,.14832-0.77881,1.93769,1.93769,0,0,1,.165-0.32812,2.11542,2.11542,0,0,1,1.6261-1.00684c0.05933-.00562.12048-0.00745,0.18176-0.00745m0-1c-0.093,0-.18579.00342-0.27588,0.01184a3.12318,3.12318,0,0,0-2.386,1.48218,2.90887,2.90887,0,0,0-.24353.48718,3.06821,3.06821,0,0,0-.21582,1.14,3.12213,3.12213,0,1,0,5.94922-1.3241,3.16962,3.16962,0,0,0-.26221-0.45581,3.12222,3.12222,0,0,0-2.29626-1.3302c-0.0863-.00793-0.178-0.01111-0.26953-0.01111h0Z" transform="translate(-1823.39865 -176.14109)"/><path class="f8b0758f-c5d9-4e62-aa90-a23635cf5bbd" d="M1859.947,227.20444a2.62125,2.62125,0,0,1-2.28369-3.90771,2.21433,2.21433,0,0,1,.21-0.31738,2.62291,2.62291,0,0,1,4.12353-.03467,2.48578,2.48578,0,0,1,.25342.38525,2.59922,2.59922,0,0,1,.31982,1.25146A2.6261,2.6261,0,0,1,1859.947,227.20444Z" transform="translate(-1823.39865 -176.14109)"/><path class="4048e2c5-2738-4b3e-83af-ce10964afde8" d="M1859.94687,222.46042a2.11952,2.11952,0,0,1,1.65955.79736,1.98009,1.98009,0,0,1,.20215.30591,2.09855,2.09855,0,0,1,.26135,1.01794,2.12272,2.12272,0,0,1-3.9364,1.10327,2.07274,2.07274,0,0,1-.16126-0.32825,2.11793,2.11793,0,0,1,.1261-1.81335,1.74857,1.74857,0,0,1,.16687-0.254,2.11376,2.11376,0,0,1,1.68164-.82886m0-1a3.09845,3.09845,0,0,0-2.47473,1.21973,2.71368,2.71368,0,0,0-.25354.3877,3.12049,3.12049,0,0,0,2.72827,4.63684,3.121,3.121,0,0,0,2.73718-4.62427,2.93765,2.93765,0,0,0-.29871-0.44971,3.11084,3.11084,0,0,0-2.43848-1.17029h0Z" transform="translate(-1823.39865 -176.14109)"/><path class="1a4188e0-7d10-44e2-93a5-210b4451f770" d="M1859.947,214.14878a2.61576,2.61576,0,0,1-2.38037-1.5249,2.58731,2.58731,0,0,1-.24072-1.09814,2.61536,2.61536,0,0,1,.26416-1.147,2.508,2.508,0,0,1,.228-0.38232,2.62148,2.62148,0,0,1,4.752,1.5293,2.63679,2.63679,0,0,1-.45215,1.47266A2.62429,2.62429,0,0,1,1859.947,214.14878Z" transform="translate(-1823.39865 -176.14109)"/><path class="4048e2c5-2738-4b3e-83af-ce10964afde8" d="M1859.94687,209.40464a2.12751,2.12751,0,0,1,1.73743.89929,2.07183,2.07183,0,0,1,.165.2782,2.12543,2.12543,0,0,1,.03333,1.81519,2.06711,2.06711,0,0,1-.178.319,2.12211,2.12211,0,0,1-3.66565-2.11755,2.02915,2.02915,0,0,1,.1853-0.31152,2.1203,2.1203,0,0,1,1.72253-.88257m0-1a3.134,3.134,0,0,0-2.53308,1.297,3.04238,3.04238,0,0,0-.2782.46851,3.12151,3.12151,0,0,0-.01977,2.6698,3.03967,3.03967,0,0,0,.22693.40833,3.122,3.122,0,0,0,5.18884.03027,3.12539,3.12539,0,0,0,.53833-1.75269,3.13881,3.13881,0,0,0-.325-1.38867,3.08011,3.08011,0,0,0-.24206-0.40759,3.1392,3.1392,0,0,0-2.556-1.325h0Z" transform="translate(-1823.39865 -176.14109)"/><path class="c13d649f-5734-4e47-a648-6694cdd02df3" d="M1860.08908,201.07407a2.60212,2.60212,0,0,1-2.04883-.98828,2.53809,2.53809,0,0,1-.24853-0.374,2.60889,2.60889,0,0,1-.32373-1.26074,2.55542,2.55542,0,0,1,.22461-1.05859,2.45537,2.45537,0,0,1,.21191-0.38916,2.62169,2.62169,0,0,1,4.42578.08691,2.44588,2.44588,0,0,1,.20166.40674,2.58432,2.58432,0,0,1,.18018.9541,2.61431,2.61431,0,0,1-.27539,1.16846,2.49412,2.49412,0,0,1-.23437.38477A2.62834,2.62834,0,0,1,1860.08908,201.07407Z" transform="translate(-1823.39865 -176.14109)"/><path class="4048e2c5-2738-4b3e-83af-ce10964afde8" d="M1860.08933,196.32981a2.116,2.116,0,0,1,1.81335,1.01978,1.93523,1.93523,0,0,1,.16321.32825,2.113,2.113,0,0,1-.076,1.71692,2.045,2.045,0,0,1-.18909.31152,2.12211,2.12211,0,0,1-3.83264-1.25525,2.14387,2.14387,0,0,1,.35413-1.17371,2.11863,2.11863,0,0,1,1.76709-.94751m0-1a3.11656,3.11656,0,0,0-2.59949,1.39343,3.14188,3.14188,0,0,0-.52173,1.72778,3.12134,3.12134,0,0,0,5.6394,1.84619,3.06,3.06,0,0,0,.28015-0.462,3.11313,3.11313,0,0,0,.10828-2.52478,2.93542,2.93542,0,0,0-.24536-0.491,3.09045,3.09045,0,0,0-2.66125-1.48962h0Z" transform="translate(-1823.39865 -176.14109)"/><path class="acfdc91d-6e50-4ce7-8914-dcb09e2039e2" d="M1860.072,188.34262a2.62491,2.62491,0,0,1-2.14893-1.12012,2.7423,2.7423,0,0,1-.22559-0.39307,2.6218,2.6218,0,0,1,.03272-2.28955,2.90418,2.90418,0,0,1,.23145-0.37793,2.62367,2.62367,0,0,1,4.7334,1.55762,2.58012,2.58012,0,0,1-.21631,1.042A2.61122,2.61122,0,0,1,1860.072,188.34262Z" transform="translate(-1823.39865 -176.14109)"/><path class="4048e2c5-2738-4b3e-83af-ce10964afde8" d="M1860.07187,183.59812a2.12229,2.12229,0,0,1,2.12293,2.12122,2.09216,2.09216,0,0,1-.17419.8418,2.06406,2.06406,0,0,1-.17249.32263,2.12322,2.12322,0,0,1-3.5155.05188,2.2374,2.2374,0,0,1-.18176-0.317,2.12431,2.12431,0,0,1,.026-1.85413h0.00183a2.21494,2.21494,0,0,1,.18909-0.31152,2.12205,2.12205,0,0,1,1.7041-.85486m0-1a3.14169,3.14169,0,0,0-2.43542,1.16638h-0.07385l-0.27893.55029a3.1243,3.1243,0,0,0-.03809,2.72864,3.24507,3.24507,0,0,0,.26221.45752,3.1232,3.1232,0,0,0,5.17529-.06677,3.149,3.149,0,0,0,.51172-1.71484,3.12563,3.12563,0,0,0-3.12293-3.12122h0Z" transform="translate(-1823.39865 -176.14109)"/><path class="cd751faa-7f63-4c42-b241-cd59048d5a25" d="M1837.77658,188.17221a2.61411,2.61411,0,0,1-2.05908-.99609,2.54345,2.54345,0,0,1-.249-0.38135,2.62161,2.62161,0,0,1,4.54-2.61865,2.56042,2.56042,0,0,1,.2041.40527,2.624,2.624,0,0,1-.19824,2.3335,2.35651,2.35651,0,0,1-.271.36816A2.61541,2.61541,0,0,1,1837.77658,188.17221Z" transform="translate(-1823.39865 -176.14109)"/><path class="4048e2c5-2738-4b3e-83af-ce10964afde8" d="M1837.77658,183.42783a2.117,2.117,0,0,1,1.80591,1.0105,1.997,1.997,0,0,1,.165.32642,2.12575,2.12575,0,0,1-.15942,1.8894,1.88369,1.88369,0,0,1-.217.2948,2.12273,2.12273,0,0,1-3.26148-.0835,2.05949,2.05949,0,0,1-.2002-0.30591,2.09927,2.09927,0,0,1-.25586-1.00867,2.12271,2.12271,0,0,1,2.123-2.123m0-1a3.1215,3.1215,0,0,0-2.74451,4.61145,3.03419,3.03419,0,0,0,.29272.44592,3.12268,3.12268,0,0,0,4.79907.12195,2.85434,2.85434,0,0,0,.32288-0.44043,3.12576,3.12576,0,0,0,.23023-2.771,2.99657,2.99657,0,0,0-.24658-0.48755,3.09622,3.09622,0,0,0-2.65381-1.48035h0Z" transform="translate(-1823.39865 -176.14109)"/><path class="e9e25e78-edae-4ba6-ad08-61ff3843c215" d="M1837.77658,201.07407a2.6047,2.6047,0,0,1-2.23437-1.25049,2.41812,2.41812,0,0,1-.20459-0.40674,2.61614,2.61614,0,0,1-.18408-0.96582,2.62018,2.62018,0,0,1,.49756-1.53662,2.62331,2.62331,0,0,1,4.18066-.09033,2.6705,2.6705,0,0,1,.248.37549,2.62445,2.62445,0,0,1,.08643,2.32959,2.80814,2.80814,0,0,1-.21533.38867A2.627,2.627,0,0,1,1837.77658,201.07407Z" transform="translate(-1823.39865 -176.14109)"/><path class="4048e2c5-2738-4b3e-83af-ce10964afde8" d="M1837.77658,196.32981a2.11627,2.11627,0,0,1,1.66309.80469,2.23714,2.23714,0,0,1,.20215.306,2.12249,2.12249,0,0,1,.0686,1.882,2.22207,2.22207,0,0,1-.17615.319,2.12145,2.12145,0,0,1-3.56555-.07983,1.84657,1.84657,0,0,1-.165-0.32629,2.12345,2.12345,0,0,1-.15015-0.7843,2.10228,2.10228,0,0,1,.21313-0.92712,2.05878,2.05878,0,0,1,.18738-0.31335,2.1209,2.1209,0,0,1,1.72253-.88074m0-1a3.13287,3.13287,0,0,0-2.5332,1.29529,3.00136,3.00136,0,0,0-.27393.45715,3.12347,3.12347,0,0,0-.09521,2.52209,2.8278,2.8278,0,0,0,.2511.49463,3.091,3.091,0,0,0,2.65125,1.4751,3.12379,3.12379,0,0,0,2.5846-1.37036,3.2443,3.2443,0,0,0,.26123-0.47095,3.081,3.081,0,0,0,.27527-1.28174,3.126,3.126,0,0,0-.3772-1.488,3.28009,3.28009,0,0,0-.29565-0.44775,3.1046,3.1046,0,0,0-2.44824-1.18542h0Z" transform="translate(-1823.39865 -176.14109)"/><path class="6d612b21-50e9-4711-bcc5-eac3d41b685e" d="M1837.77658,214.119a2.62913,2.62913,0,0,1-2.28857-1.33984,2.712,2.712,0,0,1-.188-0.4165,2.65049,2.65049,0,0,1-.14648-0.8667,2.62258,2.62258,0,0,1,.27978-1.17871,2.48068,2.48068,0,0,1,.19141-0.3208,2.62274,2.62274,0,0,1,4.13916-.209,2.36664,2.36664,0,0,1,.26953.377,2.61791,2.61791,0,0,1,.1167,2.44336,2.42826,2.42826,0,0,1-.18311.33008A2.61809,2.61809,0,0,1,1837.77658,214.119Z" transform="translate(-1823.39865 -176.14109)"/><path class="4048e2c5-2738-4b3e-83af-ce10964afde8" d="M1837.77658,209.37461a2.11055,2.11055,0,0,1,1.60754.738h0.00183a1.9173,1.9173,0,0,1,.21326.30042,2.08667,2.08667,0,0,1,.29846,1.08276,2.11526,2.11526,0,0,1-.2002.89929,1.94308,1.94308,0,0,1-.14648.26514,2.12286,2.12286,0,0,1-3.62683-.1261,2.186,2.186,0,0,1-.152-0.33557,2.1497,2.1497,0,0,1-.11865-0.70276,2.10457,2.10457,0,0,1,.2262-0.953,2.06525,2.06525,0,0,1,.15576-0.26147,2.12118,2.12118,0,0,1,1.74109-.90674m0-1a3.12663,3.12663,0,0,0-2.56055,1.33362,3.07163,3.07163,0,0,0-.23462.39514,3.10889,3.10889,0,0,0-.32788,1.39246,3.12256,3.12256,0,0,0,5.73242,1.71484,2.9438,2.9438,0,0,0,.21985-0.39722,3.11636,3.11636,0,0,0-.1499-2.91626,2.84789,2.84789,0,0,0-.31189-0.43677l-0.29919-.34778h-0.05237a3.114,3.114,0,0,0-2.01587-.738h0Z" transform="translate(-1823.39865 -176.14109)"/><path class="54f425d8-d577-4f9f-a3ee-44994bbb119b" d="M1837.66916,227.14487a2.62231,2.62231,0,1,1,2.041-4.269,2.58412,2.58412,0,0,1,.22656.3291,2.62037,2.62037,0,0,1,.124,2.39453,2.71093,2.71093,0,0,1-.21387.38818A2.63365,2.63365,0,0,1,1837.66916,227.14487Z" transform="translate(-1823.39865 -176.14109)"/><path class="4048e2c5-2738-4b3e-83af-ce10964afde8" d="M1837.66928,222.40048a2.11753,2.11753,0,0,1,1.652.78979,2.00087,2.00087,0,0,1,.18359.26709,2.11649,2.11649,0,0,1,.1001,1.93567,2.22888,2.22888,0,0,1-.17615.3208,2.12372,2.12372,0,0,1-3.88074-1.19043,2.10145,2.10145,0,0,1,.21326-0.927,2.14,2.14,0,0,1,.18726-0.31531,2.11736,2.11736,0,0,1,1.7207-.88062m0-1a3.12207,3.12207,0,1,0,2.58521,4.87744,3.24663,3.24663,0,0,0,.265-0.48047,3.06651,3.06651,0,0,0,.27283-1.274,3.11038,3.11038,0,0,0-.42468-1.57153,2.98169,2.98169,0,0,0-.2738-0.39648,3.10546,3.10546,0,0,0-2.42456-1.15491h0Z" transform="translate(-1823.39865 -176.14109)"/><path class="344ddcf0-f65a-4e0d-b092-77b5b1c7e32b" d="M1871.17111,220.58872a2.62388,2.62388,0,0,1-2.623-2.623,2.58514,2.58514,0,0,1,.24561-1.10791,2.53619,2.53619,0,0,1,.22656-0.3916A2.63671,2.63671,0,0,1,1871.05,215.347l0.12109-.00244A2.62207,2.62207,0,0,1,1871.17111,220.58872Z" transform="translate(-1823.39865 -176.14109)"/><path class="4048e2c5-2738-4b3e-83af-ce10964afde8" d="M1871.17111,215.84445a2.0878,2.0878,0,0,1,.26709.01672,2.12218,2.12218,0,1,1-2.00622,3.3208,2.06284,2.06284,0,0,1-.18359-0.317,2.11935,2.11935,0,0,1-.00183-1.79492,2.04409,2.04409,0,0,1,.18164-0.31519,2.12373,2.12373,0,0,1,1.64465-.90857c0.03345-.00183.06494-0.00183,0.09827-0.00183m0-1c-0.05188,0-.10083.00049-0.153,0.0033a3.1391,3.1391,0,0,0-2.41065,1.33569,3.0234,3.0234,0,0,0-.26721.46375,3.08262,3.08262,0,0,0-.29224,1.31848,3.13713,3.13713,0,0,0,.295,1.3241,3.07187,3.07187,0,0,0,.27148.46838,3.12173,3.12173,0,1,0,2.94849-4.88916,3.07567,3.07567,0,0,0-.392-0.02454h0Z" transform="translate(-1823.39865 -176.14109)"/><path class="c05d4cee-e28a-4e57-b6c2-ddfd7486011e" d="M1871.24387,207.67758c-0.07764,0-.15576-0.00244-0.231-0.00977a2.62711,2.62711,0,0,1-1.98975-1.22021,2.647,2.647,0,0,1-.40039-1.39258,2.58316,2.58316,0,0,1,.2207-1.05322,2.46153,2.46153,0,0,1,.21484-0.395,2.60189,2.60189,0,0,1,1.9624-1.16357c0.06738-.00684.14551-0.00977,0.22314-0.00977,0.07715,0,.1543.00293,0.23144,0.01025a2.62226,2.62226,0,0,1-.00488,5.22461C1871.39816,207.67514,1871.321,207.67758,1871.24387,207.67758Z" transform="translate(-1823.39865 -176.14109)"/><path class="4048e2c5-2738-4b3e-83af-ce10964afde8" d="M1871.24387,202.93357c0.06128,0,.12244.002,0.18359,0.00745a2.1226,2.1226,0,0,1,0,4.22937c-0.06116.00562-.12231,0.00745-0.18359,0.00745s-0.12232-.00183-0.18164-0.00745a2.11689,2.11689,0,0,1-1.615-.98828,2.0191,2.0191,0,0,1-.15027-0.28735,2.11809,2.11809,0,0,1,.00378-1.691,1.9806,1.9806,0,0,1,.17432-0.3208,2.11779,2.11779,0,0,1,1.58716-.94189c0.05933-.00549.12048-0.00745,0.18164-0.00745m0-1c-0.09216,0-.18433.00342-0.2738,0.01172a3.09867,3.09867,0,0,0-2.328,1.38428,2.98139,2.98139,0,0,0-.26123.48218,3.11759,3.11759,0,0,0,.00037,2.48474,3.00449,3.00449,0,0,0,.22107.42053,3.13037,3.13037,0,0,0,2.37573,1.44983c0.08008,0.00757.173,0.011,0.26587,0.011,0.0918,0,.18347-0.00317.27515-0.0116a3.10493,3.10493,0,0,0,2.8479-3.11145,3.1403,3.1403,0,0,0-2.85437-3.11011c-0.08667-.00781-0.17749-0.01111-0.26868-0.01111h0Z" transform="translate(-1823.39865 -176.14109)"/><path class="c165ad3d-9632-4699-ac8a-b96b8d3260f0" d="M1871.24387,194.80258c-0.07617,0-.15332-0.00244-0.22705-0.00928a2.60633,2.60633,0,0,1-1.94482-1.14307,2.457,2.457,0,0,1-.22217-0.40479,2.5755,2.5755,0,0,1-.22705-1.064,2.62207,2.62207,0,1,1,2.84717,2.61182C1871.39572,194.80014,1871.31955,194.80258,1871.24387,194.80258Z" transform="translate(-1823.39865 -176.14109)"/><path class="4048e2c5-2738-4b3e-83af-ce10964afde8" d="M1871.24387,190.05844a2.12236,2.12236,0,0,1,.18359,4.23682c-0.06116.00549-.12231,0.00745-0.18359,0.00745s-0.12232-.002-0.18164-0.00745a2.1187,2.1187,0,0,1-1.576-.92529,1.92635,1.92635,0,0,1-.17615-0.32068,2.08769,2.08769,0,0,1-.18726-0.8678,2.12024,2.12024,0,0,1,2.12109-2.123m0-1a3.11969,3.11969,0,0,0-2.84412,4.40479,2.82563,2.82563,0,0,0,.25684.46509,3.10677,3.10677,0,0,0,2.32117,1.3634c0.08179,0.00757.174,0.011,0.26611,0.011,0.09119,0,.182-0.0033.27295-0.01147a3.12234,3.12234,0,0,0-.27295-6.23279h0Z" transform="translate(-1823.39865 -176.14109)"/><path class="2e1c785a-06d9-4237-80dd-fcc24bb33e5b" d="M1826.68088,194.704c-0.07764,0-.1543-0.00293-0.23144-0.01025a2.62806,2.62806,0,1,1,2.60791-3.71631,2.55847,2.55847,0,0,1,.24463,1.10352,2.62407,2.62407,0,0,1-2.39795,2.61328C1826.83566,194.701,1826.75852,194.704,1826.68088,194.704Z" transform="translate(-1823.39865 -176.14109)"/><path class="4048e2c5-2738-4b3e-83af-ce10964afde8" d="M1826.68064,189.95957a2.12082,2.12082,0,0,1,1.73926.90479,2.127,2.127,0,0,1-.12427,2.59216,2.11242,2.11242,0,0,1-1.43323.73975c-0.05933.00562-.12061,0.00745-0.18176,0.00745s-0.12231-.00183-0.18359-0.00745a2.12229,2.12229,0,0,1,.18359-4.23669m0-1a3.12228,3.12228,0,0,0-.27026,6.23291c0.08716,0.00806.17871,0.01123,0.27026,0.01123,0.0929,0,.18591-0.00342.27612-0.012a3.08526,3.08526,0,0,0,2.10168-1.08862,3.12642,3.12642,0,0,0,.316-0.44629,3.09478,3.09478,0,0,0,.42737-1.57617,3.06282,3.06282,0,0,0-.29736-1.32727,3.01611,3.01611,0,0,0-.25977-0.45435,3.13223,3.13223,0,0,0-2.56409-1.33948h0Z" transform="translate(-1823.39865 -176.14109)"/><path class="d5fdefed-2714-4bea-81c8-f890ff9e8ebc" d="M1826.5217,207.67758c-0.07715,0-.1543-0.00244-0.23145-0.00977a2.62223,2.62223,0,0,1,.00537-5.22461c0.07178-.00684.14893-0.00977,0.22608-0.00977,0.07764,0,.15576.00293,0.231,0.01025a2.62558,2.62558,0,0,1,1.87793,1.05176,2.65734,2.65734,0,0,1,.23828.39453,2.56548,2.56548,0,0,1,.27392,1.165,2.61515,2.61515,0,0,1-.37647,1.35254,2.71126,2.71126,0,0,1-.21045.30225,2.60409,2.60409,0,0,1-1.81055.9585C1826.67746,207.67514,1826.59934,207.67758,1826.5217,207.67758Z" transform="translate(-1823.39865 -176.14109)"/><path class="4048e2c5-2738-4b3e-83af-ce10964afde8" d="M1826.5217,202.93357c0.06116,0,.12244.002,0.18176,0.00745a2.09484,2.09484,0,0,1,1.71509,1.16626,2.086,2.086,0,0,1,.22436.94751,2.109,2.109,0,0,1-.30408,1.094,2.33867,2.33867,0,0,1-.17432.25024,2.11923,2.11923,0,0,1-1.46106.77136c-0.05933.00562-.1206,0.00745-0.18176,0.00745s-0.12232-.00183-0.18359-0.00745a2.1226,2.1226,0,0,1,0-4.22937c0.06128-.00549.12244-0.00745,0.18359-0.00745m0-1c-0.09094,0-.18176.0033-0.27283,0.01147a3.13933,3.13933,0,0,0-2.85022,3.10974,3.106,3.106,0,0,0,2.85278,3.11182c0.08716,0.00806.17871,0.01123,0.27026,0.01123,0.09289,0,.18591-0.00342.27612-0.012a3.09242,3.09242,0,0,0,2.14014-1.13306,3.40917,3.40917,0,0,0,.25964-0.37158,3.11056,3.11056,0,0,0,.44531-1.60645,3.17019,3.17019,0,0,0-.6012-1.844,3.14035,3.14035,0,0,0-2.25244-1.26611c-0.08313-.00769-0.17541-0.01111-0.26758-0.01111h0Z" transform="translate(-1823.39865 -176.14109)"/><path class="a50a0165-9ba0-4fa0-9a68-6aa5da5c16b5" d="M1826.68088,220.63413a2.62228,2.62228,0,0,1-.22607-5.23486c0.07422-.00684.1499-0.00928,0.22607-0.00928s0.15234,0.00244.22656,0.00928a2.62763,2.62763,0,0,1,1.82324.97754,2.57818,2.57818,0,0,1,.252.38184,2.621,2.621,0,0,1-.00147,2.51025,2.57465,2.57465,0,0,1-.249.37646A2.61082,2.61082,0,0,1,1826.68088,220.63413Z" transform="translate(-1823.39865 -176.14109)"/><path class="4048e2c5-2738-4b3e-83af-ce10964afde8" d="M1826.68064,215.88986c0.06116,0,.12244.00183,0.18176,0.00745a2.11719,2.11719,0,0,1,1.47778.79175,2.06149,2.06149,0,0,1,.202.30591,2.12168,2.12168,0,0,1,0,2.03406,2.06786,2.06786,0,0,1-.202.30591,2.12263,2.12263,0,1,1-1.84314-3.43762c0.06128-.00562.12244-0.00745,0.18359-0.00745m0-1c-0.09155,0-.1831.00317-0.27478,0.0116a3.12282,3.12282,0,1,0,3.01282,1.61206,3.02717,3.02717,0,0,0-.2937-0.44409,3.13508,3.13508,0,0,0-2.17908-1.16858c-0.07947-.00757-0.17249-0.011-0.26526-0.011h0Z" transform="translate(-1823.39865 -176.14109)"/></svg>